G04 #@! TF.GenerationSoftware,KiCad,Pcbnew,(5.1.4)-1*
G04 #@! TF.CreationDate,2022-03-30T16:45:01-04:00*
G04 #@! TF.ProjectId,ai03-pcb-guide,61693033-2d70-4636-922d-67756964652e,rev?*
G04 #@! TF.SameCoordinates,Original*
G04 #@! TF.FileFunction,Paste,Bot*
G04 #@! TF.FilePolarity,Positive*
%FSLAX46Y46*%
G04 Gerber Fmt 4.6, Leading zero omitted, Abs format (unit mm)*
G04 Created by KiCad (PCBNEW (5.1.4)-1) date 2022-03-30 16:45:01*
%MOMM*%
%LPD*%
G04 APERTURE LIST*
%ADD10R,2.100000X1.800000*%
%ADD11R,0.500000X2.250000*%
%ADD12R,0.550000X1.500000*%
%ADD13R,1.500000X0.550000*%
%ADD14R,1.800000X1.100000*%
%ADD15C,0.100000*%
%ADD16C,0.975000*%
%ADD17C,1.250000*%
%ADD18R,1.200000X0.900000*%
G04 APERTURE END LIST*
D10*
X68918750Y-85368750D03*
X66018750Y-85368750D03*
X66018750Y-87668750D03*
X68918750Y-87668750D03*
D11*
X49200000Y-77525000D03*
X50000000Y-77525000D03*
X50800000Y-77525000D03*
X51600000Y-77525000D03*
X52400000Y-77525000D03*
D12*
X62675000Y-104918750D03*
X63475000Y-104918750D03*
X64275000Y-104918750D03*
X65075000Y-104918750D03*
X65875000Y-104918750D03*
X66675000Y-104918750D03*
X67475000Y-104918750D03*
X68275000Y-104918750D03*
X69075000Y-104918750D03*
X69875000Y-104918750D03*
X70675000Y-104918750D03*
D13*
X72375000Y-103218750D03*
X72375000Y-102418750D03*
X72375000Y-101618750D03*
X72375000Y-100818750D03*
X72375000Y-100018750D03*
X72375000Y-99218750D03*
X72375000Y-98418750D03*
X72375000Y-97618750D03*
X72375000Y-96818750D03*
X72375000Y-96018750D03*
X72375000Y-95218750D03*
D12*
X70675000Y-93518750D03*
X69875000Y-93518750D03*
X69075000Y-93518750D03*
X68275000Y-93518750D03*
X67475000Y-93518750D03*
X66675000Y-93518750D03*
X65875000Y-93518750D03*
X65075000Y-93518750D03*
X64275000Y-93518750D03*
X63475000Y-93518750D03*
X62675000Y-93518750D03*
D13*
X60975000Y-95218750D03*
X60975000Y-96018750D03*
X60975000Y-96818750D03*
X60975000Y-97618750D03*
X60975000Y-98418750D03*
X60975000Y-99218750D03*
X60975000Y-100018750D03*
X60975000Y-100818750D03*
X60975000Y-101618750D03*
X60975000Y-102418750D03*
X60975000Y-103218750D03*
D14*
X51518750Y-111387500D03*
X45318750Y-107687500D03*
X51518750Y-107687500D03*
X45318750Y-111387500D03*
D15*
G36*
X75886392Y-102557424D02*
G01*
X75910053Y-102560934D01*
X75933257Y-102566746D01*
X75955779Y-102574804D01*
X75977403Y-102585032D01*
X75997920Y-102597329D01*
X76017133Y-102611579D01*
X76034857Y-102627643D01*
X76050921Y-102645367D01*
X76065171Y-102664580D01*
X76077468Y-102685097D01*
X76087696Y-102706721D01*
X76095754Y-102729243D01*
X76101566Y-102752447D01*
X76105076Y-102776108D01*
X76106250Y-102800000D01*
X76106250Y-103287500D01*
X76105076Y-103311392D01*
X76101566Y-103335053D01*
X76095754Y-103358257D01*
X76087696Y-103380779D01*
X76077468Y-103402403D01*
X76065171Y-103422920D01*
X76050921Y-103442133D01*
X76034857Y-103459857D01*
X76017133Y-103475921D01*
X75997920Y-103490171D01*
X75977403Y-103502468D01*
X75955779Y-103512696D01*
X75933257Y-103520754D01*
X75910053Y-103526566D01*
X75886392Y-103530076D01*
X75862500Y-103531250D01*
X74950000Y-103531250D01*
X74926108Y-103530076D01*
X74902447Y-103526566D01*
X74879243Y-103520754D01*
X74856721Y-103512696D01*
X74835097Y-103502468D01*
X74814580Y-103490171D01*
X74795367Y-103475921D01*
X74777643Y-103459857D01*
X74761579Y-103442133D01*
X74747329Y-103422920D01*
X74735032Y-103402403D01*
X74724804Y-103380779D01*
X74716746Y-103358257D01*
X74710934Y-103335053D01*
X74707424Y-103311392D01*
X74706250Y-103287500D01*
X74706250Y-102800000D01*
X74707424Y-102776108D01*
X74710934Y-102752447D01*
X74716746Y-102729243D01*
X74724804Y-102706721D01*
X74735032Y-102685097D01*
X74747329Y-102664580D01*
X74761579Y-102645367D01*
X74777643Y-102627643D01*
X74795367Y-102611579D01*
X74814580Y-102597329D01*
X74835097Y-102585032D01*
X74856721Y-102574804D01*
X74879243Y-102566746D01*
X74902447Y-102560934D01*
X74926108Y-102557424D01*
X74950000Y-102556250D01*
X75862500Y-102556250D01*
X75886392Y-102557424D01*
X75886392Y-102557424D01*
G37*
D16*
X75406250Y-103043750D03*
D15*
G36*
X75886392Y-104432424D02*
G01*
X75910053Y-104435934D01*
X75933257Y-104441746D01*
X75955779Y-104449804D01*
X75977403Y-104460032D01*
X75997920Y-104472329D01*
X76017133Y-104486579D01*
X76034857Y-104502643D01*
X76050921Y-104520367D01*
X76065171Y-104539580D01*
X76077468Y-104560097D01*
X76087696Y-104581721D01*
X76095754Y-104604243D01*
X76101566Y-104627447D01*
X76105076Y-104651108D01*
X76106250Y-104675000D01*
X76106250Y-105162500D01*
X76105076Y-105186392D01*
X76101566Y-105210053D01*
X76095754Y-105233257D01*
X76087696Y-105255779D01*
X76077468Y-105277403D01*
X76065171Y-105297920D01*
X76050921Y-105317133D01*
X76034857Y-105334857D01*
X76017133Y-105350921D01*
X75997920Y-105365171D01*
X75977403Y-105377468D01*
X75955779Y-105387696D01*
X75933257Y-105395754D01*
X75910053Y-105401566D01*
X75886392Y-105405076D01*
X75862500Y-105406250D01*
X74950000Y-105406250D01*
X74926108Y-105405076D01*
X74902447Y-105401566D01*
X74879243Y-105395754D01*
X74856721Y-105387696D01*
X74835097Y-105377468D01*
X74814580Y-105365171D01*
X74795367Y-105350921D01*
X74777643Y-105334857D01*
X74761579Y-105317133D01*
X74747329Y-105297920D01*
X74735032Y-105277403D01*
X74724804Y-105255779D01*
X74716746Y-105233257D01*
X74710934Y-105210053D01*
X74707424Y-105186392D01*
X74706250Y-105162500D01*
X74706250Y-104675000D01*
X74707424Y-104651108D01*
X74710934Y-104627447D01*
X74716746Y-104604243D01*
X74724804Y-104581721D01*
X74735032Y-104560097D01*
X74747329Y-104539580D01*
X74761579Y-104520367D01*
X74777643Y-104502643D01*
X74795367Y-104486579D01*
X74814580Y-104472329D01*
X74835097Y-104460032D01*
X74856721Y-104449804D01*
X74879243Y-104441746D01*
X74902447Y-104435934D01*
X74926108Y-104432424D01*
X74950000Y-104431250D01*
X75862500Y-104431250D01*
X75886392Y-104432424D01*
X75886392Y-104432424D01*
G37*
D16*
X75406250Y-104918750D03*
D15*
G36*
X55248892Y-89857424D02*
G01*
X55272553Y-89860934D01*
X55295757Y-89866746D01*
X55318279Y-89874804D01*
X55339903Y-89885032D01*
X55360420Y-89897329D01*
X55379633Y-89911579D01*
X55397357Y-89927643D01*
X55413421Y-89945367D01*
X55427671Y-89964580D01*
X55439968Y-89985097D01*
X55450196Y-90006721D01*
X55458254Y-90029243D01*
X55464066Y-90052447D01*
X55467576Y-90076108D01*
X55468750Y-90100000D01*
X55468750Y-90587500D01*
X55467576Y-90611392D01*
X55464066Y-90635053D01*
X55458254Y-90658257D01*
X55450196Y-90680779D01*
X55439968Y-90702403D01*
X55427671Y-90722920D01*
X55413421Y-90742133D01*
X55397357Y-90759857D01*
X55379633Y-90775921D01*
X55360420Y-90790171D01*
X55339903Y-90802468D01*
X55318279Y-90812696D01*
X55295757Y-90820754D01*
X55272553Y-90826566D01*
X55248892Y-90830076D01*
X55225000Y-90831250D01*
X54312500Y-90831250D01*
X54288608Y-90830076D01*
X54264947Y-90826566D01*
X54241743Y-90820754D01*
X54219221Y-90812696D01*
X54197597Y-90802468D01*
X54177080Y-90790171D01*
X54157867Y-90775921D01*
X54140143Y-90759857D01*
X54124079Y-90742133D01*
X54109829Y-90722920D01*
X54097532Y-90702403D01*
X54087304Y-90680779D01*
X54079246Y-90658257D01*
X54073434Y-90635053D01*
X54069924Y-90611392D01*
X54068750Y-90587500D01*
X54068750Y-90100000D01*
X54069924Y-90076108D01*
X54073434Y-90052447D01*
X54079246Y-90029243D01*
X54087304Y-90006721D01*
X54097532Y-89985097D01*
X54109829Y-89964580D01*
X54124079Y-89945367D01*
X54140143Y-89927643D01*
X54157867Y-89911579D01*
X54177080Y-89897329D01*
X54197597Y-89885032D01*
X54219221Y-89874804D01*
X54241743Y-89866746D01*
X54264947Y-89860934D01*
X54288608Y-89857424D01*
X54312500Y-89856250D01*
X55225000Y-89856250D01*
X55248892Y-89857424D01*
X55248892Y-89857424D01*
G37*
D16*
X54768750Y-90343750D03*
D15*
G36*
X55248892Y-91732424D02*
G01*
X55272553Y-91735934D01*
X55295757Y-91741746D01*
X55318279Y-91749804D01*
X55339903Y-91760032D01*
X55360420Y-91772329D01*
X55379633Y-91786579D01*
X55397357Y-91802643D01*
X55413421Y-91820367D01*
X55427671Y-91839580D01*
X55439968Y-91860097D01*
X55450196Y-91881721D01*
X55458254Y-91904243D01*
X55464066Y-91927447D01*
X55467576Y-91951108D01*
X55468750Y-91975000D01*
X55468750Y-92462500D01*
X55467576Y-92486392D01*
X55464066Y-92510053D01*
X55458254Y-92533257D01*
X55450196Y-92555779D01*
X55439968Y-92577403D01*
X55427671Y-92597920D01*
X55413421Y-92617133D01*
X55397357Y-92634857D01*
X55379633Y-92650921D01*
X55360420Y-92665171D01*
X55339903Y-92677468D01*
X55318279Y-92687696D01*
X55295757Y-92695754D01*
X55272553Y-92701566D01*
X55248892Y-92705076D01*
X55225000Y-92706250D01*
X54312500Y-92706250D01*
X54288608Y-92705076D01*
X54264947Y-92701566D01*
X54241743Y-92695754D01*
X54219221Y-92687696D01*
X54197597Y-92677468D01*
X54177080Y-92665171D01*
X54157867Y-92650921D01*
X54140143Y-92634857D01*
X54124079Y-92617133D01*
X54109829Y-92597920D01*
X54097532Y-92577403D01*
X54087304Y-92555779D01*
X54079246Y-92533257D01*
X54073434Y-92510053D01*
X54069924Y-92486392D01*
X54068750Y-92462500D01*
X54068750Y-91975000D01*
X54069924Y-91951108D01*
X54073434Y-91927447D01*
X54079246Y-91904243D01*
X54087304Y-91881721D01*
X54097532Y-91860097D01*
X54109829Y-91839580D01*
X54124079Y-91820367D01*
X54140143Y-91802643D01*
X54157867Y-91786579D01*
X54177080Y-91772329D01*
X54197597Y-91760032D01*
X54219221Y-91749804D01*
X54241743Y-91741746D01*
X54264947Y-91735934D01*
X54288608Y-91732424D01*
X54312500Y-91731250D01*
X55225000Y-91731250D01*
X55248892Y-91732424D01*
X55248892Y-91732424D01*
G37*
D16*
X54768750Y-92218750D03*
D15*
G36*
X52867642Y-81919924D02*
G01*
X52891303Y-81923434D01*
X52914507Y-81929246D01*
X52937029Y-81937304D01*
X52958653Y-81947532D01*
X52979170Y-81959829D01*
X52998383Y-81974079D01*
X53016107Y-81990143D01*
X53032171Y-82007867D01*
X53046421Y-82027080D01*
X53058718Y-82047597D01*
X53068946Y-82069221D01*
X53077004Y-82091743D01*
X53082816Y-82114947D01*
X53086326Y-82138608D01*
X53087500Y-82162500D01*
X53087500Y-82650000D01*
X53086326Y-82673892D01*
X53082816Y-82697553D01*
X53077004Y-82720757D01*
X53068946Y-82743279D01*
X53058718Y-82764903D01*
X53046421Y-82785420D01*
X53032171Y-82804633D01*
X53016107Y-82822357D01*
X52998383Y-82838421D01*
X52979170Y-82852671D01*
X52958653Y-82864968D01*
X52937029Y-82875196D01*
X52914507Y-82883254D01*
X52891303Y-82889066D01*
X52867642Y-82892576D01*
X52843750Y-82893750D01*
X51931250Y-82893750D01*
X51907358Y-82892576D01*
X51883697Y-82889066D01*
X51860493Y-82883254D01*
X51837971Y-82875196D01*
X51816347Y-82864968D01*
X51795830Y-82852671D01*
X51776617Y-82838421D01*
X51758893Y-82822357D01*
X51742829Y-82804633D01*
X51728579Y-82785420D01*
X51716282Y-82764903D01*
X51706054Y-82743279D01*
X51697996Y-82720757D01*
X51692184Y-82697553D01*
X51688674Y-82673892D01*
X51687500Y-82650000D01*
X51687500Y-82162500D01*
X51688674Y-82138608D01*
X51692184Y-82114947D01*
X51697996Y-82091743D01*
X51706054Y-82069221D01*
X51716282Y-82047597D01*
X51728579Y-82027080D01*
X51742829Y-82007867D01*
X51758893Y-81990143D01*
X51776617Y-81974079D01*
X51795830Y-81959829D01*
X51816347Y-81947532D01*
X51837971Y-81937304D01*
X51860493Y-81929246D01*
X51883697Y-81923434D01*
X51907358Y-81919924D01*
X51931250Y-81918750D01*
X52843750Y-81918750D01*
X52867642Y-81919924D01*
X52867642Y-81919924D01*
G37*
D16*
X52387500Y-82406250D03*
D15*
G36*
X52867642Y-83794924D02*
G01*
X52891303Y-83798434D01*
X52914507Y-83804246D01*
X52937029Y-83812304D01*
X52958653Y-83822532D01*
X52979170Y-83834829D01*
X52998383Y-83849079D01*
X53016107Y-83865143D01*
X53032171Y-83882867D01*
X53046421Y-83902080D01*
X53058718Y-83922597D01*
X53068946Y-83944221D01*
X53077004Y-83966743D01*
X53082816Y-83989947D01*
X53086326Y-84013608D01*
X53087500Y-84037500D01*
X53087500Y-84525000D01*
X53086326Y-84548892D01*
X53082816Y-84572553D01*
X53077004Y-84595757D01*
X53068946Y-84618279D01*
X53058718Y-84639903D01*
X53046421Y-84660420D01*
X53032171Y-84679633D01*
X53016107Y-84697357D01*
X52998383Y-84713421D01*
X52979170Y-84727671D01*
X52958653Y-84739968D01*
X52937029Y-84750196D01*
X52914507Y-84758254D01*
X52891303Y-84764066D01*
X52867642Y-84767576D01*
X52843750Y-84768750D01*
X51931250Y-84768750D01*
X51907358Y-84767576D01*
X51883697Y-84764066D01*
X51860493Y-84758254D01*
X51837971Y-84750196D01*
X51816347Y-84739968D01*
X51795830Y-84727671D01*
X51776617Y-84713421D01*
X51758893Y-84697357D01*
X51742829Y-84679633D01*
X51728579Y-84660420D01*
X51716282Y-84639903D01*
X51706054Y-84618279D01*
X51697996Y-84595757D01*
X51692184Y-84572553D01*
X51688674Y-84548892D01*
X51687500Y-84525000D01*
X51687500Y-84037500D01*
X51688674Y-84013608D01*
X51692184Y-83989947D01*
X51697996Y-83966743D01*
X51706054Y-83944221D01*
X51716282Y-83922597D01*
X51728579Y-83902080D01*
X51742829Y-83882867D01*
X51758893Y-83865143D01*
X51776617Y-83849079D01*
X51795830Y-83834829D01*
X51816347Y-83822532D01*
X51837971Y-83812304D01*
X51860493Y-83804246D01*
X51883697Y-83798434D01*
X51907358Y-83794924D01*
X51931250Y-83793750D01*
X52843750Y-83793750D01*
X52867642Y-83794924D01*
X52867642Y-83794924D01*
G37*
D16*
X52387500Y-84281250D03*
D15*
G36*
X48898892Y-81919924D02*
G01*
X48922553Y-81923434D01*
X48945757Y-81929246D01*
X48968279Y-81937304D01*
X48989903Y-81947532D01*
X49010420Y-81959829D01*
X49029633Y-81974079D01*
X49047357Y-81990143D01*
X49063421Y-82007867D01*
X49077671Y-82027080D01*
X49089968Y-82047597D01*
X49100196Y-82069221D01*
X49108254Y-82091743D01*
X49114066Y-82114947D01*
X49117576Y-82138608D01*
X49118750Y-82162500D01*
X49118750Y-82650000D01*
X49117576Y-82673892D01*
X49114066Y-82697553D01*
X49108254Y-82720757D01*
X49100196Y-82743279D01*
X49089968Y-82764903D01*
X49077671Y-82785420D01*
X49063421Y-82804633D01*
X49047357Y-82822357D01*
X49029633Y-82838421D01*
X49010420Y-82852671D01*
X48989903Y-82864968D01*
X48968279Y-82875196D01*
X48945757Y-82883254D01*
X48922553Y-82889066D01*
X48898892Y-82892576D01*
X48875000Y-82893750D01*
X47962500Y-82893750D01*
X47938608Y-82892576D01*
X47914947Y-82889066D01*
X47891743Y-82883254D01*
X47869221Y-82875196D01*
X47847597Y-82864968D01*
X47827080Y-82852671D01*
X47807867Y-82838421D01*
X47790143Y-82822357D01*
X47774079Y-82804633D01*
X47759829Y-82785420D01*
X47747532Y-82764903D01*
X47737304Y-82743279D01*
X47729246Y-82720757D01*
X47723434Y-82697553D01*
X47719924Y-82673892D01*
X47718750Y-82650000D01*
X47718750Y-82162500D01*
X47719924Y-82138608D01*
X47723434Y-82114947D01*
X47729246Y-82091743D01*
X47737304Y-82069221D01*
X47747532Y-82047597D01*
X47759829Y-82027080D01*
X47774079Y-82007867D01*
X47790143Y-81990143D01*
X47807867Y-81974079D01*
X47827080Y-81959829D01*
X47847597Y-81947532D01*
X47869221Y-81937304D01*
X47891743Y-81929246D01*
X47914947Y-81923434D01*
X47938608Y-81919924D01*
X47962500Y-81918750D01*
X48875000Y-81918750D01*
X48898892Y-81919924D01*
X48898892Y-81919924D01*
G37*
D16*
X48418750Y-82406250D03*
D15*
G36*
X48898892Y-83794924D02*
G01*
X48922553Y-83798434D01*
X48945757Y-83804246D01*
X48968279Y-83812304D01*
X48989903Y-83822532D01*
X49010420Y-83834829D01*
X49029633Y-83849079D01*
X49047357Y-83865143D01*
X49063421Y-83882867D01*
X49077671Y-83902080D01*
X49089968Y-83922597D01*
X49100196Y-83944221D01*
X49108254Y-83966743D01*
X49114066Y-83989947D01*
X49117576Y-84013608D01*
X49118750Y-84037500D01*
X49118750Y-84525000D01*
X49117576Y-84548892D01*
X49114066Y-84572553D01*
X49108254Y-84595757D01*
X49100196Y-84618279D01*
X49089968Y-84639903D01*
X49077671Y-84660420D01*
X49063421Y-84679633D01*
X49047357Y-84697357D01*
X49029633Y-84713421D01*
X49010420Y-84727671D01*
X48989903Y-84739968D01*
X48968279Y-84750196D01*
X48945757Y-84758254D01*
X48922553Y-84764066D01*
X48898892Y-84767576D01*
X48875000Y-84768750D01*
X47962500Y-84768750D01*
X47938608Y-84767576D01*
X47914947Y-84764066D01*
X47891743Y-84758254D01*
X47869221Y-84750196D01*
X47847597Y-84739968D01*
X47827080Y-84727671D01*
X47807867Y-84713421D01*
X47790143Y-84697357D01*
X47774079Y-84679633D01*
X47759829Y-84660420D01*
X47747532Y-84639903D01*
X47737304Y-84618279D01*
X47729246Y-84595757D01*
X47723434Y-84572553D01*
X47719924Y-84548892D01*
X47718750Y-84525000D01*
X47718750Y-84037500D01*
X47719924Y-84013608D01*
X47723434Y-83989947D01*
X47729246Y-83966743D01*
X47737304Y-83944221D01*
X47747532Y-83922597D01*
X47759829Y-83902080D01*
X47774079Y-83882867D01*
X47790143Y-83865143D01*
X47807867Y-83849079D01*
X47827080Y-83834829D01*
X47847597Y-83822532D01*
X47869221Y-83812304D01*
X47891743Y-83804246D01*
X47914947Y-83798434D01*
X47938608Y-83794924D01*
X47962500Y-83793750D01*
X48875000Y-83793750D01*
X48898892Y-83794924D01*
X48898892Y-83794924D01*
G37*
D16*
X48418750Y-84281250D03*
D15*
G36*
X45099504Y-89257454D02*
G01*
X45123773Y-89261054D01*
X45147571Y-89267015D01*
X45170671Y-89275280D01*
X45192849Y-89285770D01*
X45213893Y-89298383D01*
X45233598Y-89312997D01*
X45251777Y-89329473D01*
X45268253Y-89347652D01*
X45282867Y-89367357D01*
X45295480Y-89388401D01*
X45305970Y-89410579D01*
X45314235Y-89433679D01*
X45320196Y-89457477D01*
X45323796Y-89481746D01*
X45325000Y-89506250D01*
X45325000Y-90256250D01*
X45323796Y-90280754D01*
X45320196Y-90305023D01*
X45314235Y-90328821D01*
X45305970Y-90351921D01*
X45295480Y-90374099D01*
X45282867Y-90395143D01*
X45268253Y-90414848D01*
X45251777Y-90433027D01*
X45233598Y-90449503D01*
X45213893Y-90464117D01*
X45192849Y-90476730D01*
X45170671Y-90487220D01*
X45147571Y-90495485D01*
X45123773Y-90501446D01*
X45099504Y-90505046D01*
X45075000Y-90506250D01*
X43825000Y-90506250D01*
X43800496Y-90505046D01*
X43776227Y-90501446D01*
X43752429Y-90495485D01*
X43729329Y-90487220D01*
X43707151Y-90476730D01*
X43686107Y-90464117D01*
X43666402Y-90449503D01*
X43648223Y-90433027D01*
X43631747Y-90414848D01*
X43617133Y-90395143D01*
X43604520Y-90374099D01*
X43594030Y-90351921D01*
X43585765Y-90328821D01*
X43579804Y-90305023D01*
X43576204Y-90280754D01*
X43575000Y-90256250D01*
X43575000Y-89506250D01*
X43576204Y-89481746D01*
X43579804Y-89457477D01*
X43585765Y-89433679D01*
X43594030Y-89410579D01*
X43604520Y-89388401D01*
X43617133Y-89367357D01*
X43631747Y-89347652D01*
X43648223Y-89329473D01*
X43666402Y-89312997D01*
X43686107Y-89298383D01*
X43707151Y-89285770D01*
X43729329Y-89275280D01*
X43752429Y-89267015D01*
X43776227Y-89261054D01*
X43800496Y-89257454D01*
X43825000Y-89256250D01*
X45075000Y-89256250D01*
X45099504Y-89257454D01*
X45099504Y-89257454D01*
G37*
D17*
X44450000Y-89881250D03*
D15*
G36*
X45099504Y-92057454D02*
G01*
X45123773Y-92061054D01*
X45147571Y-92067015D01*
X45170671Y-92075280D01*
X45192849Y-92085770D01*
X45213893Y-92098383D01*
X45233598Y-92112997D01*
X45251777Y-92129473D01*
X45268253Y-92147652D01*
X45282867Y-92167357D01*
X45295480Y-92188401D01*
X45305970Y-92210579D01*
X45314235Y-92233679D01*
X45320196Y-92257477D01*
X45323796Y-92281746D01*
X45325000Y-92306250D01*
X45325000Y-93056250D01*
X45323796Y-93080754D01*
X45320196Y-93105023D01*
X45314235Y-93128821D01*
X45305970Y-93151921D01*
X45295480Y-93174099D01*
X45282867Y-93195143D01*
X45268253Y-93214848D01*
X45251777Y-93233027D01*
X45233598Y-93249503D01*
X45213893Y-93264117D01*
X45192849Y-93276730D01*
X45170671Y-93287220D01*
X45147571Y-93295485D01*
X45123773Y-93301446D01*
X45099504Y-93305046D01*
X45075000Y-93306250D01*
X43825000Y-93306250D01*
X43800496Y-93305046D01*
X43776227Y-93301446D01*
X43752429Y-93295485D01*
X43729329Y-93287220D01*
X43707151Y-93276730D01*
X43686107Y-93264117D01*
X43666402Y-93249503D01*
X43648223Y-93233027D01*
X43631747Y-93214848D01*
X43617133Y-93195143D01*
X43604520Y-93174099D01*
X43594030Y-93151921D01*
X43585765Y-93128821D01*
X43579804Y-93105023D01*
X43576204Y-93080754D01*
X43575000Y-93056250D01*
X43575000Y-92306250D01*
X43576204Y-92281746D01*
X43579804Y-92257477D01*
X43585765Y-92233679D01*
X43594030Y-92210579D01*
X43604520Y-92188401D01*
X43617133Y-92167357D01*
X43631747Y-92147652D01*
X43648223Y-92129473D01*
X43666402Y-92112997D01*
X43686107Y-92098383D01*
X43707151Y-92085770D01*
X43729329Y-92075280D01*
X43752429Y-92067015D01*
X43776227Y-92061054D01*
X43800496Y-92057454D01*
X43825000Y-92056250D01*
X45075000Y-92056250D01*
X45099504Y-92057454D01*
X45099504Y-92057454D01*
G37*
D17*
X44450000Y-92681250D03*
D18*
X114300000Y-101537500D03*
X114300000Y-104837500D03*
X114300000Y-82487500D03*
X114300000Y-85787500D03*
X94456250Y-82487500D03*
X94456250Y-85787500D03*
X95250000Y-101537500D03*
X95250000Y-104837500D03*
D15*
G36*
X56042642Y-100463674D02*
G01*
X56066303Y-100467184D01*
X56089507Y-100472996D01*
X56112029Y-100481054D01*
X56133653Y-100491282D01*
X56154170Y-100503579D01*
X56173383Y-100517829D01*
X56191107Y-100533893D01*
X56207171Y-100551617D01*
X56221421Y-100570830D01*
X56233718Y-100591347D01*
X56243946Y-100612971D01*
X56252004Y-100635493D01*
X56257816Y-100658697D01*
X56261326Y-100682358D01*
X56262500Y-100706250D01*
X56262500Y-101193750D01*
X56261326Y-101217642D01*
X56257816Y-101241303D01*
X56252004Y-101264507D01*
X56243946Y-101287029D01*
X56233718Y-101308653D01*
X56221421Y-101329170D01*
X56207171Y-101348383D01*
X56191107Y-101366107D01*
X56173383Y-101382171D01*
X56154170Y-101396421D01*
X56133653Y-101408718D01*
X56112029Y-101418946D01*
X56089507Y-101427004D01*
X56066303Y-101432816D01*
X56042642Y-101436326D01*
X56018750Y-101437500D01*
X55106250Y-101437500D01*
X55082358Y-101436326D01*
X55058697Y-101432816D01*
X55035493Y-101427004D01*
X55012971Y-101418946D01*
X54991347Y-101408718D01*
X54970830Y-101396421D01*
X54951617Y-101382171D01*
X54933893Y-101366107D01*
X54917829Y-101348383D01*
X54903579Y-101329170D01*
X54891282Y-101308653D01*
X54881054Y-101287029D01*
X54872996Y-101264507D01*
X54867184Y-101241303D01*
X54863674Y-101217642D01*
X54862500Y-101193750D01*
X54862500Y-100706250D01*
X54863674Y-100682358D01*
X54867184Y-100658697D01*
X54872996Y-100635493D01*
X54881054Y-100612971D01*
X54891282Y-100591347D01*
X54903579Y-100570830D01*
X54917829Y-100551617D01*
X54933893Y-100533893D01*
X54951617Y-100517829D01*
X54970830Y-100503579D01*
X54991347Y-100491282D01*
X55012971Y-100481054D01*
X55035493Y-100472996D01*
X55058697Y-100467184D01*
X55082358Y-100463674D01*
X55106250Y-100462500D01*
X56018750Y-100462500D01*
X56042642Y-100463674D01*
X56042642Y-100463674D01*
G37*
D16*
X55562500Y-100950000D03*
D15*
G36*
X56042642Y-98588674D02*
G01*
X56066303Y-98592184D01*
X56089507Y-98597996D01*
X56112029Y-98606054D01*
X56133653Y-98616282D01*
X56154170Y-98628579D01*
X56173383Y-98642829D01*
X56191107Y-98658893D01*
X56207171Y-98676617D01*
X56221421Y-98695830D01*
X56233718Y-98716347D01*
X56243946Y-98737971D01*
X56252004Y-98760493D01*
X56257816Y-98783697D01*
X56261326Y-98807358D01*
X56262500Y-98831250D01*
X56262500Y-99318750D01*
X56261326Y-99342642D01*
X56257816Y-99366303D01*
X56252004Y-99389507D01*
X56243946Y-99412029D01*
X56233718Y-99433653D01*
X56221421Y-99454170D01*
X56207171Y-99473383D01*
X56191107Y-99491107D01*
X56173383Y-99507171D01*
X56154170Y-99521421D01*
X56133653Y-99533718D01*
X56112029Y-99543946D01*
X56089507Y-99552004D01*
X56066303Y-99557816D01*
X56042642Y-99561326D01*
X56018750Y-99562500D01*
X55106250Y-99562500D01*
X55082358Y-99561326D01*
X55058697Y-99557816D01*
X55035493Y-99552004D01*
X55012971Y-99543946D01*
X54991347Y-99533718D01*
X54970830Y-99521421D01*
X54951617Y-99507171D01*
X54933893Y-99491107D01*
X54917829Y-99473383D01*
X54903579Y-99454170D01*
X54891282Y-99433653D01*
X54881054Y-99412029D01*
X54872996Y-99389507D01*
X54867184Y-99366303D01*
X54863674Y-99342642D01*
X54862500Y-99318750D01*
X54862500Y-98831250D01*
X54863674Y-98807358D01*
X54867184Y-98783697D01*
X54872996Y-98760493D01*
X54881054Y-98737971D01*
X54891282Y-98716347D01*
X54903579Y-98695830D01*
X54917829Y-98676617D01*
X54933893Y-98658893D01*
X54951617Y-98642829D01*
X54970830Y-98628579D01*
X54991347Y-98616282D01*
X55012971Y-98606054D01*
X55035493Y-98597996D01*
X55058697Y-98592184D01*
X55082358Y-98588674D01*
X55106250Y-98587500D01*
X56018750Y-98587500D01*
X56042642Y-98588674D01*
X56042642Y-98588674D01*
G37*
D16*
X55562500Y-99075000D03*
D15*
G36*
X63911392Y-108838674D02*
G01*
X63935053Y-108842184D01*
X63958257Y-108847996D01*
X63980779Y-108856054D01*
X64002403Y-108866282D01*
X64022920Y-108878579D01*
X64042133Y-108892829D01*
X64059857Y-108908893D01*
X64075921Y-108926617D01*
X64090171Y-108945830D01*
X64102468Y-108966347D01*
X64112696Y-108987971D01*
X64120754Y-109010493D01*
X64126566Y-109033697D01*
X64130076Y-109057358D01*
X64131250Y-109081250D01*
X64131250Y-109993750D01*
X64130076Y-110017642D01*
X64126566Y-110041303D01*
X64120754Y-110064507D01*
X64112696Y-110087029D01*
X64102468Y-110108653D01*
X64090171Y-110129170D01*
X64075921Y-110148383D01*
X64059857Y-110166107D01*
X64042133Y-110182171D01*
X64022920Y-110196421D01*
X64002403Y-110208718D01*
X63980779Y-110218946D01*
X63958257Y-110227004D01*
X63935053Y-110232816D01*
X63911392Y-110236326D01*
X63887500Y-110237500D01*
X63400000Y-110237500D01*
X63376108Y-110236326D01*
X63352447Y-110232816D01*
X63329243Y-110227004D01*
X63306721Y-110218946D01*
X63285097Y-110208718D01*
X63264580Y-110196421D01*
X63245367Y-110182171D01*
X63227643Y-110166107D01*
X63211579Y-110148383D01*
X63197329Y-110129170D01*
X63185032Y-110108653D01*
X63174804Y-110087029D01*
X63166746Y-110064507D01*
X63160934Y-110041303D01*
X63157424Y-110017642D01*
X63156250Y-109993750D01*
X63156250Y-109081250D01*
X63157424Y-109057358D01*
X63160934Y-109033697D01*
X63166746Y-109010493D01*
X63174804Y-108987971D01*
X63185032Y-108966347D01*
X63197329Y-108945830D01*
X63211579Y-108926617D01*
X63227643Y-108908893D01*
X63245367Y-108892829D01*
X63264580Y-108878579D01*
X63285097Y-108866282D01*
X63306721Y-108856054D01*
X63329243Y-108847996D01*
X63352447Y-108842184D01*
X63376108Y-108838674D01*
X63400000Y-108837500D01*
X63887500Y-108837500D01*
X63911392Y-108838674D01*
X63911392Y-108838674D01*
G37*
D16*
X63643750Y-109537500D03*
D15*
G36*
X62036392Y-108838674D02*
G01*
X62060053Y-108842184D01*
X62083257Y-108847996D01*
X62105779Y-108856054D01*
X62127403Y-108866282D01*
X62147920Y-108878579D01*
X62167133Y-108892829D01*
X62184857Y-108908893D01*
X62200921Y-108926617D01*
X62215171Y-108945830D01*
X62227468Y-108966347D01*
X62237696Y-108987971D01*
X62245754Y-109010493D01*
X62251566Y-109033697D01*
X62255076Y-109057358D01*
X62256250Y-109081250D01*
X62256250Y-109993750D01*
X62255076Y-110017642D01*
X62251566Y-110041303D01*
X62245754Y-110064507D01*
X62237696Y-110087029D01*
X62227468Y-110108653D01*
X62215171Y-110129170D01*
X62200921Y-110148383D01*
X62184857Y-110166107D01*
X62167133Y-110182171D01*
X62147920Y-110196421D01*
X62127403Y-110208718D01*
X62105779Y-110218946D01*
X62083257Y-110227004D01*
X62060053Y-110232816D01*
X62036392Y-110236326D01*
X62012500Y-110237500D01*
X61525000Y-110237500D01*
X61501108Y-110236326D01*
X61477447Y-110232816D01*
X61454243Y-110227004D01*
X61431721Y-110218946D01*
X61410097Y-110208718D01*
X61389580Y-110196421D01*
X61370367Y-110182171D01*
X61352643Y-110166107D01*
X61336579Y-110148383D01*
X61322329Y-110129170D01*
X61310032Y-110108653D01*
X61299804Y-110087029D01*
X61291746Y-110064507D01*
X61285934Y-110041303D01*
X61282424Y-110017642D01*
X61281250Y-109993750D01*
X61281250Y-109081250D01*
X61282424Y-109057358D01*
X61285934Y-109033697D01*
X61291746Y-109010493D01*
X61299804Y-108987971D01*
X61310032Y-108966347D01*
X61322329Y-108945830D01*
X61336579Y-108926617D01*
X61352643Y-108908893D01*
X61370367Y-108892829D01*
X61389580Y-108878579D01*
X61410097Y-108866282D01*
X61431721Y-108856054D01*
X61454243Y-108847996D01*
X61477447Y-108842184D01*
X61501108Y-108838674D01*
X61525000Y-108837500D01*
X62012500Y-108837500D01*
X62036392Y-108838674D01*
X62036392Y-108838674D01*
G37*
D16*
X61768750Y-109537500D03*
D15*
G36*
X75886392Y-93032424D02*
G01*
X75910053Y-93035934D01*
X75933257Y-93041746D01*
X75955779Y-93049804D01*
X75977403Y-93060032D01*
X75997920Y-93072329D01*
X76017133Y-93086579D01*
X76034857Y-93102643D01*
X76050921Y-93120367D01*
X76065171Y-93139580D01*
X76077468Y-93160097D01*
X76087696Y-93181721D01*
X76095754Y-93204243D01*
X76101566Y-93227447D01*
X76105076Y-93251108D01*
X76106250Y-93275000D01*
X76106250Y-93762500D01*
X76105076Y-93786392D01*
X76101566Y-93810053D01*
X76095754Y-93833257D01*
X76087696Y-93855779D01*
X76077468Y-93877403D01*
X76065171Y-93897920D01*
X76050921Y-93917133D01*
X76034857Y-93934857D01*
X76017133Y-93950921D01*
X75997920Y-93965171D01*
X75977403Y-93977468D01*
X75955779Y-93987696D01*
X75933257Y-93995754D01*
X75910053Y-94001566D01*
X75886392Y-94005076D01*
X75862500Y-94006250D01*
X74950000Y-94006250D01*
X74926108Y-94005076D01*
X74902447Y-94001566D01*
X74879243Y-93995754D01*
X74856721Y-93987696D01*
X74835097Y-93977468D01*
X74814580Y-93965171D01*
X74795367Y-93950921D01*
X74777643Y-93934857D01*
X74761579Y-93917133D01*
X74747329Y-93897920D01*
X74735032Y-93877403D01*
X74724804Y-93855779D01*
X74716746Y-93833257D01*
X74710934Y-93810053D01*
X74707424Y-93786392D01*
X74706250Y-93762500D01*
X74706250Y-93275000D01*
X74707424Y-93251108D01*
X74710934Y-93227447D01*
X74716746Y-93204243D01*
X74724804Y-93181721D01*
X74735032Y-93160097D01*
X74747329Y-93139580D01*
X74761579Y-93120367D01*
X74777643Y-93102643D01*
X74795367Y-93086579D01*
X74814580Y-93072329D01*
X74835097Y-93060032D01*
X74856721Y-93049804D01*
X74879243Y-93041746D01*
X74902447Y-93035934D01*
X74926108Y-93032424D01*
X74950000Y-93031250D01*
X75862500Y-93031250D01*
X75886392Y-93032424D01*
X75886392Y-93032424D01*
G37*
D16*
X75406250Y-93518750D03*
D15*
G36*
X75886392Y-94907424D02*
G01*
X75910053Y-94910934D01*
X75933257Y-94916746D01*
X75955779Y-94924804D01*
X75977403Y-94935032D01*
X75997920Y-94947329D01*
X76017133Y-94961579D01*
X76034857Y-94977643D01*
X76050921Y-94995367D01*
X76065171Y-95014580D01*
X76077468Y-95035097D01*
X76087696Y-95056721D01*
X76095754Y-95079243D01*
X76101566Y-95102447D01*
X76105076Y-95126108D01*
X76106250Y-95150000D01*
X76106250Y-95637500D01*
X76105076Y-95661392D01*
X76101566Y-95685053D01*
X76095754Y-95708257D01*
X76087696Y-95730779D01*
X76077468Y-95752403D01*
X76065171Y-95772920D01*
X76050921Y-95792133D01*
X76034857Y-95809857D01*
X76017133Y-95825921D01*
X75997920Y-95840171D01*
X75977403Y-95852468D01*
X75955779Y-95862696D01*
X75933257Y-95870754D01*
X75910053Y-95876566D01*
X75886392Y-95880076D01*
X75862500Y-95881250D01*
X74950000Y-95881250D01*
X74926108Y-95880076D01*
X74902447Y-95876566D01*
X74879243Y-95870754D01*
X74856721Y-95862696D01*
X74835097Y-95852468D01*
X74814580Y-95840171D01*
X74795367Y-95825921D01*
X74777643Y-95809857D01*
X74761579Y-95792133D01*
X74747329Y-95772920D01*
X74735032Y-95752403D01*
X74724804Y-95730779D01*
X74716746Y-95708257D01*
X74710934Y-95685053D01*
X74707424Y-95661392D01*
X74706250Y-95637500D01*
X74706250Y-95150000D01*
X74707424Y-95126108D01*
X74710934Y-95102447D01*
X74716746Y-95079243D01*
X74724804Y-95056721D01*
X74735032Y-95035097D01*
X74747329Y-95014580D01*
X74761579Y-94995367D01*
X74777643Y-94977643D01*
X74795367Y-94961579D01*
X74814580Y-94947329D01*
X74835097Y-94935032D01*
X74856721Y-94924804D01*
X74879243Y-94916746D01*
X74902447Y-94910934D01*
X74926108Y-94907424D01*
X74950000Y-94906250D01*
X75862500Y-94906250D01*
X75886392Y-94907424D01*
X75886392Y-94907424D01*
G37*
D16*
X75406250Y-95393750D03*
D15*
G36*
X63186392Y-85094924D02*
G01*
X63210053Y-85098434D01*
X63233257Y-85104246D01*
X63255779Y-85112304D01*
X63277403Y-85122532D01*
X63297920Y-85134829D01*
X63317133Y-85149079D01*
X63334857Y-85165143D01*
X63350921Y-85182867D01*
X63365171Y-85202080D01*
X63377468Y-85222597D01*
X63387696Y-85244221D01*
X63395754Y-85266743D01*
X63401566Y-85289947D01*
X63405076Y-85313608D01*
X63406250Y-85337500D01*
X63406250Y-85825000D01*
X63405076Y-85848892D01*
X63401566Y-85872553D01*
X63395754Y-85895757D01*
X63387696Y-85918279D01*
X63377468Y-85939903D01*
X63365171Y-85960420D01*
X63350921Y-85979633D01*
X63334857Y-85997357D01*
X63317133Y-86013421D01*
X63297920Y-86027671D01*
X63277403Y-86039968D01*
X63255779Y-86050196D01*
X63233257Y-86058254D01*
X63210053Y-86064066D01*
X63186392Y-86067576D01*
X63162500Y-86068750D01*
X62250000Y-86068750D01*
X62226108Y-86067576D01*
X62202447Y-86064066D01*
X62179243Y-86058254D01*
X62156721Y-86050196D01*
X62135097Y-86039968D01*
X62114580Y-86027671D01*
X62095367Y-86013421D01*
X62077643Y-85997357D01*
X62061579Y-85979633D01*
X62047329Y-85960420D01*
X62035032Y-85939903D01*
X62024804Y-85918279D01*
X62016746Y-85895757D01*
X62010934Y-85872553D01*
X62007424Y-85848892D01*
X62006250Y-85825000D01*
X62006250Y-85337500D01*
X62007424Y-85313608D01*
X62010934Y-85289947D01*
X62016746Y-85266743D01*
X62024804Y-85244221D01*
X62035032Y-85222597D01*
X62047329Y-85202080D01*
X62061579Y-85182867D01*
X62077643Y-85165143D01*
X62095367Y-85149079D01*
X62114580Y-85134829D01*
X62135097Y-85122532D01*
X62156721Y-85112304D01*
X62179243Y-85104246D01*
X62202447Y-85098434D01*
X62226108Y-85094924D01*
X62250000Y-85093750D01*
X63162500Y-85093750D01*
X63186392Y-85094924D01*
X63186392Y-85094924D01*
G37*
D16*
X62706250Y-85581250D03*
D15*
G36*
X63186392Y-86969924D02*
G01*
X63210053Y-86973434D01*
X63233257Y-86979246D01*
X63255779Y-86987304D01*
X63277403Y-86997532D01*
X63297920Y-87009829D01*
X63317133Y-87024079D01*
X63334857Y-87040143D01*
X63350921Y-87057867D01*
X63365171Y-87077080D01*
X63377468Y-87097597D01*
X63387696Y-87119221D01*
X63395754Y-87141743D01*
X63401566Y-87164947D01*
X63405076Y-87188608D01*
X63406250Y-87212500D01*
X63406250Y-87700000D01*
X63405076Y-87723892D01*
X63401566Y-87747553D01*
X63395754Y-87770757D01*
X63387696Y-87793279D01*
X63377468Y-87814903D01*
X63365171Y-87835420D01*
X63350921Y-87854633D01*
X63334857Y-87872357D01*
X63317133Y-87888421D01*
X63297920Y-87902671D01*
X63277403Y-87914968D01*
X63255779Y-87925196D01*
X63233257Y-87933254D01*
X63210053Y-87939066D01*
X63186392Y-87942576D01*
X63162500Y-87943750D01*
X62250000Y-87943750D01*
X62226108Y-87942576D01*
X62202447Y-87939066D01*
X62179243Y-87933254D01*
X62156721Y-87925196D01*
X62135097Y-87914968D01*
X62114580Y-87902671D01*
X62095367Y-87888421D01*
X62077643Y-87872357D01*
X62061579Y-87854633D01*
X62047329Y-87835420D01*
X62035032Y-87814903D01*
X62024804Y-87793279D01*
X62016746Y-87770757D01*
X62010934Y-87747553D01*
X62007424Y-87723892D01*
X62006250Y-87700000D01*
X62006250Y-87212500D01*
X62007424Y-87188608D01*
X62010934Y-87164947D01*
X62016746Y-87141743D01*
X62024804Y-87119221D01*
X62035032Y-87097597D01*
X62047329Y-87077080D01*
X62061579Y-87057867D01*
X62077643Y-87040143D01*
X62095367Y-87024079D01*
X62114580Y-87009829D01*
X62135097Y-86997532D01*
X62156721Y-86987304D01*
X62179243Y-86979246D01*
X62202447Y-86973434D01*
X62226108Y-86969924D01*
X62250000Y-86968750D01*
X63162500Y-86968750D01*
X63186392Y-86969924D01*
X63186392Y-86969924D01*
G37*
D16*
X62706250Y-87456250D03*
D15*
G36*
X73505142Y-85094924D02*
G01*
X73528803Y-85098434D01*
X73552007Y-85104246D01*
X73574529Y-85112304D01*
X73596153Y-85122532D01*
X73616670Y-85134829D01*
X73635883Y-85149079D01*
X73653607Y-85165143D01*
X73669671Y-85182867D01*
X73683921Y-85202080D01*
X73696218Y-85222597D01*
X73706446Y-85244221D01*
X73714504Y-85266743D01*
X73720316Y-85289947D01*
X73723826Y-85313608D01*
X73725000Y-85337500D01*
X73725000Y-85825000D01*
X73723826Y-85848892D01*
X73720316Y-85872553D01*
X73714504Y-85895757D01*
X73706446Y-85918279D01*
X73696218Y-85939903D01*
X73683921Y-85960420D01*
X73669671Y-85979633D01*
X73653607Y-85997357D01*
X73635883Y-86013421D01*
X73616670Y-86027671D01*
X73596153Y-86039968D01*
X73574529Y-86050196D01*
X73552007Y-86058254D01*
X73528803Y-86064066D01*
X73505142Y-86067576D01*
X73481250Y-86068750D01*
X72568750Y-86068750D01*
X72544858Y-86067576D01*
X72521197Y-86064066D01*
X72497993Y-86058254D01*
X72475471Y-86050196D01*
X72453847Y-86039968D01*
X72433330Y-86027671D01*
X72414117Y-86013421D01*
X72396393Y-85997357D01*
X72380329Y-85979633D01*
X72366079Y-85960420D01*
X72353782Y-85939903D01*
X72343554Y-85918279D01*
X72335496Y-85895757D01*
X72329684Y-85872553D01*
X72326174Y-85848892D01*
X72325000Y-85825000D01*
X72325000Y-85337500D01*
X72326174Y-85313608D01*
X72329684Y-85289947D01*
X72335496Y-85266743D01*
X72343554Y-85244221D01*
X72353782Y-85222597D01*
X72366079Y-85202080D01*
X72380329Y-85182867D01*
X72396393Y-85165143D01*
X72414117Y-85149079D01*
X72433330Y-85134829D01*
X72453847Y-85122532D01*
X72475471Y-85112304D01*
X72497993Y-85104246D01*
X72521197Y-85098434D01*
X72544858Y-85094924D01*
X72568750Y-85093750D01*
X73481250Y-85093750D01*
X73505142Y-85094924D01*
X73505142Y-85094924D01*
G37*
D16*
X73025000Y-85581250D03*
D15*
G36*
X73505142Y-86969924D02*
G01*
X73528803Y-86973434D01*
X73552007Y-86979246D01*
X73574529Y-86987304D01*
X73596153Y-86997532D01*
X73616670Y-87009829D01*
X73635883Y-87024079D01*
X73653607Y-87040143D01*
X73669671Y-87057867D01*
X73683921Y-87077080D01*
X73696218Y-87097597D01*
X73706446Y-87119221D01*
X73714504Y-87141743D01*
X73720316Y-87164947D01*
X73723826Y-87188608D01*
X73725000Y-87212500D01*
X73725000Y-87700000D01*
X73723826Y-87723892D01*
X73720316Y-87747553D01*
X73714504Y-87770757D01*
X73706446Y-87793279D01*
X73696218Y-87814903D01*
X73683921Y-87835420D01*
X73669671Y-87854633D01*
X73653607Y-87872357D01*
X73635883Y-87888421D01*
X73616670Y-87902671D01*
X73596153Y-87914968D01*
X73574529Y-87925196D01*
X73552007Y-87933254D01*
X73528803Y-87939066D01*
X73505142Y-87942576D01*
X73481250Y-87943750D01*
X72568750Y-87943750D01*
X72544858Y-87942576D01*
X72521197Y-87939066D01*
X72497993Y-87933254D01*
X72475471Y-87925196D01*
X72453847Y-87914968D01*
X72433330Y-87902671D01*
X72414117Y-87888421D01*
X72396393Y-87872357D01*
X72380329Y-87854633D01*
X72366079Y-87835420D01*
X72353782Y-87814903D01*
X72343554Y-87793279D01*
X72335496Y-87770757D01*
X72329684Y-87747553D01*
X72326174Y-87723892D01*
X72325000Y-87700000D01*
X72325000Y-87212500D01*
X72326174Y-87188608D01*
X72329684Y-87164947D01*
X72335496Y-87141743D01*
X72343554Y-87119221D01*
X72353782Y-87097597D01*
X72366079Y-87077080D01*
X72380329Y-87057867D01*
X72396393Y-87040143D01*
X72414117Y-87024079D01*
X72433330Y-87009829D01*
X72453847Y-86997532D01*
X72475471Y-86987304D01*
X72497993Y-86979246D01*
X72521197Y-86973434D01*
X72544858Y-86969924D01*
X72568750Y-86968750D01*
X73481250Y-86968750D01*
X73505142Y-86969924D01*
X73505142Y-86969924D01*
G37*
D16*
X73025000Y-87456250D03*
D15*
G36*
X71561392Y-108838674D02*
G01*
X71585053Y-108842184D01*
X71608257Y-108847996D01*
X71630779Y-108856054D01*
X71652403Y-108866282D01*
X71672920Y-108878579D01*
X71692133Y-108892829D01*
X71709857Y-108908893D01*
X71725921Y-108926617D01*
X71740171Y-108945830D01*
X71752468Y-108966347D01*
X71762696Y-108987971D01*
X71770754Y-109010493D01*
X71776566Y-109033697D01*
X71780076Y-109057358D01*
X71781250Y-109081250D01*
X71781250Y-109993750D01*
X71780076Y-110017642D01*
X71776566Y-110041303D01*
X71770754Y-110064507D01*
X71762696Y-110087029D01*
X71752468Y-110108653D01*
X71740171Y-110129170D01*
X71725921Y-110148383D01*
X71709857Y-110166107D01*
X71692133Y-110182171D01*
X71672920Y-110196421D01*
X71652403Y-110208718D01*
X71630779Y-110218946D01*
X71608257Y-110227004D01*
X71585053Y-110232816D01*
X71561392Y-110236326D01*
X71537500Y-110237500D01*
X71050000Y-110237500D01*
X71026108Y-110236326D01*
X71002447Y-110232816D01*
X70979243Y-110227004D01*
X70956721Y-110218946D01*
X70935097Y-110208718D01*
X70914580Y-110196421D01*
X70895367Y-110182171D01*
X70877643Y-110166107D01*
X70861579Y-110148383D01*
X70847329Y-110129170D01*
X70835032Y-110108653D01*
X70824804Y-110087029D01*
X70816746Y-110064507D01*
X70810934Y-110041303D01*
X70807424Y-110017642D01*
X70806250Y-109993750D01*
X70806250Y-109081250D01*
X70807424Y-109057358D01*
X70810934Y-109033697D01*
X70816746Y-109010493D01*
X70824804Y-108987971D01*
X70835032Y-108966347D01*
X70847329Y-108945830D01*
X70861579Y-108926617D01*
X70877643Y-108908893D01*
X70895367Y-108892829D01*
X70914580Y-108878579D01*
X70935097Y-108866282D01*
X70956721Y-108856054D01*
X70979243Y-108847996D01*
X71002447Y-108842184D01*
X71026108Y-108838674D01*
X71050000Y-108837500D01*
X71537500Y-108837500D01*
X71561392Y-108838674D01*
X71561392Y-108838674D01*
G37*
D16*
X71293750Y-109537500D03*
D15*
G36*
X73436392Y-108838674D02*
G01*
X73460053Y-108842184D01*
X73483257Y-108847996D01*
X73505779Y-108856054D01*
X73527403Y-108866282D01*
X73547920Y-108878579D01*
X73567133Y-108892829D01*
X73584857Y-108908893D01*
X73600921Y-108926617D01*
X73615171Y-108945830D01*
X73627468Y-108966347D01*
X73637696Y-108987971D01*
X73645754Y-109010493D01*
X73651566Y-109033697D01*
X73655076Y-109057358D01*
X73656250Y-109081250D01*
X73656250Y-109993750D01*
X73655076Y-110017642D01*
X73651566Y-110041303D01*
X73645754Y-110064507D01*
X73637696Y-110087029D01*
X73627468Y-110108653D01*
X73615171Y-110129170D01*
X73600921Y-110148383D01*
X73584857Y-110166107D01*
X73567133Y-110182171D01*
X73547920Y-110196421D01*
X73527403Y-110208718D01*
X73505779Y-110218946D01*
X73483257Y-110227004D01*
X73460053Y-110232816D01*
X73436392Y-110236326D01*
X73412500Y-110237500D01*
X72925000Y-110237500D01*
X72901108Y-110236326D01*
X72877447Y-110232816D01*
X72854243Y-110227004D01*
X72831721Y-110218946D01*
X72810097Y-110208718D01*
X72789580Y-110196421D01*
X72770367Y-110182171D01*
X72752643Y-110166107D01*
X72736579Y-110148383D01*
X72722329Y-110129170D01*
X72710032Y-110108653D01*
X72699804Y-110087029D01*
X72691746Y-110064507D01*
X72685934Y-110041303D01*
X72682424Y-110017642D01*
X72681250Y-109993750D01*
X72681250Y-109081250D01*
X72682424Y-109057358D01*
X72685934Y-109033697D01*
X72691746Y-109010493D01*
X72699804Y-108987971D01*
X72710032Y-108966347D01*
X72722329Y-108945830D01*
X72736579Y-108926617D01*
X72752643Y-108908893D01*
X72770367Y-108892829D01*
X72789580Y-108878579D01*
X72810097Y-108866282D01*
X72831721Y-108856054D01*
X72854243Y-108847996D01*
X72877447Y-108842184D01*
X72901108Y-108838674D01*
X72925000Y-108837500D01*
X73412500Y-108837500D01*
X73436392Y-108838674D01*
X73436392Y-108838674D01*
G37*
D16*
X73168750Y-109537500D03*
D15*
G36*
X58423892Y-89857424D02*
G01*
X58447553Y-89860934D01*
X58470757Y-89866746D01*
X58493279Y-89874804D01*
X58514903Y-89885032D01*
X58535420Y-89897329D01*
X58554633Y-89911579D01*
X58572357Y-89927643D01*
X58588421Y-89945367D01*
X58602671Y-89964580D01*
X58614968Y-89985097D01*
X58625196Y-90006721D01*
X58633254Y-90029243D01*
X58639066Y-90052447D01*
X58642576Y-90076108D01*
X58643750Y-90100000D01*
X58643750Y-90587500D01*
X58642576Y-90611392D01*
X58639066Y-90635053D01*
X58633254Y-90658257D01*
X58625196Y-90680779D01*
X58614968Y-90702403D01*
X58602671Y-90722920D01*
X58588421Y-90742133D01*
X58572357Y-90759857D01*
X58554633Y-90775921D01*
X58535420Y-90790171D01*
X58514903Y-90802468D01*
X58493279Y-90812696D01*
X58470757Y-90820754D01*
X58447553Y-90826566D01*
X58423892Y-90830076D01*
X58400000Y-90831250D01*
X57487500Y-90831250D01*
X57463608Y-90830076D01*
X57439947Y-90826566D01*
X57416743Y-90820754D01*
X57394221Y-90812696D01*
X57372597Y-90802468D01*
X57352080Y-90790171D01*
X57332867Y-90775921D01*
X57315143Y-90759857D01*
X57299079Y-90742133D01*
X57284829Y-90722920D01*
X57272532Y-90702403D01*
X57262304Y-90680779D01*
X57254246Y-90658257D01*
X57248434Y-90635053D01*
X57244924Y-90611392D01*
X57243750Y-90587500D01*
X57243750Y-90100000D01*
X57244924Y-90076108D01*
X57248434Y-90052447D01*
X57254246Y-90029243D01*
X57262304Y-90006721D01*
X57272532Y-89985097D01*
X57284829Y-89964580D01*
X57299079Y-89945367D01*
X57315143Y-89927643D01*
X57332867Y-89911579D01*
X57352080Y-89897329D01*
X57372597Y-89885032D01*
X57394221Y-89874804D01*
X57416743Y-89866746D01*
X57439947Y-89860934D01*
X57463608Y-89857424D01*
X57487500Y-89856250D01*
X58400000Y-89856250D01*
X58423892Y-89857424D01*
X58423892Y-89857424D01*
G37*
D16*
X57943750Y-90343750D03*
D15*
G36*
X58423892Y-91732424D02*
G01*
X58447553Y-91735934D01*
X58470757Y-91741746D01*
X58493279Y-91749804D01*
X58514903Y-91760032D01*
X58535420Y-91772329D01*
X58554633Y-91786579D01*
X58572357Y-91802643D01*
X58588421Y-91820367D01*
X58602671Y-91839580D01*
X58614968Y-91860097D01*
X58625196Y-91881721D01*
X58633254Y-91904243D01*
X58639066Y-91927447D01*
X58642576Y-91951108D01*
X58643750Y-91975000D01*
X58643750Y-92462500D01*
X58642576Y-92486392D01*
X58639066Y-92510053D01*
X58633254Y-92533257D01*
X58625196Y-92555779D01*
X58614968Y-92577403D01*
X58602671Y-92597920D01*
X58588421Y-92617133D01*
X58572357Y-92634857D01*
X58554633Y-92650921D01*
X58535420Y-92665171D01*
X58514903Y-92677468D01*
X58493279Y-92687696D01*
X58470757Y-92695754D01*
X58447553Y-92701566D01*
X58423892Y-92705076D01*
X58400000Y-92706250D01*
X57487500Y-92706250D01*
X57463608Y-92705076D01*
X57439947Y-92701566D01*
X57416743Y-92695754D01*
X57394221Y-92687696D01*
X57372597Y-92677468D01*
X57352080Y-92665171D01*
X57332867Y-92650921D01*
X57315143Y-92634857D01*
X57299079Y-92617133D01*
X57284829Y-92597920D01*
X57272532Y-92577403D01*
X57262304Y-92555779D01*
X57254246Y-92533257D01*
X57248434Y-92510053D01*
X57244924Y-92486392D01*
X57243750Y-92462500D01*
X57243750Y-91975000D01*
X57244924Y-91951108D01*
X57248434Y-91927447D01*
X57254246Y-91904243D01*
X57262304Y-91881721D01*
X57272532Y-91860097D01*
X57284829Y-91839580D01*
X57299079Y-91820367D01*
X57315143Y-91802643D01*
X57332867Y-91786579D01*
X57352080Y-91772329D01*
X57372597Y-91760032D01*
X57394221Y-91749804D01*
X57416743Y-91741746D01*
X57439947Y-91735934D01*
X57463608Y-91732424D01*
X57487500Y-91731250D01*
X58400000Y-91731250D01*
X58423892Y-91732424D01*
X58423892Y-91732424D01*
G37*
D16*
X57943750Y-92218750D03*
M02*
