G04 #@! TF.GenerationSoftware,KiCad,Pcbnew,(5.1.4)-1*
G04 #@! TF.CreationDate,2022-03-30T16:45:01-04:00*
G04 #@! TF.ProjectId,ai03-pcb-guide,61693033-2d70-4636-922d-67756964652e,rev?*
G04 #@! TF.SameCoordinates,Original*
G04 #@! TF.FileFunction,Copper,L2,Bot*
G04 #@! TF.FilePolarity,Positive*
%FSLAX46Y46*%
G04 Gerber Fmt 4.6, Leading zero omitted, Abs format (unit mm)*
G04 Created by KiCad (PCBNEW (5.1.4)-1) date 2022-03-30 16:45:01*
%MOMM*%
%LPD*%
G04 APERTURE LIST*
%ADD10R,2.100000X1.800000*%
%ADD11O,1.700000X2.700000*%
%ADD12R,0.500000X2.250000*%
%ADD13R,0.550000X1.500000*%
%ADD14R,1.500000X0.550000*%
%ADD15R,1.800000X1.100000*%
%ADD16C,0.100000*%
%ADD17C,0.975000*%
%ADD18C,2.250000*%
%ADD19C,2.250000*%
%ADD20C,1.250000*%
%ADD21R,1.200000X0.900000*%
%ADD22C,0.800000*%
%ADD23C,0.381000*%
%ADD24C,0.254000*%
G04 APERTURE END LIST*
D10*
X68918750Y-85368750D03*
X66018750Y-85368750D03*
X66018750Y-87668750D03*
X68918750Y-87668750D03*
D11*
X47150000Y-73025000D03*
X54450000Y-73025000D03*
X54450000Y-77525000D03*
X47150000Y-77525000D03*
D12*
X49200000Y-77525000D03*
X50000000Y-77525000D03*
X50800000Y-77525000D03*
X51600000Y-77525000D03*
X52400000Y-77525000D03*
D13*
X62675000Y-104918750D03*
X63475000Y-104918750D03*
X64275000Y-104918750D03*
X65075000Y-104918750D03*
X65875000Y-104918750D03*
X66675000Y-104918750D03*
X67475000Y-104918750D03*
X68275000Y-104918750D03*
X69075000Y-104918750D03*
X69875000Y-104918750D03*
X70675000Y-104918750D03*
D14*
X72375000Y-103218750D03*
X72375000Y-102418750D03*
X72375000Y-101618750D03*
X72375000Y-100818750D03*
X72375000Y-100018750D03*
X72375000Y-99218750D03*
X72375000Y-98418750D03*
X72375000Y-97618750D03*
X72375000Y-96818750D03*
X72375000Y-96018750D03*
X72375000Y-95218750D03*
D13*
X70675000Y-93518750D03*
X69875000Y-93518750D03*
X69075000Y-93518750D03*
X68275000Y-93518750D03*
X67475000Y-93518750D03*
X66675000Y-93518750D03*
X65875000Y-93518750D03*
X65075000Y-93518750D03*
X64275000Y-93518750D03*
X63475000Y-93518750D03*
X62675000Y-93518750D03*
D14*
X60975000Y-95218750D03*
X60975000Y-96018750D03*
X60975000Y-96818750D03*
X60975000Y-97618750D03*
X60975000Y-98418750D03*
X60975000Y-99218750D03*
X60975000Y-100018750D03*
X60975000Y-100818750D03*
X60975000Y-101618750D03*
X60975000Y-102418750D03*
X60975000Y-103218750D03*
D15*
X51518750Y-111387500D03*
X45318750Y-107687500D03*
X51518750Y-107687500D03*
X45318750Y-111387500D03*
D16*
G36*
X75886392Y-102557424D02*
G01*
X75910053Y-102560934D01*
X75933257Y-102566746D01*
X75955779Y-102574804D01*
X75977403Y-102585032D01*
X75997920Y-102597329D01*
X76017133Y-102611579D01*
X76034857Y-102627643D01*
X76050921Y-102645367D01*
X76065171Y-102664580D01*
X76077468Y-102685097D01*
X76087696Y-102706721D01*
X76095754Y-102729243D01*
X76101566Y-102752447D01*
X76105076Y-102776108D01*
X76106250Y-102800000D01*
X76106250Y-103287500D01*
X76105076Y-103311392D01*
X76101566Y-103335053D01*
X76095754Y-103358257D01*
X76087696Y-103380779D01*
X76077468Y-103402403D01*
X76065171Y-103422920D01*
X76050921Y-103442133D01*
X76034857Y-103459857D01*
X76017133Y-103475921D01*
X75997920Y-103490171D01*
X75977403Y-103502468D01*
X75955779Y-103512696D01*
X75933257Y-103520754D01*
X75910053Y-103526566D01*
X75886392Y-103530076D01*
X75862500Y-103531250D01*
X74950000Y-103531250D01*
X74926108Y-103530076D01*
X74902447Y-103526566D01*
X74879243Y-103520754D01*
X74856721Y-103512696D01*
X74835097Y-103502468D01*
X74814580Y-103490171D01*
X74795367Y-103475921D01*
X74777643Y-103459857D01*
X74761579Y-103442133D01*
X74747329Y-103422920D01*
X74735032Y-103402403D01*
X74724804Y-103380779D01*
X74716746Y-103358257D01*
X74710934Y-103335053D01*
X74707424Y-103311392D01*
X74706250Y-103287500D01*
X74706250Y-102800000D01*
X74707424Y-102776108D01*
X74710934Y-102752447D01*
X74716746Y-102729243D01*
X74724804Y-102706721D01*
X74735032Y-102685097D01*
X74747329Y-102664580D01*
X74761579Y-102645367D01*
X74777643Y-102627643D01*
X74795367Y-102611579D01*
X74814580Y-102597329D01*
X74835097Y-102585032D01*
X74856721Y-102574804D01*
X74879243Y-102566746D01*
X74902447Y-102560934D01*
X74926108Y-102557424D01*
X74950000Y-102556250D01*
X75862500Y-102556250D01*
X75886392Y-102557424D01*
X75886392Y-102557424D01*
G37*
D17*
X75406250Y-103043750D03*
D16*
G36*
X75886392Y-104432424D02*
G01*
X75910053Y-104435934D01*
X75933257Y-104441746D01*
X75955779Y-104449804D01*
X75977403Y-104460032D01*
X75997920Y-104472329D01*
X76017133Y-104486579D01*
X76034857Y-104502643D01*
X76050921Y-104520367D01*
X76065171Y-104539580D01*
X76077468Y-104560097D01*
X76087696Y-104581721D01*
X76095754Y-104604243D01*
X76101566Y-104627447D01*
X76105076Y-104651108D01*
X76106250Y-104675000D01*
X76106250Y-105162500D01*
X76105076Y-105186392D01*
X76101566Y-105210053D01*
X76095754Y-105233257D01*
X76087696Y-105255779D01*
X76077468Y-105277403D01*
X76065171Y-105297920D01*
X76050921Y-105317133D01*
X76034857Y-105334857D01*
X76017133Y-105350921D01*
X75997920Y-105365171D01*
X75977403Y-105377468D01*
X75955779Y-105387696D01*
X75933257Y-105395754D01*
X75910053Y-105401566D01*
X75886392Y-105405076D01*
X75862500Y-105406250D01*
X74950000Y-105406250D01*
X74926108Y-105405076D01*
X74902447Y-105401566D01*
X74879243Y-105395754D01*
X74856721Y-105387696D01*
X74835097Y-105377468D01*
X74814580Y-105365171D01*
X74795367Y-105350921D01*
X74777643Y-105334857D01*
X74761579Y-105317133D01*
X74747329Y-105297920D01*
X74735032Y-105277403D01*
X74724804Y-105255779D01*
X74716746Y-105233257D01*
X74710934Y-105210053D01*
X74707424Y-105186392D01*
X74706250Y-105162500D01*
X74706250Y-104675000D01*
X74707424Y-104651108D01*
X74710934Y-104627447D01*
X74716746Y-104604243D01*
X74724804Y-104581721D01*
X74735032Y-104560097D01*
X74747329Y-104539580D01*
X74761579Y-104520367D01*
X74777643Y-104502643D01*
X74795367Y-104486579D01*
X74814580Y-104472329D01*
X74835097Y-104460032D01*
X74856721Y-104449804D01*
X74879243Y-104441746D01*
X74902447Y-104435934D01*
X74926108Y-104432424D01*
X74950000Y-104431250D01*
X75862500Y-104431250D01*
X75886392Y-104432424D01*
X75886392Y-104432424D01*
G37*
D17*
X75406250Y-104918750D03*
D16*
G36*
X55248892Y-89857424D02*
G01*
X55272553Y-89860934D01*
X55295757Y-89866746D01*
X55318279Y-89874804D01*
X55339903Y-89885032D01*
X55360420Y-89897329D01*
X55379633Y-89911579D01*
X55397357Y-89927643D01*
X55413421Y-89945367D01*
X55427671Y-89964580D01*
X55439968Y-89985097D01*
X55450196Y-90006721D01*
X55458254Y-90029243D01*
X55464066Y-90052447D01*
X55467576Y-90076108D01*
X55468750Y-90100000D01*
X55468750Y-90587500D01*
X55467576Y-90611392D01*
X55464066Y-90635053D01*
X55458254Y-90658257D01*
X55450196Y-90680779D01*
X55439968Y-90702403D01*
X55427671Y-90722920D01*
X55413421Y-90742133D01*
X55397357Y-90759857D01*
X55379633Y-90775921D01*
X55360420Y-90790171D01*
X55339903Y-90802468D01*
X55318279Y-90812696D01*
X55295757Y-90820754D01*
X55272553Y-90826566D01*
X55248892Y-90830076D01*
X55225000Y-90831250D01*
X54312500Y-90831250D01*
X54288608Y-90830076D01*
X54264947Y-90826566D01*
X54241743Y-90820754D01*
X54219221Y-90812696D01*
X54197597Y-90802468D01*
X54177080Y-90790171D01*
X54157867Y-90775921D01*
X54140143Y-90759857D01*
X54124079Y-90742133D01*
X54109829Y-90722920D01*
X54097532Y-90702403D01*
X54087304Y-90680779D01*
X54079246Y-90658257D01*
X54073434Y-90635053D01*
X54069924Y-90611392D01*
X54068750Y-90587500D01*
X54068750Y-90100000D01*
X54069924Y-90076108D01*
X54073434Y-90052447D01*
X54079246Y-90029243D01*
X54087304Y-90006721D01*
X54097532Y-89985097D01*
X54109829Y-89964580D01*
X54124079Y-89945367D01*
X54140143Y-89927643D01*
X54157867Y-89911579D01*
X54177080Y-89897329D01*
X54197597Y-89885032D01*
X54219221Y-89874804D01*
X54241743Y-89866746D01*
X54264947Y-89860934D01*
X54288608Y-89857424D01*
X54312500Y-89856250D01*
X55225000Y-89856250D01*
X55248892Y-89857424D01*
X55248892Y-89857424D01*
G37*
D17*
X54768750Y-90343750D03*
D16*
G36*
X55248892Y-91732424D02*
G01*
X55272553Y-91735934D01*
X55295757Y-91741746D01*
X55318279Y-91749804D01*
X55339903Y-91760032D01*
X55360420Y-91772329D01*
X55379633Y-91786579D01*
X55397357Y-91802643D01*
X55413421Y-91820367D01*
X55427671Y-91839580D01*
X55439968Y-91860097D01*
X55450196Y-91881721D01*
X55458254Y-91904243D01*
X55464066Y-91927447D01*
X55467576Y-91951108D01*
X55468750Y-91975000D01*
X55468750Y-92462500D01*
X55467576Y-92486392D01*
X55464066Y-92510053D01*
X55458254Y-92533257D01*
X55450196Y-92555779D01*
X55439968Y-92577403D01*
X55427671Y-92597920D01*
X55413421Y-92617133D01*
X55397357Y-92634857D01*
X55379633Y-92650921D01*
X55360420Y-92665171D01*
X55339903Y-92677468D01*
X55318279Y-92687696D01*
X55295757Y-92695754D01*
X55272553Y-92701566D01*
X55248892Y-92705076D01*
X55225000Y-92706250D01*
X54312500Y-92706250D01*
X54288608Y-92705076D01*
X54264947Y-92701566D01*
X54241743Y-92695754D01*
X54219221Y-92687696D01*
X54197597Y-92677468D01*
X54177080Y-92665171D01*
X54157867Y-92650921D01*
X54140143Y-92634857D01*
X54124079Y-92617133D01*
X54109829Y-92597920D01*
X54097532Y-92577403D01*
X54087304Y-92555779D01*
X54079246Y-92533257D01*
X54073434Y-92510053D01*
X54069924Y-92486392D01*
X54068750Y-92462500D01*
X54068750Y-91975000D01*
X54069924Y-91951108D01*
X54073434Y-91927447D01*
X54079246Y-91904243D01*
X54087304Y-91881721D01*
X54097532Y-91860097D01*
X54109829Y-91839580D01*
X54124079Y-91820367D01*
X54140143Y-91802643D01*
X54157867Y-91786579D01*
X54177080Y-91772329D01*
X54197597Y-91760032D01*
X54219221Y-91749804D01*
X54241743Y-91741746D01*
X54264947Y-91735934D01*
X54288608Y-91732424D01*
X54312500Y-91731250D01*
X55225000Y-91731250D01*
X55248892Y-91732424D01*
X55248892Y-91732424D01*
G37*
D17*
X54768750Y-92218750D03*
D16*
G36*
X52867642Y-81919924D02*
G01*
X52891303Y-81923434D01*
X52914507Y-81929246D01*
X52937029Y-81937304D01*
X52958653Y-81947532D01*
X52979170Y-81959829D01*
X52998383Y-81974079D01*
X53016107Y-81990143D01*
X53032171Y-82007867D01*
X53046421Y-82027080D01*
X53058718Y-82047597D01*
X53068946Y-82069221D01*
X53077004Y-82091743D01*
X53082816Y-82114947D01*
X53086326Y-82138608D01*
X53087500Y-82162500D01*
X53087500Y-82650000D01*
X53086326Y-82673892D01*
X53082816Y-82697553D01*
X53077004Y-82720757D01*
X53068946Y-82743279D01*
X53058718Y-82764903D01*
X53046421Y-82785420D01*
X53032171Y-82804633D01*
X53016107Y-82822357D01*
X52998383Y-82838421D01*
X52979170Y-82852671D01*
X52958653Y-82864968D01*
X52937029Y-82875196D01*
X52914507Y-82883254D01*
X52891303Y-82889066D01*
X52867642Y-82892576D01*
X52843750Y-82893750D01*
X51931250Y-82893750D01*
X51907358Y-82892576D01*
X51883697Y-82889066D01*
X51860493Y-82883254D01*
X51837971Y-82875196D01*
X51816347Y-82864968D01*
X51795830Y-82852671D01*
X51776617Y-82838421D01*
X51758893Y-82822357D01*
X51742829Y-82804633D01*
X51728579Y-82785420D01*
X51716282Y-82764903D01*
X51706054Y-82743279D01*
X51697996Y-82720757D01*
X51692184Y-82697553D01*
X51688674Y-82673892D01*
X51687500Y-82650000D01*
X51687500Y-82162500D01*
X51688674Y-82138608D01*
X51692184Y-82114947D01*
X51697996Y-82091743D01*
X51706054Y-82069221D01*
X51716282Y-82047597D01*
X51728579Y-82027080D01*
X51742829Y-82007867D01*
X51758893Y-81990143D01*
X51776617Y-81974079D01*
X51795830Y-81959829D01*
X51816347Y-81947532D01*
X51837971Y-81937304D01*
X51860493Y-81929246D01*
X51883697Y-81923434D01*
X51907358Y-81919924D01*
X51931250Y-81918750D01*
X52843750Y-81918750D01*
X52867642Y-81919924D01*
X52867642Y-81919924D01*
G37*
D17*
X52387500Y-82406250D03*
D16*
G36*
X52867642Y-83794924D02*
G01*
X52891303Y-83798434D01*
X52914507Y-83804246D01*
X52937029Y-83812304D01*
X52958653Y-83822532D01*
X52979170Y-83834829D01*
X52998383Y-83849079D01*
X53016107Y-83865143D01*
X53032171Y-83882867D01*
X53046421Y-83902080D01*
X53058718Y-83922597D01*
X53068946Y-83944221D01*
X53077004Y-83966743D01*
X53082816Y-83989947D01*
X53086326Y-84013608D01*
X53087500Y-84037500D01*
X53087500Y-84525000D01*
X53086326Y-84548892D01*
X53082816Y-84572553D01*
X53077004Y-84595757D01*
X53068946Y-84618279D01*
X53058718Y-84639903D01*
X53046421Y-84660420D01*
X53032171Y-84679633D01*
X53016107Y-84697357D01*
X52998383Y-84713421D01*
X52979170Y-84727671D01*
X52958653Y-84739968D01*
X52937029Y-84750196D01*
X52914507Y-84758254D01*
X52891303Y-84764066D01*
X52867642Y-84767576D01*
X52843750Y-84768750D01*
X51931250Y-84768750D01*
X51907358Y-84767576D01*
X51883697Y-84764066D01*
X51860493Y-84758254D01*
X51837971Y-84750196D01*
X51816347Y-84739968D01*
X51795830Y-84727671D01*
X51776617Y-84713421D01*
X51758893Y-84697357D01*
X51742829Y-84679633D01*
X51728579Y-84660420D01*
X51716282Y-84639903D01*
X51706054Y-84618279D01*
X51697996Y-84595757D01*
X51692184Y-84572553D01*
X51688674Y-84548892D01*
X51687500Y-84525000D01*
X51687500Y-84037500D01*
X51688674Y-84013608D01*
X51692184Y-83989947D01*
X51697996Y-83966743D01*
X51706054Y-83944221D01*
X51716282Y-83922597D01*
X51728579Y-83902080D01*
X51742829Y-83882867D01*
X51758893Y-83865143D01*
X51776617Y-83849079D01*
X51795830Y-83834829D01*
X51816347Y-83822532D01*
X51837971Y-83812304D01*
X51860493Y-83804246D01*
X51883697Y-83798434D01*
X51907358Y-83794924D01*
X51931250Y-83793750D01*
X52843750Y-83793750D01*
X52867642Y-83794924D01*
X52867642Y-83794924D01*
G37*
D17*
X52387500Y-84281250D03*
D16*
G36*
X48898892Y-81919924D02*
G01*
X48922553Y-81923434D01*
X48945757Y-81929246D01*
X48968279Y-81937304D01*
X48989903Y-81947532D01*
X49010420Y-81959829D01*
X49029633Y-81974079D01*
X49047357Y-81990143D01*
X49063421Y-82007867D01*
X49077671Y-82027080D01*
X49089968Y-82047597D01*
X49100196Y-82069221D01*
X49108254Y-82091743D01*
X49114066Y-82114947D01*
X49117576Y-82138608D01*
X49118750Y-82162500D01*
X49118750Y-82650000D01*
X49117576Y-82673892D01*
X49114066Y-82697553D01*
X49108254Y-82720757D01*
X49100196Y-82743279D01*
X49089968Y-82764903D01*
X49077671Y-82785420D01*
X49063421Y-82804633D01*
X49047357Y-82822357D01*
X49029633Y-82838421D01*
X49010420Y-82852671D01*
X48989903Y-82864968D01*
X48968279Y-82875196D01*
X48945757Y-82883254D01*
X48922553Y-82889066D01*
X48898892Y-82892576D01*
X48875000Y-82893750D01*
X47962500Y-82893750D01*
X47938608Y-82892576D01*
X47914947Y-82889066D01*
X47891743Y-82883254D01*
X47869221Y-82875196D01*
X47847597Y-82864968D01*
X47827080Y-82852671D01*
X47807867Y-82838421D01*
X47790143Y-82822357D01*
X47774079Y-82804633D01*
X47759829Y-82785420D01*
X47747532Y-82764903D01*
X47737304Y-82743279D01*
X47729246Y-82720757D01*
X47723434Y-82697553D01*
X47719924Y-82673892D01*
X47718750Y-82650000D01*
X47718750Y-82162500D01*
X47719924Y-82138608D01*
X47723434Y-82114947D01*
X47729246Y-82091743D01*
X47737304Y-82069221D01*
X47747532Y-82047597D01*
X47759829Y-82027080D01*
X47774079Y-82007867D01*
X47790143Y-81990143D01*
X47807867Y-81974079D01*
X47827080Y-81959829D01*
X47847597Y-81947532D01*
X47869221Y-81937304D01*
X47891743Y-81929246D01*
X47914947Y-81923434D01*
X47938608Y-81919924D01*
X47962500Y-81918750D01*
X48875000Y-81918750D01*
X48898892Y-81919924D01*
X48898892Y-81919924D01*
G37*
D17*
X48418750Y-82406250D03*
D16*
G36*
X48898892Y-83794924D02*
G01*
X48922553Y-83798434D01*
X48945757Y-83804246D01*
X48968279Y-83812304D01*
X48989903Y-83822532D01*
X49010420Y-83834829D01*
X49029633Y-83849079D01*
X49047357Y-83865143D01*
X49063421Y-83882867D01*
X49077671Y-83902080D01*
X49089968Y-83922597D01*
X49100196Y-83944221D01*
X49108254Y-83966743D01*
X49114066Y-83989947D01*
X49117576Y-84013608D01*
X49118750Y-84037500D01*
X49118750Y-84525000D01*
X49117576Y-84548892D01*
X49114066Y-84572553D01*
X49108254Y-84595757D01*
X49100196Y-84618279D01*
X49089968Y-84639903D01*
X49077671Y-84660420D01*
X49063421Y-84679633D01*
X49047357Y-84697357D01*
X49029633Y-84713421D01*
X49010420Y-84727671D01*
X48989903Y-84739968D01*
X48968279Y-84750196D01*
X48945757Y-84758254D01*
X48922553Y-84764066D01*
X48898892Y-84767576D01*
X48875000Y-84768750D01*
X47962500Y-84768750D01*
X47938608Y-84767576D01*
X47914947Y-84764066D01*
X47891743Y-84758254D01*
X47869221Y-84750196D01*
X47847597Y-84739968D01*
X47827080Y-84727671D01*
X47807867Y-84713421D01*
X47790143Y-84697357D01*
X47774079Y-84679633D01*
X47759829Y-84660420D01*
X47747532Y-84639903D01*
X47737304Y-84618279D01*
X47729246Y-84595757D01*
X47723434Y-84572553D01*
X47719924Y-84548892D01*
X47718750Y-84525000D01*
X47718750Y-84037500D01*
X47719924Y-84013608D01*
X47723434Y-83989947D01*
X47729246Y-83966743D01*
X47737304Y-83944221D01*
X47747532Y-83922597D01*
X47759829Y-83902080D01*
X47774079Y-83882867D01*
X47790143Y-83865143D01*
X47807867Y-83849079D01*
X47827080Y-83834829D01*
X47847597Y-83822532D01*
X47869221Y-83812304D01*
X47891743Y-83804246D01*
X47914947Y-83798434D01*
X47938608Y-83794924D01*
X47962500Y-83793750D01*
X48875000Y-83793750D01*
X48898892Y-83794924D01*
X48898892Y-83794924D01*
G37*
D17*
X48418750Y-84281250D03*
D18*
X103862500Y-99187500D03*
X103207501Y-99917500D03*
D19*
X102552500Y-100647500D02*
X103862502Y-99187500D01*
D18*
X108902500Y-98107500D03*
X108882500Y-98397500D03*
D19*
X108862500Y-98687500D02*
X108902500Y-98107500D01*
D18*
X103862500Y-80137500D03*
X103207501Y-80867500D03*
D19*
X102552500Y-81597500D02*
X103862502Y-80137500D01*
D18*
X108902500Y-79057500D03*
X108882500Y-79347500D03*
D19*
X108862500Y-79637500D02*
X108902500Y-79057500D01*
D18*
X84812500Y-99187500D03*
X84157501Y-99917500D03*
D19*
X83502500Y-100647500D02*
X84812502Y-99187500D01*
D18*
X89852500Y-98107500D03*
X89832500Y-98397500D03*
D19*
X89812500Y-98687500D02*
X89852500Y-98107500D01*
D18*
X84812500Y-80137500D03*
X84157501Y-80867500D03*
D19*
X83502500Y-81597500D02*
X84812502Y-80137500D01*
D18*
X89852500Y-79057500D03*
X89832500Y-79347500D03*
D19*
X89812500Y-79637500D02*
X89852500Y-79057500D01*
D16*
G36*
X45099504Y-89257454D02*
G01*
X45123773Y-89261054D01*
X45147571Y-89267015D01*
X45170671Y-89275280D01*
X45192849Y-89285770D01*
X45213893Y-89298383D01*
X45233598Y-89312997D01*
X45251777Y-89329473D01*
X45268253Y-89347652D01*
X45282867Y-89367357D01*
X45295480Y-89388401D01*
X45305970Y-89410579D01*
X45314235Y-89433679D01*
X45320196Y-89457477D01*
X45323796Y-89481746D01*
X45325000Y-89506250D01*
X45325000Y-90256250D01*
X45323796Y-90280754D01*
X45320196Y-90305023D01*
X45314235Y-90328821D01*
X45305970Y-90351921D01*
X45295480Y-90374099D01*
X45282867Y-90395143D01*
X45268253Y-90414848D01*
X45251777Y-90433027D01*
X45233598Y-90449503D01*
X45213893Y-90464117D01*
X45192849Y-90476730D01*
X45170671Y-90487220D01*
X45147571Y-90495485D01*
X45123773Y-90501446D01*
X45099504Y-90505046D01*
X45075000Y-90506250D01*
X43825000Y-90506250D01*
X43800496Y-90505046D01*
X43776227Y-90501446D01*
X43752429Y-90495485D01*
X43729329Y-90487220D01*
X43707151Y-90476730D01*
X43686107Y-90464117D01*
X43666402Y-90449503D01*
X43648223Y-90433027D01*
X43631747Y-90414848D01*
X43617133Y-90395143D01*
X43604520Y-90374099D01*
X43594030Y-90351921D01*
X43585765Y-90328821D01*
X43579804Y-90305023D01*
X43576204Y-90280754D01*
X43575000Y-90256250D01*
X43575000Y-89506250D01*
X43576204Y-89481746D01*
X43579804Y-89457477D01*
X43585765Y-89433679D01*
X43594030Y-89410579D01*
X43604520Y-89388401D01*
X43617133Y-89367357D01*
X43631747Y-89347652D01*
X43648223Y-89329473D01*
X43666402Y-89312997D01*
X43686107Y-89298383D01*
X43707151Y-89285770D01*
X43729329Y-89275280D01*
X43752429Y-89267015D01*
X43776227Y-89261054D01*
X43800496Y-89257454D01*
X43825000Y-89256250D01*
X45075000Y-89256250D01*
X45099504Y-89257454D01*
X45099504Y-89257454D01*
G37*
D20*
X44450000Y-89881250D03*
D16*
G36*
X45099504Y-92057454D02*
G01*
X45123773Y-92061054D01*
X45147571Y-92067015D01*
X45170671Y-92075280D01*
X45192849Y-92085770D01*
X45213893Y-92098383D01*
X45233598Y-92112997D01*
X45251777Y-92129473D01*
X45268253Y-92147652D01*
X45282867Y-92167357D01*
X45295480Y-92188401D01*
X45305970Y-92210579D01*
X45314235Y-92233679D01*
X45320196Y-92257477D01*
X45323796Y-92281746D01*
X45325000Y-92306250D01*
X45325000Y-93056250D01*
X45323796Y-93080754D01*
X45320196Y-93105023D01*
X45314235Y-93128821D01*
X45305970Y-93151921D01*
X45295480Y-93174099D01*
X45282867Y-93195143D01*
X45268253Y-93214848D01*
X45251777Y-93233027D01*
X45233598Y-93249503D01*
X45213893Y-93264117D01*
X45192849Y-93276730D01*
X45170671Y-93287220D01*
X45147571Y-93295485D01*
X45123773Y-93301446D01*
X45099504Y-93305046D01*
X45075000Y-93306250D01*
X43825000Y-93306250D01*
X43800496Y-93305046D01*
X43776227Y-93301446D01*
X43752429Y-93295485D01*
X43729329Y-93287220D01*
X43707151Y-93276730D01*
X43686107Y-93264117D01*
X43666402Y-93249503D01*
X43648223Y-93233027D01*
X43631747Y-93214848D01*
X43617133Y-93195143D01*
X43604520Y-93174099D01*
X43594030Y-93151921D01*
X43585765Y-93128821D01*
X43579804Y-93105023D01*
X43576204Y-93080754D01*
X43575000Y-93056250D01*
X43575000Y-92306250D01*
X43576204Y-92281746D01*
X43579804Y-92257477D01*
X43585765Y-92233679D01*
X43594030Y-92210579D01*
X43604520Y-92188401D01*
X43617133Y-92167357D01*
X43631747Y-92147652D01*
X43648223Y-92129473D01*
X43666402Y-92112997D01*
X43686107Y-92098383D01*
X43707151Y-92085770D01*
X43729329Y-92075280D01*
X43752429Y-92067015D01*
X43776227Y-92061054D01*
X43800496Y-92057454D01*
X43825000Y-92056250D01*
X45075000Y-92056250D01*
X45099504Y-92057454D01*
X45099504Y-92057454D01*
G37*
D20*
X44450000Y-92681250D03*
D21*
X114300000Y-101537500D03*
X114300000Y-104837500D03*
X114300000Y-82487500D03*
X114300000Y-85787500D03*
X94456250Y-82487500D03*
X94456250Y-85787500D03*
X95250000Y-101537500D03*
X95250000Y-104837500D03*
D16*
G36*
X56042642Y-100463674D02*
G01*
X56066303Y-100467184D01*
X56089507Y-100472996D01*
X56112029Y-100481054D01*
X56133653Y-100491282D01*
X56154170Y-100503579D01*
X56173383Y-100517829D01*
X56191107Y-100533893D01*
X56207171Y-100551617D01*
X56221421Y-100570830D01*
X56233718Y-100591347D01*
X56243946Y-100612971D01*
X56252004Y-100635493D01*
X56257816Y-100658697D01*
X56261326Y-100682358D01*
X56262500Y-100706250D01*
X56262500Y-101193750D01*
X56261326Y-101217642D01*
X56257816Y-101241303D01*
X56252004Y-101264507D01*
X56243946Y-101287029D01*
X56233718Y-101308653D01*
X56221421Y-101329170D01*
X56207171Y-101348383D01*
X56191107Y-101366107D01*
X56173383Y-101382171D01*
X56154170Y-101396421D01*
X56133653Y-101408718D01*
X56112029Y-101418946D01*
X56089507Y-101427004D01*
X56066303Y-101432816D01*
X56042642Y-101436326D01*
X56018750Y-101437500D01*
X55106250Y-101437500D01*
X55082358Y-101436326D01*
X55058697Y-101432816D01*
X55035493Y-101427004D01*
X55012971Y-101418946D01*
X54991347Y-101408718D01*
X54970830Y-101396421D01*
X54951617Y-101382171D01*
X54933893Y-101366107D01*
X54917829Y-101348383D01*
X54903579Y-101329170D01*
X54891282Y-101308653D01*
X54881054Y-101287029D01*
X54872996Y-101264507D01*
X54867184Y-101241303D01*
X54863674Y-101217642D01*
X54862500Y-101193750D01*
X54862500Y-100706250D01*
X54863674Y-100682358D01*
X54867184Y-100658697D01*
X54872996Y-100635493D01*
X54881054Y-100612971D01*
X54891282Y-100591347D01*
X54903579Y-100570830D01*
X54917829Y-100551617D01*
X54933893Y-100533893D01*
X54951617Y-100517829D01*
X54970830Y-100503579D01*
X54991347Y-100491282D01*
X55012971Y-100481054D01*
X55035493Y-100472996D01*
X55058697Y-100467184D01*
X55082358Y-100463674D01*
X55106250Y-100462500D01*
X56018750Y-100462500D01*
X56042642Y-100463674D01*
X56042642Y-100463674D01*
G37*
D17*
X55562500Y-100950000D03*
D16*
G36*
X56042642Y-98588674D02*
G01*
X56066303Y-98592184D01*
X56089507Y-98597996D01*
X56112029Y-98606054D01*
X56133653Y-98616282D01*
X56154170Y-98628579D01*
X56173383Y-98642829D01*
X56191107Y-98658893D01*
X56207171Y-98676617D01*
X56221421Y-98695830D01*
X56233718Y-98716347D01*
X56243946Y-98737971D01*
X56252004Y-98760493D01*
X56257816Y-98783697D01*
X56261326Y-98807358D01*
X56262500Y-98831250D01*
X56262500Y-99318750D01*
X56261326Y-99342642D01*
X56257816Y-99366303D01*
X56252004Y-99389507D01*
X56243946Y-99412029D01*
X56233718Y-99433653D01*
X56221421Y-99454170D01*
X56207171Y-99473383D01*
X56191107Y-99491107D01*
X56173383Y-99507171D01*
X56154170Y-99521421D01*
X56133653Y-99533718D01*
X56112029Y-99543946D01*
X56089507Y-99552004D01*
X56066303Y-99557816D01*
X56042642Y-99561326D01*
X56018750Y-99562500D01*
X55106250Y-99562500D01*
X55082358Y-99561326D01*
X55058697Y-99557816D01*
X55035493Y-99552004D01*
X55012971Y-99543946D01*
X54991347Y-99533718D01*
X54970830Y-99521421D01*
X54951617Y-99507171D01*
X54933893Y-99491107D01*
X54917829Y-99473383D01*
X54903579Y-99454170D01*
X54891282Y-99433653D01*
X54881054Y-99412029D01*
X54872996Y-99389507D01*
X54867184Y-99366303D01*
X54863674Y-99342642D01*
X54862500Y-99318750D01*
X54862500Y-98831250D01*
X54863674Y-98807358D01*
X54867184Y-98783697D01*
X54872996Y-98760493D01*
X54881054Y-98737971D01*
X54891282Y-98716347D01*
X54903579Y-98695830D01*
X54917829Y-98676617D01*
X54933893Y-98658893D01*
X54951617Y-98642829D01*
X54970830Y-98628579D01*
X54991347Y-98616282D01*
X55012971Y-98606054D01*
X55035493Y-98597996D01*
X55058697Y-98592184D01*
X55082358Y-98588674D01*
X55106250Y-98587500D01*
X56018750Y-98587500D01*
X56042642Y-98588674D01*
X56042642Y-98588674D01*
G37*
D17*
X55562500Y-99075000D03*
D16*
G36*
X63911392Y-108838674D02*
G01*
X63935053Y-108842184D01*
X63958257Y-108847996D01*
X63980779Y-108856054D01*
X64002403Y-108866282D01*
X64022920Y-108878579D01*
X64042133Y-108892829D01*
X64059857Y-108908893D01*
X64075921Y-108926617D01*
X64090171Y-108945830D01*
X64102468Y-108966347D01*
X64112696Y-108987971D01*
X64120754Y-109010493D01*
X64126566Y-109033697D01*
X64130076Y-109057358D01*
X64131250Y-109081250D01*
X64131250Y-109993750D01*
X64130076Y-110017642D01*
X64126566Y-110041303D01*
X64120754Y-110064507D01*
X64112696Y-110087029D01*
X64102468Y-110108653D01*
X64090171Y-110129170D01*
X64075921Y-110148383D01*
X64059857Y-110166107D01*
X64042133Y-110182171D01*
X64022920Y-110196421D01*
X64002403Y-110208718D01*
X63980779Y-110218946D01*
X63958257Y-110227004D01*
X63935053Y-110232816D01*
X63911392Y-110236326D01*
X63887500Y-110237500D01*
X63400000Y-110237500D01*
X63376108Y-110236326D01*
X63352447Y-110232816D01*
X63329243Y-110227004D01*
X63306721Y-110218946D01*
X63285097Y-110208718D01*
X63264580Y-110196421D01*
X63245367Y-110182171D01*
X63227643Y-110166107D01*
X63211579Y-110148383D01*
X63197329Y-110129170D01*
X63185032Y-110108653D01*
X63174804Y-110087029D01*
X63166746Y-110064507D01*
X63160934Y-110041303D01*
X63157424Y-110017642D01*
X63156250Y-109993750D01*
X63156250Y-109081250D01*
X63157424Y-109057358D01*
X63160934Y-109033697D01*
X63166746Y-109010493D01*
X63174804Y-108987971D01*
X63185032Y-108966347D01*
X63197329Y-108945830D01*
X63211579Y-108926617D01*
X63227643Y-108908893D01*
X63245367Y-108892829D01*
X63264580Y-108878579D01*
X63285097Y-108866282D01*
X63306721Y-108856054D01*
X63329243Y-108847996D01*
X63352447Y-108842184D01*
X63376108Y-108838674D01*
X63400000Y-108837500D01*
X63887500Y-108837500D01*
X63911392Y-108838674D01*
X63911392Y-108838674D01*
G37*
D17*
X63643750Y-109537500D03*
D16*
G36*
X62036392Y-108838674D02*
G01*
X62060053Y-108842184D01*
X62083257Y-108847996D01*
X62105779Y-108856054D01*
X62127403Y-108866282D01*
X62147920Y-108878579D01*
X62167133Y-108892829D01*
X62184857Y-108908893D01*
X62200921Y-108926617D01*
X62215171Y-108945830D01*
X62227468Y-108966347D01*
X62237696Y-108987971D01*
X62245754Y-109010493D01*
X62251566Y-109033697D01*
X62255076Y-109057358D01*
X62256250Y-109081250D01*
X62256250Y-109993750D01*
X62255076Y-110017642D01*
X62251566Y-110041303D01*
X62245754Y-110064507D01*
X62237696Y-110087029D01*
X62227468Y-110108653D01*
X62215171Y-110129170D01*
X62200921Y-110148383D01*
X62184857Y-110166107D01*
X62167133Y-110182171D01*
X62147920Y-110196421D01*
X62127403Y-110208718D01*
X62105779Y-110218946D01*
X62083257Y-110227004D01*
X62060053Y-110232816D01*
X62036392Y-110236326D01*
X62012500Y-110237500D01*
X61525000Y-110237500D01*
X61501108Y-110236326D01*
X61477447Y-110232816D01*
X61454243Y-110227004D01*
X61431721Y-110218946D01*
X61410097Y-110208718D01*
X61389580Y-110196421D01*
X61370367Y-110182171D01*
X61352643Y-110166107D01*
X61336579Y-110148383D01*
X61322329Y-110129170D01*
X61310032Y-110108653D01*
X61299804Y-110087029D01*
X61291746Y-110064507D01*
X61285934Y-110041303D01*
X61282424Y-110017642D01*
X61281250Y-109993750D01*
X61281250Y-109081250D01*
X61282424Y-109057358D01*
X61285934Y-109033697D01*
X61291746Y-109010493D01*
X61299804Y-108987971D01*
X61310032Y-108966347D01*
X61322329Y-108945830D01*
X61336579Y-108926617D01*
X61352643Y-108908893D01*
X61370367Y-108892829D01*
X61389580Y-108878579D01*
X61410097Y-108866282D01*
X61431721Y-108856054D01*
X61454243Y-108847996D01*
X61477447Y-108842184D01*
X61501108Y-108838674D01*
X61525000Y-108837500D01*
X62012500Y-108837500D01*
X62036392Y-108838674D01*
X62036392Y-108838674D01*
G37*
D17*
X61768750Y-109537500D03*
D16*
G36*
X75886392Y-93032424D02*
G01*
X75910053Y-93035934D01*
X75933257Y-93041746D01*
X75955779Y-93049804D01*
X75977403Y-93060032D01*
X75997920Y-93072329D01*
X76017133Y-93086579D01*
X76034857Y-93102643D01*
X76050921Y-93120367D01*
X76065171Y-93139580D01*
X76077468Y-93160097D01*
X76087696Y-93181721D01*
X76095754Y-93204243D01*
X76101566Y-93227447D01*
X76105076Y-93251108D01*
X76106250Y-93275000D01*
X76106250Y-93762500D01*
X76105076Y-93786392D01*
X76101566Y-93810053D01*
X76095754Y-93833257D01*
X76087696Y-93855779D01*
X76077468Y-93877403D01*
X76065171Y-93897920D01*
X76050921Y-93917133D01*
X76034857Y-93934857D01*
X76017133Y-93950921D01*
X75997920Y-93965171D01*
X75977403Y-93977468D01*
X75955779Y-93987696D01*
X75933257Y-93995754D01*
X75910053Y-94001566D01*
X75886392Y-94005076D01*
X75862500Y-94006250D01*
X74950000Y-94006250D01*
X74926108Y-94005076D01*
X74902447Y-94001566D01*
X74879243Y-93995754D01*
X74856721Y-93987696D01*
X74835097Y-93977468D01*
X74814580Y-93965171D01*
X74795367Y-93950921D01*
X74777643Y-93934857D01*
X74761579Y-93917133D01*
X74747329Y-93897920D01*
X74735032Y-93877403D01*
X74724804Y-93855779D01*
X74716746Y-93833257D01*
X74710934Y-93810053D01*
X74707424Y-93786392D01*
X74706250Y-93762500D01*
X74706250Y-93275000D01*
X74707424Y-93251108D01*
X74710934Y-93227447D01*
X74716746Y-93204243D01*
X74724804Y-93181721D01*
X74735032Y-93160097D01*
X74747329Y-93139580D01*
X74761579Y-93120367D01*
X74777643Y-93102643D01*
X74795367Y-93086579D01*
X74814580Y-93072329D01*
X74835097Y-93060032D01*
X74856721Y-93049804D01*
X74879243Y-93041746D01*
X74902447Y-93035934D01*
X74926108Y-93032424D01*
X74950000Y-93031250D01*
X75862500Y-93031250D01*
X75886392Y-93032424D01*
X75886392Y-93032424D01*
G37*
D17*
X75406250Y-93518750D03*
D16*
G36*
X75886392Y-94907424D02*
G01*
X75910053Y-94910934D01*
X75933257Y-94916746D01*
X75955779Y-94924804D01*
X75977403Y-94935032D01*
X75997920Y-94947329D01*
X76017133Y-94961579D01*
X76034857Y-94977643D01*
X76050921Y-94995367D01*
X76065171Y-95014580D01*
X76077468Y-95035097D01*
X76087696Y-95056721D01*
X76095754Y-95079243D01*
X76101566Y-95102447D01*
X76105076Y-95126108D01*
X76106250Y-95150000D01*
X76106250Y-95637500D01*
X76105076Y-95661392D01*
X76101566Y-95685053D01*
X76095754Y-95708257D01*
X76087696Y-95730779D01*
X76077468Y-95752403D01*
X76065171Y-95772920D01*
X76050921Y-95792133D01*
X76034857Y-95809857D01*
X76017133Y-95825921D01*
X75997920Y-95840171D01*
X75977403Y-95852468D01*
X75955779Y-95862696D01*
X75933257Y-95870754D01*
X75910053Y-95876566D01*
X75886392Y-95880076D01*
X75862500Y-95881250D01*
X74950000Y-95881250D01*
X74926108Y-95880076D01*
X74902447Y-95876566D01*
X74879243Y-95870754D01*
X74856721Y-95862696D01*
X74835097Y-95852468D01*
X74814580Y-95840171D01*
X74795367Y-95825921D01*
X74777643Y-95809857D01*
X74761579Y-95792133D01*
X74747329Y-95772920D01*
X74735032Y-95752403D01*
X74724804Y-95730779D01*
X74716746Y-95708257D01*
X74710934Y-95685053D01*
X74707424Y-95661392D01*
X74706250Y-95637500D01*
X74706250Y-95150000D01*
X74707424Y-95126108D01*
X74710934Y-95102447D01*
X74716746Y-95079243D01*
X74724804Y-95056721D01*
X74735032Y-95035097D01*
X74747329Y-95014580D01*
X74761579Y-94995367D01*
X74777643Y-94977643D01*
X74795367Y-94961579D01*
X74814580Y-94947329D01*
X74835097Y-94935032D01*
X74856721Y-94924804D01*
X74879243Y-94916746D01*
X74902447Y-94910934D01*
X74926108Y-94907424D01*
X74950000Y-94906250D01*
X75862500Y-94906250D01*
X75886392Y-94907424D01*
X75886392Y-94907424D01*
G37*
D17*
X75406250Y-95393750D03*
D16*
G36*
X63186392Y-85094924D02*
G01*
X63210053Y-85098434D01*
X63233257Y-85104246D01*
X63255779Y-85112304D01*
X63277403Y-85122532D01*
X63297920Y-85134829D01*
X63317133Y-85149079D01*
X63334857Y-85165143D01*
X63350921Y-85182867D01*
X63365171Y-85202080D01*
X63377468Y-85222597D01*
X63387696Y-85244221D01*
X63395754Y-85266743D01*
X63401566Y-85289947D01*
X63405076Y-85313608D01*
X63406250Y-85337500D01*
X63406250Y-85825000D01*
X63405076Y-85848892D01*
X63401566Y-85872553D01*
X63395754Y-85895757D01*
X63387696Y-85918279D01*
X63377468Y-85939903D01*
X63365171Y-85960420D01*
X63350921Y-85979633D01*
X63334857Y-85997357D01*
X63317133Y-86013421D01*
X63297920Y-86027671D01*
X63277403Y-86039968D01*
X63255779Y-86050196D01*
X63233257Y-86058254D01*
X63210053Y-86064066D01*
X63186392Y-86067576D01*
X63162500Y-86068750D01*
X62250000Y-86068750D01*
X62226108Y-86067576D01*
X62202447Y-86064066D01*
X62179243Y-86058254D01*
X62156721Y-86050196D01*
X62135097Y-86039968D01*
X62114580Y-86027671D01*
X62095367Y-86013421D01*
X62077643Y-85997357D01*
X62061579Y-85979633D01*
X62047329Y-85960420D01*
X62035032Y-85939903D01*
X62024804Y-85918279D01*
X62016746Y-85895757D01*
X62010934Y-85872553D01*
X62007424Y-85848892D01*
X62006250Y-85825000D01*
X62006250Y-85337500D01*
X62007424Y-85313608D01*
X62010934Y-85289947D01*
X62016746Y-85266743D01*
X62024804Y-85244221D01*
X62035032Y-85222597D01*
X62047329Y-85202080D01*
X62061579Y-85182867D01*
X62077643Y-85165143D01*
X62095367Y-85149079D01*
X62114580Y-85134829D01*
X62135097Y-85122532D01*
X62156721Y-85112304D01*
X62179243Y-85104246D01*
X62202447Y-85098434D01*
X62226108Y-85094924D01*
X62250000Y-85093750D01*
X63162500Y-85093750D01*
X63186392Y-85094924D01*
X63186392Y-85094924D01*
G37*
D17*
X62706250Y-85581250D03*
D16*
G36*
X63186392Y-86969924D02*
G01*
X63210053Y-86973434D01*
X63233257Y-86979246D01*
X63255779Y-86987304D01*
X63277403Y-86997532D01*
X63297920Y-87009829D01*
X63317133Y-87024079D01*
X63334857Y-87040143D01*
X63350921Y-87057867D01*
X63365171Y-87077080D01*
X63377468Y-87097597D01*
X63387696Y-87119221D01*
X63395754Y-87141743D01*
X63401566Y-87164947D01*
X63405076Y-87188608D01*
X63406250Y-87212500D01*
X63406250Y-87700000D01*
X63405076Y-87723892D01*
X63401566Y-87747553D01*
X63395754Y-87770757D01*
X63387696Y-87793279D01*
X63377468Y-87814903D01*
X63365171Y-87835420D01*
X63350921Y-87854633D01*
X63334857Y-87872357D01*
X63317133Y-87888421D01*
X63297920Y-87902671D01*
X63277403Y-87914968D01*
X63255779Y-87925196D01*
X63233257Y-87933254D01*
X63210053Y-87939066D01*
X63186392Y-87942576D01*
X63162500Y-87943750D01*
X62250000Y-87943750D01*
X62226108Y-87942576D01*
X62202447Y-87939066D01*
X62179243Y-87933254D01*
X62156721Y-87925196D01*
X62135097Y-87914968D01*
X62114580Y-87902671D01*
X62095367Y-87888421D01*
X62077643Y-87872357D01*
X62061579Y-87854633D01*
X62047329Y-87835420D01*
X62035032Y-87814903D01*
X62024804Y-87793279D01*
X62016746Y-87770757D01*
X62010934Y-87747553D01*
X62007424Y-87723892D01*
X62006250Y-87700000D01*
X62006250Y-87212500D01*
X62007424Y-87188608D01*
X62010934Y-87164947D01*
X62016746Y-87141743D01*
X62024804Y-87119221D01*
X62035032Y-87097597D01*
X62047329Y-87077080D01*
X62061579Y-87057867D01*
X62077643Y-87040143D01*
X62095367Y-87024079D01*
X62114580Y-87009829D01*
X62135097Y-86997532D01*
X62156721Y-86987304D01*
X62179243Y-86979246D01*
X62202447Y-86973434D01*
X62226108Y-86969924D01*
X62250000Y-86968750D01*
X63162500Y-86968750D01*
X63186392Y-86969924D01*
X63186392Y-86969924D01*
G37*
D17*
X62706250Y-87456250D03*
D16*
G36*
X73505142Y-85094924D02*
G01*
X73528803Y-85098434D01*
X73552007Y-85104246D01*
X73574529Y-85112304D01*
X73596153Y-85122532D01*
X73616670Y-85134829D01*
X73635883Y-85149079D01*
X73653607Y-85165143D01*
X73669671Y-85182867D01*
X73683921Y-85202080D01*
X73696218Y-85222597D01*
X73706446Y-85244221D01*
X73714504Y-85266743D01*
X73720316Y-85289947D01*
X73723826Y-85313608D01*
X73725000Y-85337500D01*
X73725000Y-85825000D01*
X73723826Y-85848892D01*
X73720316Y-85872553D01*
X73714504Y-85895757D01*
X73706446Y-85918279D01*
X73696218Y-85939903D01*
X73683921Y-85960420D01*
X73669671Y-85979633D01*
X73653607Y-85997357D01*
X73635883Y-86013421D01*
X73616670Y-86027671D01*
X73596153Y-86039968D01*
X73574529Y-86050196D01*
X73552007Y-86058254D01*
X73528803Y-86064066D01*
X73505142Y-86067576D01*
X73481250Y-86068750D01*
X72568750Y-86068750D01*
X72544858Y-86067576D01*
X72521197Y-86064066D01*
X72497993Y-86058254D01*
X72475471Y-86050196D01*
X72453847Y-86039968D01*
X72433330Y-86027671D01*
X72414117Y-86013421D01*
X72396393Y-85997357D01*
X72380329Y-85979633D01*
X72366079Y-85960420D01*
X72353782Y-85939903D01*
X72343554Y-85918279D01*
X72335496Y-85895757D01*
X72329684Y-85872553D01*
X72326174Y-85848892D01*
X72325000Y-85825000D01*
X72325000Y-85337500D01*
X72326174Y-85313608D01*
X72329684Y-85289947D01*
X72335496Y-85266743D01*
X72343554Y-85244221D01*
X72353782Y-85222597D01*
X72366079Y-85202080D01*
X72380329Y-85182867D01*
X72396393Y-85165143D01*
X72414117Y-85149079D01*
X72433330Y-85134829D01*
X72453847Y-85122532D01*
X72475471Y-85112304D01*
X72497993Y-85104246D01*
X72521197Y-85098434D01*
X72544858Y-85094924D01*
X72568750Y-85093750D01*
X73481250Y-85093750D01*
X73505142Y-85094924D01*
X73505142Y-85094924D01*
G37*
D17*
X73025000Y-85581250D03*
D16*
G36*
X73505142Y-86969924D02*
G01*
X73528803Y-86973434D01*
X73552007Y-86979246D01*
X73574529Y-86987304D01*
X73596153Y-86997532D01*
X73616670Y-87009829D01*
X73635883Y-87024079D01*
X73653607Y-87040143D01*
X73669671Y-87057867D01*
X73683921Y-87077080D01*
X73696218Y-87097597D01*
X73706446Y-87119221D01*
X73714504Y-87141743D01*
X73720316Y-87164947D01*
X73723826Y-87188608D01*
X73725000Y-87212500D01*
X73725000Y-87700000D01*
X73723826Y-87723892D01*
X73720316Y-87747553D01*
X73714504Y-87770757D01*
X73706446Y-87793279D01*
X73696218Y-87814903D01*
X73683921Y-87835420D01*
X73669671Y-87854633D01*
X73653607Y-87872357D01*
X73635883Y-87888421D01*
X73616670Y-87902671D01*
X73596153Y-87914968D01*
X73574529Y-87925196D01*
X73552007Y-87933254D01*
X73528803Y-87939066D01*
X73505142Y-87942576D01*
X73481250Y-87943750D01*
X72568750Y-87943750D01*
X72544858Y-87942576D01*
X72521197Y-87939066D01*
X72497993Y-87933254D01*
X72475471Y-87925196D01*
X72453847Y-87914968D01*
X72433330Y-87902671D01*
X72414117Y-87888421D01*
X72396393Y-87872357D01*
X72380329Y-87854633D01*
X72366079Y-87835420D01*
X72353782Y-87814903D01*
X72343554Y-87793279D01*
X72335496Y-87770757D01*
X72329684Y-87747553D01*
X72326174Y-87723892D01*
X72325000Y-87700000D01*
X72325000Y-87212500D01*
X72326174Y-87188608D01*
X72329684Y-87164947D01*
X72335496Y-87141743D01*
X72343554Y-87119221D01*
X72353782Y-87097597D01*
X72366079Y-87077080D01*
X72380329Y-87057867D01*
X72396393Y-87040143D01*
X72414117Y-87024079D01*
X72433330Y-87009829D01*
X72453847Y-86997532D01*
X72475471Y-86987304D01*
X72497993Y-86979246D01*
X72521197Y-86973434D01*
X72544858Y-86969924D01*
X72568750Y-86968750D01*
X73481250Y-86968750D01*
X73505142Y-86969924D01*
X73505142Y-86969924D01*
G37*
D17*
X73025000Y-87456250D03*
D16*
G36*
X71561392Y-108838674D02*
G01*
X71585053Y-108842184D01*
X71608257Y-108847996D01*
X71630779Y-108856054D01*
X71652403Y-108866282D01*
X71672920Y-108878579D01*
X71692133Y-108892829D01*
X71709857Y-108908893D01*
X71725921Y-108926617D01*
X71740171Y-108945830D01*
X71752468Y-108966347D01*
X71762696Y-108987971D01*
X71770754Y-109010493D01*
X71776566Y-109033697D01*
X71780076Y-109057358D01*
X71781250Y-109081250D01*
X71781250Y-109993750D01*
X71780076Y-110017642D01*
X71776566Y-110041303D01*
X71770754Y-110064507D01*
X71762696Y-110087029D01*
X71752468Y-110108653D01*
X71740171Y-110129170D01*
X71725921Y-110148383D01*
X71709857Y-110166107D01*
X71692133Y-110182171D01*
X71672920Y-110196421D01*
X71652403Y-110208718D01*
X71630779Y-110218946D01*
X71608257Y-110227004D01*
X71585053Y-110232816D01*
X71561392Y-110236326D01*
X71537500Y-110237500D01*
X71050000Y-110237500D01*
X71026108Y-110236326D01*
X71002447Y-110232816D01*
X70979243Y-110227004D01*
X70956721Y-110218946D01*
X70935097Y-110208718D01*
X70914580Y-110196421D01*
X70895367Y-110182171D01*
X70877643Y-110166107D01*
X70861579Y-110148383D01*
X70847329Y-110129170D01*
X70835032Y-110108653D01*
X70824804Y-110087029D01*
X70816746Y-110064507D01*
X70810934Y-110041303D01*
X70807424Y-110017642D01*
X70806250Y-109993750D01*
X70806250Y-109081250D01*
X70807424Y-109057358D01*
X70810934Y-109033697D01*
X70816746Y-109010493D01*
X70824804Y-108987971D01*
X70835032Y-108966347D01*
X70847329Y-108945830D01*
X70861579Y-108926617D01*
X70877643Y-108908893D01*
X70895367Y-108892829D01*
X70914580Y-108878579D01*
X70935097Y-108866282D01*
X70956721Y-108856054D01*
X70979243Y-108847996D01*
X71002447Y-108842184D01*
X71026108Y-108838674D01*
X71050000Y-108837500D01*
X71537500Y-108837500D01*
X71561392Y-108838674D01*
X71561392Y-108838674D01*
G37*
D17*
X71293750Y-109537500D03*
D16*
G36*
X73436392Y-108838674D02*
G01*
X73460053Y-108842184D01*
X73483257Y-108847996D01*
X73505779Y-108856054D01*
X73527403Y-108866282D01*
X73547920Y-108878579D01*
X73567133Y-108892829D01*
X73584857Y-108908893D01*
X73600921Y-108926617D01*
X73615171Y-108945830D01*
X73627468Y-108966347D01*
X73637696Y-108987971D01*
X73645754Y-109010493D01*
X73651566Y-109033697D01*
X73655076Y-109057358D01*
X73656250Y-109081250D01*
X73656250Y-109993750D01*
X73655076Y-110017642D01*
X73651566Y-110041303D01*
X73645754Y-110064507D01*
X73637696Y-110087029D01*
X73627468Y-110108653D01*
X73615171Y-110129170D01*
X73600921Y-110148383D01*
X73584857Y-110166107D01*
X73567133Y-110182171D01*
X73547920Y-110196421D01*
X73527403Y-110208718D01*
X73505779Y-110218946D01*
X73483257Y-110227004D01*
X73460053Y-110232816D01*
X73436392Y-110236326D01*
X73412500Y-110237500D01*
X72925000Y-110237500D01*
X72901108Y-110236326D01*
X72877447Y-110232816D01*
X72854243Y-110227004D01*
X72831721Y-110218946D01*
X72810097Y-110208718D01*
X72789580Y-110196421D01*
X72770367Y-110182171D01*
X72752643Y-110166107D01*
X72736579Y-110148383D01*
X72722329Y-110129170D01*
X72710032Y-110108653D01*
X72699804Y-110087029D01*
X72691746Y-110064507D01*
X72685934Y-110041303D01*
X72682424Y-110017642D01*
X72681250Y-109993750D01*
X72681250Y-109081250D01*
X72682424Y-109057358D01*
X72685934Y-109033697D01*
X72691746Y-109010493D01*
X72699804Y-108987971D01*
X72710032Y-108966347D01*
X72722329Y-108945830D01*
X72736579Y-108926617D01*
X72752643Y-108908893D01*
X72770367Y-108892829D01*
X72789580Y-108878579D01*
X72810097Y-108866282D01*
X72831721Y-108856054D01*
X72854243Y-108847996D01*
X72877447Y-108842184D01*
X72901108Y-108838674D01*
X72925000Y-108837500D01*
X73412500Y-108837500D01*
X73436392Y-108838674D01*
X73436392Y-108838674D01*
G37*
D17*
X73168750Y-109537500D03*
D16*
G36*
X58423892Y-89857424D02*
G01*
X58447553Y-89860934D01*
X58470757Y-89866746D01*
X58493279Y-89874804D01*
X58514903Y-89885032D01*
X58535420Y-89897329D01*
X58554633Y-89911579D01*
X58572357Y-89927643D01*
X58588421Y-89945367D01*
X58602671Y-89964580D01*
X58614968Y-89985097D01*
X58625196Y-90006721D01*
X58633254Y-90029243D01*
X58639066Y-90052447D01*
X58642576Y-90076108D01*
X58643750Y-90100000D01*
X58643750Y-90587500D01*
X58642576Y-90611392D01*
X58639066Y-90635053D01*
X58633254Y-90658257D01*
X58625196Y-90680779D01*
X58614968Y-90702403D01*
X58602671Y-90722920D01*
X58588421Y-90742133D01*
X58572357Y-90759857D01*
X58554633Y-90775921D01*
X58535420Y-90790171D01*
X58514903Y-90802468D01*
X58493279Y-90812696D01*
X58470757Y-90820754D01*
X58447553Y-90826566D01*
X58423892Y-90830076D01*
X58400000Y-90831250D01*
X57487500Y-90831250D01*
X57463608Y-90830076D01*
X57439947Y-90826566D01*
X57416743Y-90820754D01*
X57394221Y-90812696D01*
X57372597Y-90802468D01*
X57352080Y-90790171D01*
X57332867Y-90775921D01*
X57315143Y-90759857D01*
X57299079Y-90742133D01*
X57284829Y-90722920D01*
X57272532Y-90702403D01*
X57262304Y-90680779D01*
X57254246Y-90658257D01*
X57248434Y-90635053D01*
X57244924Y-90611392D01*
X57243750Y-90587500D01*
X57243750Y-90100000D01*
X57244924Y-90076108D01*
X57248434Y-90052447D01*
X57254246Y-90029243D01*
X57262304Y-90006721D01*
X57272532Y-89985097D01*
X57284829Y-89964580D01*
X57299079Y-89945367D01*
X57315143Y-89927643D01*
X57332867Y-89911579D01*
X57352080Y-89897329D01*
X57372597Y-89885032D01*
X57394221Y-89874804D01*
X57416743Y-89866746D01*
X57439947Y-89860934D01*
X57463608Y-89857424D01*
X57487500Y-89856250D01*
X58400000Y-89856250D01*
X58423892Y-89857424D01*
X58423892Y-89857424D01*
G37*
D17*
X57943750Y-90343750D03*
D16*
G36*
X58423892Y-91732424D02*
G01*
X58447553Y-91735934D01*
X58470757Y-91741746D01*
X58493279Y-91749804D01*
X58514903Y-91760032D01*
X58535420Y-91772329D01*
X58554633Y-91786579D01*
X58572357Y-91802643D01*
X58588421Y-91820367D01*
X58602671Y-91839580D01*
X58614968Y-91860097D01*
X58625196Y-91881721D01*
X58633254Y-91904243D01*
X58639066Y-91927447D01*
X58642576Y-91951108D01*
X58643750Y-91975000D01*
X58643750Y-92462500D01*
X58642576Y-92486392D01*
X58639066Y-92510053D01*
X58633254Y-92533257D01*
X58625196Y-92555779D01*
X58614968Y-92577403D01*
X58602671Y-92597920D01*
X58588421Y-92617133D01*
X58572357Y-92634857D01*
X58554633Y-92650921D01*
X58535420Y-92665171D01*
X58514903Y-92677468D01*
X58493279Y-92687696D01*
X58470757Y-92695754D01*
X58447553Y-92701566D01*
X58423892Y-92705076D01*
X58400000Y-92706250D01*
X57487500Y-92706250D01*
X57463608Y-92705076D01*
X57439947Y-92701566D01*
X57416743Y-92695754D01*
X57394221Y-92687696D01*
X57372597Y-92677468D01*
X57352080Y-92665171D01*
X57332867Y-92650921D01*
X57315143Y-92634857D01*
X57299079Y-92617133D01*
X57284829Y-92597920D01*
X57272532Y-92577403D01*
X57262304Y-92555779D01*
X57254246Y-92533257D01*
X57248434Y-92510053D01*
X57244924Y-92486392D01*
X57243750Y-92462500D01*
X57243750Y-91975000D01*
X57244924Y-91951108D01*
X57248434Y-91927447D01*
X57254246Y-91904243D01*
X57262304Y-91881721D01*
X57272532Y-91860097D01*
X57284829Y-91839580D01*
X57299079Y-91820367D01*
X57315143Y-91802643D01*
X57332867Y-91786579D01*
X57352080Y-91772329D01*
X57372597Y-91760032D01*
X57394221Y-91749804D01*
X57416743Y-91741746D01*
X57439947Y-91735934D01*
X57463608Y-91732424D01*
X57487500Y-91731250D01*
X58400000Y-91731250D01*
X58423892Y-91732424D01*
X58423892Y-91732424D01*
G37*
D17*
X57943750Y-92218750D03*
D22*
X75406250Y-109537500D03*
X76993750Y-96837500D03*
X58737500Y-105568750D03*
X58737500Y-97631250D03*
X56356250Y-91281250D03*
X52387500Y-92075000D03*
X53975000Y-107156250D03*
D23*
X68918750Y-83206250D02*
X68918750Y-85368750D01*
X62706250Y-87456250D02*
X60468750Y-87456250D01*
X59531250Y-86518750D02*
X59531250Y-83631250D01*
X59531250Y-83631250D02*
X60612500Y-82550000D01*
X60612500Y-82550000D02*
X68262500Y-82550000D01*
X60468750Y-87456250D02*
X59531250Y-86518750D01*
X68262500Y-82550000D02*
X68918750Y-83206250D01*
X62706250Y-87456250D02*
X62706250Y-89693750D01*
X65075000Y-92062500D02*
X65075000Y-93518750D01*
X66371652Y-87668750D02*
X66018750Y-87668750D01*
X68671652Y-85368750D02*
X66371652Y-87668750D01*
X68918750Y-85368750D02*
X68671652Y-85368750D01*
X72812500Y-85368750D02*
X73025000Y-85581250D01*
X68918750Y-85368750D02*
X72812500Y-85368750D01*
X64943750Y-91931250D02*
X65075000Y-92062500D01*
X64293750Y-91281250D02*
X65075000Y-92062500D01*
X63356250Y-90343750D02*
X63500000Y-90487500D01*
X57943750Y-90343750D02*
X63356250Y-90343750D01*
X62706250Y-89693750D02*
X63500000Y-90487500D01*
X63500000Y-90487500D02*
X64293750Y-91281250D01*
X65075000Y-94649750D02*
X66469000Y-96043750D01*
X65075000Y-93518750D02*
X65075000Y-94649750D01*
X66469000Y-96043750D02*
X69850000Y-96043750D01*
X70675000Y-95218750D02*
X72375000Y-95218750D01*
X69850000Y-96043750D02*
X70675000Y-95218750D01*
X69875000Y-96068750D02*
X69850000Y-96043750D01*
X69875000Y-103787750D02*
X69850000Y-103762750D01*
X69875000Y-104918750D02*
X69875000Y-103787750D01*
X69850000Y-103762750D02*
X69850000Y-103187500D01*
X69850000Y-103187500D02*
X68262500Y-101600000D01*
X68262500Y-97681250D02*
X69875000Y-96068750D01*
X68262500Y-101600000D02*
X68262500Y-97681250D01*
X63475000Y-103787750D02*
X63500000Y-103762750D01*
X63475000Y-104918750D02*
X63475000Y-103787750D01*
X63500000Y-103762750D02*
X63500000Y-103187500D01*
X65087500Y-101600000D02*
X68262500Y-101600000D01*
X63500000Y-103187500D02*
X65087500Y-101600000D01*
X65087500Y-101600000D02*
X63500000Y-100012500D01*
X63493750Y-100018750D02*
X60975000Y-100018750D01*
X63500000Y-100012500D02*
X63493750Y-100018750D01*
X69875000Y-108118750D02*
X71293750Y-109537500D01*
X69875000Y-104918750D02*
X69875000Y-108118750D01*
X63475000Y-109368750D02*
X63643750Y-109537500D01*
X63475000Y-104918750D02*
X63475000Y-109368750D01*
X55562500Y-100950000D02*
X57006250Y-100950000D01*
X57937500Y-100018750D02*
X60975000Y-100018750D01*
X57006250Y-100950000D02*
X57937500Y-100018750D01*
X45318750Y-111387500D02*
X45318750Y-112787500D01*
X45318750Y-112787500D02*
X46037500Y-113506250D01*
X59675000Y-113506250D02*
X63643750Y-109537500D01*
X46037500Y-113506250D02*
X59675000Y-113506250D01*
X72375000Y-94562750D02*
X72375000Y-95218750D01*
X73419000Y-93518750D02*
X72375000Y-94562750D01*
X75406250Y-93518750D02*
X73419000Y-93518750D01*
X73675000Y-111918750D02*
X71293750Y-109537500D01*
X76196751Y-105709251D02*
X76196751Y-107946751D01*
X75406250Y-104918750D02*
X76196751Y-105709251D01*
X76196751Y-107946751D02*
X76993750Y-108743750D01*
X76993750Y-108743750D02*
X76993750Y-110331250D01*
X76993750Y-110331250D02*
X75406250Y-111918750D01*
X75406250Y-111918750D02*
X73675000Y-111918750D01*
X57293750Y-92218750D02*
X57943750Y-92218750D01*
X54768750Y-90343750D02*
X55418750Y-90343750D01*
X64106000Y-92218750D02*
X64275000Y-92387750D01*
X64275000Y-92387750D02*
X64275000Y-93518750D01*
X58499987Y-91662513D02*
X57943750Y-92218750D01*
X63354632Y-91662513D02*
X58499987Y-91662513D01*
X64106000Y-92218750D02*
X63910869Y-92218750D01*
X63910869Y-92218750D02*
X63354632Y-91662513D01*
X70675000Y-107043750D02*
X73168750Y-109537500D01*
X70675000Y-104918750D02*
X70675000Y-107043750D01*
X73168750Y-109537500D02*
X75406250Y-109537500D01*
X76850000Y-96837500D02*
X75406250Y-95393750D01*
X76993750Y-96837500D02*
X76850000Y-96837500D01*
X58737500Y-105568750D02*
X58737500Y-107950000D01*
X58737500Y-107950000D02*
X60325000Y-109537500D01*
X60325000Y-109537500D02*
X61768750Y-109537500D01*
X58737500Y-105003065D02*
X58737500Y-105568750D01*
X58737500Y-103525250D02*
X58737500Y-105003065D01*
X59844000Y-102418750D02*
X58737500Y-103525250D01*
X60975000Y-102418750D02*
X59844000Y-102418750D01*
X62675000Y-105393750D02*
X61706250Y-106362500D01*
X62675000Y-104918750D02*
X62675000Y-105393750D01*
X59531250Y-106362500D02*
X58737500Y-105568750D01*
X61706250Y-106362500D02*
X59531250Y-106362500D01*
X59525000Y-98418750D02*
X60975000Y-98418750D01*
X58737500Y-97631250D02*
X59525000Y-98418750D01*
X55418750Y-90343750D02*
X56356250Y-91281250D01*
X56356250Y-91281250D02*
X57293750Y-92218750D01*
X47625000Y-105568750D02*
X58737500Y-105568750D01*
X44450000Y-92681250D02*
X44450000Y-102393750D01*
X44450000Y-102393750D02*
X47625000Y-105568750D01*
X74781250Y-96018750D02*
X72375000Y-96018750D01*
X75406250Y-95393750D02*
X74781250Y-96018750D01*
D24*
X72812500Y-87668750D02*
X73025000Y-87456250D01*
X68918750Y-87668750D02*
X72812500Y-87668750D01*
X66675000Y-92514750D02*
X66675000Y-93518750D01*
X66675000Y-91066500D02*
X66675000Y-92514750D01*
X68918750Y-88822750D02*
X66675000Y-91066500D01*
X68918750Y-87668750D02*
X68918750Y-88822750D01*
X62918750Y-85368750D02*
X62706250Y-85581250D01*
X65881250Y-90487500D02*
X64293750Y-88900000D01*
X65875000Y-90493750D02*
X65881250Y-90487500D01*
X65875000Y-93518750D02*
X65875000Y-90493750D01*
X65806250Y-85581250D02*
X66018750Y-85368750D01*
X62706250Y-85581250D02*
X65806250Y-85581250D01*
X65868750Y-85368750D02*
X66018750Y-85368750D01*
X64293750Y-86943750D02*
X65868750Y-85368750D01*
X64293750Y-88900000D02*
X64293750Y-86943750D01*
X60831250Y-99075000D02*
X60975000Y-99218750D01*
X55562500Y-99075000D02*
X60831250Y-99075000D01*
X92662500Y-101537500D02*
X95250000Y-101537500D01*
X89812500Y-98687500D02*
X92662500Y-101537500D01*
X114150000Y-104837500D02*
X111831250Y-107156250D01*
X114300000Y-104837500D02*
X114150000Y-104837500D01*
X96104000Y-104837500D02*
X95250000Y-104837500D01*
X98422750Y-107156250D02*
X96104000Y-104837500D01*
X111831250Y-107156250D02*
X98422750Y-107156250D01*
X94396000Y-104837500D02*
X95250000Y-104837500D01*
X72375000Y-100018750D02*
X78587500Y-100018750D01*
X78587500Y-100018750D02*
X80168750Y-101600000D01*
X80168750Y-101600000D02*
X80168750Y-104775000D01*
X80168750Y-104775000D02*
X82550000Y-107156250D01*
X82550000Y-107156250D02*
X92077250Y-107156250D01*
X92077250Y-107156250D02*
X94396000Y-104837500D01*
X92662500Y-82487500D02*
X94456250Y-82487500D01*
X89812500Y-79637500D02*
X92662500Y-82487500D01*
X114300000Y-86491500D02*
X112685250Y-88106250D01*
X114300000Y-85787500D02*
X114300000Y-86491500D01*
X95310250Y-85787500D02*
X94456250Y-85787500D01*
X97629000Y-88106250D02*
X95310250Y-85787500D01*
X112685250Y-88106250D02*
X97629000Y-88106250D01*
X94456250Y-85787500D02*
X90425000Y-85787500D01*
X90425000Y-85787500D02*
X78581250Y-97631250D01*
X78568750Y-97618750D02*
X72375000Y-97618750D01*
X78581250Y-97631250D02*
X78568750Y-97618750D01*
X111712500Y-82487500D02*
X114300000Y-82487500D01*
X108862500Y-79637500D02*
X111712500Y-82487500D01*
X111712500Y-101537500D02*
X114300000Y-101537500D01*
X108862500Y-98687500D02*
X111712500Y-101537500D01*
D23*
X45145710Y-89185540D02*
X44450000Y-89881250D01*
X44450000Y-89881250D02*
X44450000Y-82550000D01*
X44450000Y-82550000D02*
X46037500Y-80962500D01*
X46037500Y-80962500D02*
X48418750Y-80962500D01*
X49200000Y-80181250D02*
X49200000Y-78318750D01*
X48418750Y-80962500D02*
X49200000Y-80181250D01*
D24*
X83502500Y-100647500D02*
X82391250Y-100647500D01*
X80962500Y-99218750D02*
X72375000Y-99218750D01*
X82391250Y-100647500D02*
X80962500Y-99218750D01*
X102552500Y-100647500D02*
X101441250Y-100647500D01*
X101441250Y-100647500D02*
X96837500Y-96043750D01*
X96837500Y-96043750D02*
X81756250Y-96043750D01*
X79381250Y-98418750D02*
X72375000Y-98418750D01*
X81756250Y-96043750D02*
X79381250Y-98418750D01*
X50000000Y-80825000D02*
X48418750Y-82406250D01*
X50000000Y-78318750D02*
X50000000Y-80825000D01*
X48418750Y-84281250D02*
X49862500Y-85725000D01*
X49862500Y-85725000D02*
X49862500Y-103043750D01*
X49862500Y-103043750D02*
X50006250Y-103187500D01*
X50006250Y-103187500D02*
X57943750Y-103187500D01*
X59512500Y-101618750D02*
X60975000Y-101618750D01*
X57943750Y-103187500D02*
X59512500Y-101618750D01*
X50800000Y-80818750D02*
X52387500Y-82406250D01*
X50800000Y-78318750D02*
X50800000Y-80818750D01*
X52387500Y-84281250D02*
X50943750Y-85725000D01*
X50943750Y-85725000D02*
X50943750Y-102250000D01*
X50943750Y-102250000D02*
X51087500Y-102393750D01*
X51087500Y-102393750D02*
X57150000Y-102393750D01*
X58725000Y-100818750D02*
X60975000Y-100818750D01*
X57150000Y-102393750D02*
X58725000Y-100818750D01*
X54768750Y-92218750D02*
X56212500Y-93662500D01*
X56212500Y-93662500D02*
X60325000Y-93662500D01*
X63475000Y-92514750D02*
X63475000Y-93518750D01*
X63401999Y-92441749D02*
X63475000Y-92514750D01*
X60325000Y-93662500D02*
X61545751Y-92441749D01*
X61545751Y-92441749D02*
X63401999Y-92441749D01*
X54768750Y-92218750D02*
X52531250Y-92218750D01*
X52531250Y-92218750D02*
X52387500Y-92075000D01*
X53443750Y-107687500D02*
X51518750Y-107687500D01*
X53975000Y-107156250D02*
X53443750Y-107687500D01*
X72550000Y-103043750D02*
X72375000Y-103218750D01*
X75406250Y-103043750D02*
X72550000Y-103043750D01*
G36*
X45686487Y-72233889D02*
G01*
X45665000Y-72452050D01*
X45665000Y-73597949D01*
X45686487Y-73816110D01*
X45771401Y-74096033D01*
X45909294Y-74354013D01*
X46094866Y-74580134D01*
X46320986Y-74765706D01*
X46578966Y-74903599D01*
X46858889Y-74988513D01*
X47150000Y-75017185D01*
X47441110Y-74988513D01*
X47721033Y-74903599D01*
X47979013Y-74765706D01*
X48205134Y-74580134D01*
X48390706Y-74354014D01*
X48528599Y-74096034D01*
X48613513Y-73816111D01*
X48635000Y-73597950D01*
X48635000Y-72452050D01*
X48613513Y-72233889D01*
X48572140Y-72097500D01*
X53027860Y-72097500D01*
X52986487Y-72233889D01*
X52965000Y-72452050D01*
X52965000Y-73597949D01*
X52986487Y-73816110D01*
X53071401Y-74096033D01*
X53209294Y-74354013D01*
X53394866Y-74580134D01*
X53620986Y-74765706D01*
X53878966Y-74903599D01*
X54158889Y-74988513D01*
X54450000Y-75017185D01*
X54741110Y-74988513D01*
X55021033Y-74903599D01*
X55279013Y-74765706D01*
X55505134Y-74580134D01*
X55690706Y-74354014D01*
X55828599Y-74096034D01*
X55913513Y-73816111D01*
X55935000Y-73597950D01*
X55935000Y-72452050D01*
X55913513Y-72233889D01*
X55872140Y-72097500D01*
X77660500Y-72097500D01*
X77660500Y-96040539D01*
X77653524Y-96033563D01*
X77484006Y-95920295D01*
X77295648Y-95842274D01*
X77095689Y-95802500D01*
X76982433Y-95802500D01*
X76744322Y-95564389D01*
X76744322Y-95150000D01*
X76727378Y-94977965D01*
X76677197Y-94812541D01*
X76595708Y-94660086D01*
X76486042Y-94526458D01*
X76479686Y-94521242D01*
X76557435Y-94457435D01*
X76636787Y-94360744D01*
X76695752Y-94250430D01*
X76732062Y-94130732D01*
X76744322Y-94006250D01*
X76741250Y-93804500D01*
X76582500Y-93645750D01*
X75533250Y-93645750D01*
X75533250Y-93665750D01*
X75279250Y-93665750D01*
X75279250Y-93645750D01*
X74230000Y-93645750D01*
X74071250Y-93804500D01*
X74068178Y-94006250D01*
X74080438Y-94130732D01*
X74116748Y-94250430D01*
X74175713Y-94360744D01*
X74255065Y-94457435D01*
X74332814Y-94521242D01*
X74326458Y-94526458D01*
X74216792Y-94660086D01*
X74135303Y-94812541D01*
X74085122Y-94977965D01*
X74068178Y-95150000D01*
X74068178Y-95193250D01*
X73760000Y-95193250D01*
X73760000Y-95091748D01*
X73601252Y-95091748D01*
X73760000Y-94933000D01*
X73750177Y-94816119D01*
X73713265Y-94696605D01*
X73653746Y-94586589D01*
X73573908Y-94490299D01*
X73476818Y-94411434D01*
X73366208Y-94353026D01*
X73246329Y-94317320D01*
X73121787Y-94305686D01*
X72660750Y-94308750D01*
X72502000Y-94467500D01*
X72502000Y-95091750D01*
X72522000Y-95091750D01*
X72522000Y-95105678D01*
X71625000Y-95105678D01*
X71500518Y-95117938D01*
X71380820Y-95154248D01*
X71270506Y-95213213D01*
X71173815Y-95292565D01*
X71094463Y-95389256D01*
X71082083Y-95412417D01*
X70990000Y-95504500D01*
X70999546Y-95618087D01*
X70999188Y-95619268D01*
X70986928Y-95743750D01*
X70986928Y-96293750D01*
X70999188Y-96418232D01*
X70999345Y-96418750D01*
X70999188Y-96419268D01*
X70986928Y-96543750D01*
X70986928Y-97093750D01*
X70999188Y-97218232D01*
X70999345Y-97218750D01*
X70999188Y-97219268D01*
X70986928Y-97343750D01*
X70986928Y-97893750D01*
X70999188Y-98018232D01*
X70999345Y-98018750D01*
X70999188Y-98019268D01*
X70986928Y-98143750D01*
X70986928Y-98693750D01*
X70999188Y-98818232D01*
X70999345Y-98818750D01*
X70999188Y-98819268D01*
X70986928Y-98943750D01*
X70986928Y-99493750D01*
X70999188Y-99618232D01*
X70999345Y-99618750D01*
X70999188Y-99619268D01*
X70986928Y-99743750D01*
X70986928Y-100293750D01*
X70999188Y-100418232D01*
X70999345Y-100418750D01*
X70999188Y-100419268D01*
X70986928Y-100543750D01*
X70986928Y-101093750D01*
X70999188Y-101218232D01*
X70999345Y-101218750D01*
X70999188Y-101219268D01*
X70986928Y-101343750D01*
X70986928Y-101893750D01*
X70999188Y-102018232D01*
X70999345Y-102018750D01*
X70999188Y-102019268D01*
X70986928Y-102143750D01*
X70986928Y-102693750D01*
X70999188Y-102818232D01*
X70999345Y-102818750D01*
X70999188Y-102819268D01*
X70986928Y-102943750D01*
X70986928Y-103493750D01*
X70990962Y-103534712D01*
X70950000Y-103530678D01*
X70400000Y-103530678D01*
X70275518Y-103542938D01*
X70274337Y-103543296D01*
X70160750Y-103533750D01*
X70068667Y-103625833D01*
X70045506Y-103638213D01*
X69948815Y-103717565D01*
X69875000Y-103807509D01*
X69801185Y-103717565D01*
X69704494Y-103638213D01*
X69681333Y-103625833D01*
X69589250Y-103533750D01*
X69475663Y-103543296D01*
X69474482Y-103542938D01*
X69350000Y-103530678D01*
X68800000Y-103530678D01*
X68675518Y-103542938D01*
X68675000Y-103543095D01*
X68674482Y-103542938D01*
X68550000Y-103530678D01*
X68000000Y-103530678D01*
X67875518Y-103542938D01*
X67875000Y-103543095D01*
X67874482Y-103542938D01*
X67750000Y-103530678D01*
X67200000Y-103530678D01*
X67075518Y-103542938D01*
X67075000Y-103543095D01*
X67074482Y-103542938D01*
X66950000Y-103530678D01*
X66400000Y-103530678D01*
X66275518Y-103542938D01*
X66275000Y-103543095D01*
X66274482Y-103542938D01*
X66150000Y-103530678D01*
X65600000Y-103530678D01*
X65475518Y-103542938D01*
X65475000Y-103543095D01*
X65474482Y-103542938D01*
X65350000Y-103530678D01*
X64800000Y-103530678D01*
X64675518Y-103542938D01*
X64675000Y-103543095D01*
X64674482Y-103542938D01*
X64550000Y-103530678D01*
X64000000Y-103530678D01*
X63875518Y-103542938D01*
X63874337Y-103543296D01*
X63760750Y-103533750D01*
X63668667Y-103625833D01*
X63645506Y-103638213D01*
X63548815Y-103717565D01*
X63475000Y-103807509D01*
X63401185Y-103717565D01*
X63304494Y-103638213D01*
X63281333Y-103625833D01*
X63189250Y-103533750D01*
X63075663Y-103543296D01*
X63074482Y-103542938D01*
X62950000Y-103530678D01*
X62400000Y-103530678D01*
X62359038Y-103534712D01*
X62363072Y-103493750D01*
X62363072Y-102943750D01*
X62350812Y-102819268D01*
X62350655Y-102818750D01*
X62350812Y-102818232D01*
X62363072Y-102693750D01*
X62363072Y-102143750D01*
X62350812Y-102019268D01*
X62350655Y-102018750D01*
X62350812Y-102018232D01*
X62363072Y-101893750D01*
X62363072Y-101343750D01*
X62350812Y-101219268D01*
X62350655Y-101218750D01*
X62350812Y-101218232D01*
X62363072Y-101093750D01*
X62363072Y-100543750D01*
X62350812Y-100419268D01*
X62350454Y-100418087D01*
X62360000Y-100304500D01*
X62267917Y-100212417D01*
X62255537Y-100189256D01*
X62176185Y-100092565D01*
X62086241Y-100018750D01*
X62176185Y-99944935D01*
X62255537Y-99848244D01*
X62267917Y-99825083D01*
X62360000Y-99733000D01*
X62350454Y-99619413D01*
X62350812Y-99618232D01*
X62363072Y-99493750D01*
X62363072Y-98943750D01*
X62350812Y-98819268D01*
X62350655Y-98818750D01*
X62350812Y-98818232D01*
X62363072Y-98693750D01*
X62363072Y-98143750D01*
X62350812Y-98019268D01*
X62350655Y-98018750D01*
X62350812Y-98018232D01*
X62363072Y-97893750D01*
X62363072Y-97343750D01*
X62350812Y-97219268D01*
X62350655Y-97218750D01*
X62350812Y-97218232D01*
X62363072Y-97093750D01*
X62363072Y-96543750D01*
X62350812Y-96419268D01*
X62350655Y-96418750D01*
X62350812Y-96418232D01*
X62363072Y-96293750D01*
X62363072Y-95743750D01*
X62350812Y-95619268D01*
X62350655Y-95618750D01*
X62350812Y-95618232D01*
X62363072Y-95493750D01*
X62363072Y-94943750D01*
X62359038Y-94902788D01*
X62400000Y-94906822D01*
X62950000Y-94906822D01*
X63074482Y-94894562D01*
X63075000Y-94894405D01*
X63075518Y-94894562D01*
X63200000Y-94906822D01*
X63750000Y-94906822D01*
X63874482Y-94894562D01*
X63875000Y-94894405D01*
X63875518Y-94894562D01*
X64000000Y-94906822D01*
X64550000Y-94906822D01*
X64674482Y-94894562D01*
X64675663Y-94894204D01*
X64789250Y-94903750D01*
X64881333Y-94811667D01*
X64904494Y-94799287D01*
X65001185Y-94719935D01*
X65075000Y-94629991D01*
X65148815Y-94719935D01*
X65245506Y-94799287D01*
X65268667Y-94811667D01*
X65360750Y-94903750D01*
X65474337Y-94894204D01*
X65475518Y-94894562D01*
X65600000Y-94906822D01*
X66150000Y-94906822D01*
X66274482Y-94894562D01*
X66275000Y-94894405D01*
X66275518Y-94894562D01*
X66400000Y-94906822D01*
X66950000Y-94906822D01*
X67074482Y-94894562D01*
X67075000Y-94894405D01*
X67075518Y-94894562D01*
X67200000Y-94906822D01*
X67750000Y-94906822D01*
X67874482Y-94894562D01*
X67875000Y-94894405D01*
X67875518Y-94894562D01*
X68000000Y-94906822D01*
X68550000Y-94906822D01*
X68674482Y-94894562D01*
X68675000Y-94894405D01*
X68675518Y-94894562D01*
X68800000Y-94906822D01*
X69350000Y-94906822D01*
X69474482Y-94894562D01*
X69475000Y-94894405D01*
X69475518Y-94894562D01*
X69600000Y-94906822D01*
X70150000Y-94906822D01*
X70274482Y-94894562D01*
X70275000Y-94894405D01*
X70275518Y-94894562D01*
X70400000Y-94906822D01*
X70950000Y-94906822D01*
X70992552Y-94902631D01*
X70990000Y-94933000D01*
X71148750Y-95091750D01*
X72248000Y-95091750D01*
X72248000Y-94467500D01*
X72089250Y-94308750D01*
X71628213Y-94305686D01*
X71584028Y-94309814D01*
X71588072Y-94268750D01*
X71588072Y-93031250D01*
X74068178Y-93031250D01*
X74071250Y-93233000D01*
X74230000Y-93391750D01*
X75279250Y-93391750D01*
X75279250Y-92555000D01*
X75533250Y-92555000D01*
X75533250Y-93391750D01*
X76582500Y-93391750D01*
X76741250Y-93233000D01*
X76744322Y-93031250D01*
X76732062Y-92906768D01*
X76695752Y-92787070D01*
X76636787Y-92676756D01*
X76557435Y-92580065D01*
X76460744Y-92500713D01*
X76350430Y-92441748D01*
X76230732Y-92405438D01*
X76106250Y-92393178D01*
X75692000Y-92396250D01*
X75533250Y-92555000D01*
X75279250Y-92555000D01*
X75120500Y-92396250D01*
X74706250Y-92393178D01*
X74581768Y-92405438D01*
X74462070Y-92441748D01*
X74351756Y-92500713D01*
X74255065Y-92580065D01*
X74175713Y-92676756D01*
X74116748Y-92787070D01*
X74080438Y-92906768D01*
X74068178Y-93031250D01*
X71588072Y-93031250D01*
X71588072Y-92768750D01*
X71575812Y-92644268D01*
X71539502Y-92524570D01*
X71480537Y-92414256D01*
X71401185Y-92317565D01*
X71304494Y-92238213D01*
X71194180Y-92179248D01*
X71074482Y-92142938D01*
X70950000Y-92130678D01*
X70400000Y-92130678D01*
X70275518Y-92142938D01*
X70275000Y-92143095D01*
X70274482Y-92142938D01*
X70150000Y-92130678D01*
X69600000Y-92130678D01*
X69475518Y-92142938D01*
X69475000Y-92143095D01*
X69474482Y-92142938D01*
X69350000Y-92130678D01*
X68800000Y-92130678D01*
X68675518Y-92142938D01*
X68675000Y-92143095D01*
X68674482Y-92142938D01*
X68550000Y-92130678D01*
X68000000Y-92130678D01*
X67875518Y-92142938D01*
X67875000Y-92143095D01*
X67874482Y-92142938D01*
X67750000Y-92130678D01*
X67437000Y-92130678D01*
X67437000Y-91382130D01*
X69431096Y-89388034D01*
X69460172Y-89364172D01*
X69540126Y-89266748D01*
X69555395Y-89248143D01*
X69577481Y-89206822D01*
X69968750Y-89206822D01*
X70093232Y-89194562D01*
X70212930Y-89158252D01*
X70323244Y-89099287D01*
X70419935Y-89019935D01*
X70499287Y-88923244D01*
X70558252Y-88812930D01*
X70594562Y-88693232D01*
X70606822Y-88568750D01*
X70606822Y-88430750D01*
X72075841Y-88430750D01*
X72078836Y-88433208D01*
X72231291Y-88514697D01*
X72396715Y-88564878D01*
X72568750Y-88581822D01*
X73481250Y-88581822D01*
X73653285Y-88564878D01*
X73818709Y-88514697D01*
X73971164Y-88433208D01*
X74104792Y-88323542D01*
X74214458Y-88189914D01*
X74295947Y-88037459D01*
X74346128Y-87872035D01*
X74363072Y-87700000D01*
X74363072Y-87212500D01*
X74346128Y-87040465D01*
X74295947Y-86875041D01*
X74214458Y-86722586D01*
X74104792Y-86588958D01*
X74098436Y-86583742D01*
X74176185Y-86519935D01*
X74255537Y-86423244D01*
X74314502Y-86312930D01*
X74350812Y-86193232D01*
X74363072Y-86068750D01*
X74360000Y-85867000D01*
X74201250Y-85708250D01*
X73152000Y-85708250D01*
X73152000Y-85728250D01*
X72898000Y-85728250D01*
X72898000Y-85708250D01*
X71848750Y-85708250D01*
X71690000Y-85867000D01*
X71686928Y-86068750D01*
X71699188Y-86193232D01*
X71735498Y-86312930D01*
X71794463Y-86423244D01*
X71873815Y-86519935D01*
X71951564Y-86583742D01*
X71945208Y-86588958D01*
X71835542Y-86722586D01*
X71754053Y-86875041D01*
X71744434Y-86906750D01*
X70606822Y-86906750D01*
X70606822Y-86768750D01*
X70594562Y-86644268D01*
X70558252Y-86524570D01*
X70555141Y-86518750D01*
X70558252Y-86512930D01*
X70594562Y-86393232D01*
X70606822Y-86268750D01*
X70603750Y-85654500D01*
X70445000Y-85495750D01*
X69045750Y-85495750D01*
X69045750Y-85515750D01*
X68791750Y-85515750D01*
X68791750Y-85495750D01*
X68771750Y-85495750D01*
X68771750Y-85241750D01*
X68791750Y-85241750D01*
X68791750Y-83992500D01*
X69045750Y-83992500D01*
X69045750Y-85241750D01*
X70445000Y-85241750D01*
X70593000Y-85093750D01*
X71686928Y-85093750D01*
X71690000Y-85295500D01*
X71848750Y-85454250D01*
X72898000Y-85454250D01*
X72898000Y-84617500D01*
X73152000Y-84617500D01*
X73152000Y-85454250D01*
X74201250Y-85454250D01*
X74360000Y-85295500D01*
X74363072Y-85093750D01*
X74350812Y-84969268D01*
X74314502Y-84849570D01*
X74255537Y-84739256D01*
X74176185Y-84642565D01*
X74079494Y-84563213D01*
X73969180Y-84504248D01*
X73849482Y-84467938D01*
X73725000Y-84455678D01*
X73310750Y-84458750D01*
X73152000Y-84617500D01*
X72898000Y-84617500D01*
X72739250Y-84458750D01*
X72325000Y-84455678D01*
X72200518Y-84467938D01*
X72080820Y-84504248D01*
X71970506Y-84563213D01*
X71873815Y-84642565D01*
X71794463Y-84739256D01*
X71735498Y-84849570D01*
X71699188Y-84969268D01*
X71686928Y-85093750D01*
X70593000Y-85093750D01*
X70603750Y-85083000D01*
X70606822Y-84468750D01*
X70594562Y-84344268D01*
X70558252Y-84224570D01*
X70499287Y-84114256D01*
X70419935Y-84017565D01*
X70323244Y-83938213D01*
X70212930Y-83879248D01*
X70093232Y-83842938D01*
X69968750Y-83830678D01*
X69204500Y-83833750D01*
X69045750Y-83992500D01*
X68791750Y-83992500D01*
X68633000Y-83833750D01*
X67868750Y-83830678D01*
X67744268Y-83842938D01*
X67624570Y-83879248D01*
X67514256Y-83938213D01*
X67468750Y-83975559D01*
X67423244Y-83938213D01*
X67312930Y-83879248D01*
X67193232Y-83842938D01*
X67068750Y-83830678D01*
X64968750Y-83830678D01*
X64844268Y-83842938D01*
X64724570Y-83879248D01*
X64614256Y-83938213D01*
X64517565Y-84017565D01*
X64438213Y-84114256D01*
X64379248Y-84224570D01*
X64342938Y-84344268D01*
X64330678Y-84468750D01*
X64330678Y-84819250D01*
X63872453Y-84819250D01*
X63786042Y-84713958D01*
X63652414Y-84604292D01*
X63499959Y-84522803D01*
X63334535Y-84472622D01*
X63162500Y-84455678D01*
X62250000Y-84455678D01*
X62077965Y-84472622D01*
X61912541Y-84522803D01*
X61760086Y-84604292D01*
X61626458Y-84713958D01*
X61516792Y-84847586D01*
X61435303Y-85000041D01*
X61385122Y-85165465D01*
X61368178Y-85337500D01*
X61368178Y-85825000D01*
X61385122Y-85997035D01*
X61435303Y-86162459D01*
X61516792Y-86314914D01*
X61626458Y-86448542D01*
X61632814Y-86453758D01*
X61555065Y-86517565D01*
X61475713Y-86614256D01*
X61416748Y-86724570D01*
X61380438Y-86844268D01*
X61368178Y-86968750D01*
X61371250Y-87170500D01*
X61530000Y-87329250D01*
X62579250Y-87329250D01*
X62579250Y-87309250D01*
X62833250Y-87309250D01*
X62833250Y-87329250D01*
X62853250Y-87329250D01*
X62853250Y-87583250D01*
X62833250Y-87583250D01*
X62833250Y-88420000D01*
X62992000Y-88578750D01*
X63406250Y-88581822D01*
X63530732Y-88569562D01*
X63531750Y-88569253D01*
X63531750Y-88862576D01*
X63528064Y-88900000D01*
X63531750Y-88937423D01*
X63531750Y-88937425D01*
X63542776Y-89049377D01*
X63586348Y-89193014D01*
X63606352Y-89230438D01*
X63657105Y-89325392D01*
X63696733Y-89373678D01*
X63752328Y-89441422D01*
X63781404Y-89465284D01*
X65113001Y-90796882D01*
X65113000Y-92361205D01*
X65103071Y-92373304D01*
X65097806Y-92319842D01*
X65088556Y-92225924D01*
X65041353Y-92070316D01*
X64964699Y-91926908D01*
X64861541Y-91801209D01*
X64830035Y-91775353D01*
X64718398Y-91663716D01*
X64692541Y-91632209D01*
X64566842Y-91529051D01*
X64423434Y-91452397D01*
X64267826Y-91405194D01*
X64264410Y-91404858D01*
X63967029Y-91107478D01*
X63941173Y-91075972D01*
X63815474Y-90972814D01*
X63672066Y-90896160D01*
X63516458Y-90848957D01*
X63395185Y-90837013D01*
X63395182Y-90837013D01*
X63354632Y-90833019D01*
X63314082Y-90837013D01*
X59281254Y-90837013D01*
X59281822Y-90831250D01*
X59278750Y-90629500D01*
X59120000Y-90470750D01*
X58070750Y-90470750D01*
X58070750Y-90490750D01*
X57816750Y-90490750D01*
X57816750Y-90470750D01*
X57796750Y-90470750D01*
X57796750Y-90216750D01*
X57816750Y-90216750D01*
X57816750Y-89380000D01*
X58070750Y-89380000D01*
X58070750Y-90216750D01*
X59120000Y-90216750D01*
X59278750Y-90058000D01*
X59281822Y-89856250D01*
X59269562Y-89731768D01*
X59233252Y-89612070D01*
X59174287Y-89501756D01*
X59094935Y-89405065D01*
X58998244Y-89325713D01*
X58887930Y-89266748D01*
X58768232Y-89230438D01*
X58643750Y-89218178D01*
X58229500Y-89221250D01*
X58070750Y-89380000D01*
X57816750Y-89380000D01*
X57658000Y-89221250D01*
X57243750Y-89218178D01*
X57119268Y-89230438D01*
X56999570Y-89266748D01*
X56889256Y-89325713D01*
X56792565Y-89405065D01*
X56713213Y-89501756D01*
X56654248Y-89612070D01*
X56617938Y-89731768D01*
X56605678Y-89856250D01*
X56608750Y-90058000D01*
X56767498Y-90216748D01*
X56608750Y-90216748D01*
X56608750Y-90276198D01*
X56496254Y-90253822D01*
X56054817Y-89812385D01*
X56039697Y-89762541D01*
X55958208Y-89610086D01*
X55848542Y-89476458D01*
X55714914Y-89366792D01*
X55562459Y-89285303D01*
X55397035Y-89235122D01*
X55225000Y-89218178D01*
X54312500Y-89218178D01*
X54140465Y-89235122D01*
X53975041Y-89285303D01*
X53822586Y-89366792D01*
X53688958Y-89476458D01*
X53579292Y-89610086D01*
X53497803Y-89762541D01*
X53447622Y-89927965D01*
X53430678Y-90100000D01*
X53430678Y-90587500D01*
X53447622Y-90759535D01*
X53497803Y-90924959D01*
X53579292Y-91077414D01*
X53688958Y-91211042D01*
X53774506Y-91281250D01*
X53688958Y-91351458D01*
X53602547Y-91456750D01*
X53219182Y-91456750D01*
X53191437Y-91415226D01*
X53047274Y-91271063D01*
X52877756Y-91157795D01*
X52689398Y-91079774D01*
X52489439Y-91040000D01*
X52285561Y-91040000D01*
X52085602Y-91079774D01*
X51897244Y-91157795D01*
X51727726Y-91271063D01*
X51705750Y-91293039D01*
X51705750Y-87943750D01*
X61368178Y-87943750D01*
X61380438Y-88068232D01*
X61416748Y-88187930D01*
X61475713Y-88298244D01*
X61555065Y-88394935D01*
X61651756Y-88474287D01*
X61762070Y-88533252D01*
X61881768Y-88569562D01*
X62006250Y-88581822D01*
X62420500Y-88578750D01*
X62579250Y-88420000D01*
X62579250Y-87583250D01*
X61530000Y-87583250D01*
X61371250Y-87742000D01*
X61368178Y-87943750D01*
X51705750Y-87943750D01*
X51705750Y-86040630D01*
X52339559Y-85406822D01*
X52843750Y-85406822D01*
X53015785Y-85389878D01*
X53181209Y-85339697D01*
X53333664Y-85258208D01*
X53467292Y-85148542D01*
X53576958Y-85014914D01*
X53658447Y-84862459D01*
X53708628Y-84697035D01*
X53725572Y-84525000D01*
X53725572Y-84037500D01*
X53708628Y-83865465D01*
X53658447Y-83700041D01*
X53576958Y-83547586D01*
X53467292Y-83413958D01*
X53381744Y-83343750D01*
X53467292Y-83273542D01*
X53576958Y-83139914D01*
X53658447Y-82987459D01*
X53708628Y-82822035D01*
X53725572Y-82650000D01*
X53725572Y-82162500D01*
X53708628Y-81990465D01*
X53658447Y-81825041D01*
X53576958Y-81672586D01*
X53467292Y-81538958D01*
X53333664Y-81429292D01*
X53181209Y-81347803D01*
X53015785Y-81297622D01*
X52843750Y-81280678D01*
X52339559Y-81280678D01*
X51562000Y-80503120D01*
X51562000Y-79288072D01*
X51850000Y-79288072D01*
X51974482Y-79275812D01*
X52000000Y-79268071D01*
X52025518Y-79275812D01*
X52150000Y-79288072D01*
X52650000Y-79288072D01*
X52774482Y-79275812D01*
X52894180Y-79239502D01*
X53004494Y-79180537D01*
X53101185Y-79101185D01*
X53180537Y-79004494D01*
X53239502Y-78894180D01*
X53240246Y-78891728D01*
X53394866Y-79080134D01*
X53620986Y-79265706D01*
X53878966Y-79403599D01*
X54158889Y-79488513D01*
X54450000Y-79517185D01*
X54741110Y-79488513D01*
X55021033Y-79403599D01*
X55279013Y-79265706D01*
X55505134Y-79080134D01*
X55690706Y-78854014D01*
X55828599Y-78596034D01*
X55913513Y-78316111D01*
X55935000Y-78097950D01*
X55935000Y-76952050D01*
X55913513Y-76733889D01*
X55828599Y-76453966D01*
X55690706Y-76195986D01*
X55505134Y-75969866D01*
X55279014Y-75784294D01*
X55021034Y-75646401D01*
X54741111Y-75561487D01*
X54450000Y-75532815D01*
X54158890Y-75561487D01*
X53878967Y-75646401D01*
X53620987Y-75784294D01*
X53394867Y-75969866D01*
X53240246Y-76158272D01*
X53239502Y-76155820D01*
X53180537Y-76045506D01*
X53101185Y-75948815D01*
X53004494Y-75869463D01*
X52894180Y-75810498D01*
X52774482Y-75774188D01*
X52650000Y-75761928D01*
X52150000Y-75761928D01*
X52025518Y-75774188D01*
X52000000Y-75781929D01*
X51974482Y-75774188D01*
X51850000Y-75761928D01*
X51350000Y-75761928D01*
X51225518Y-75774188D01*
X51200000Y-75781929D01*
X51174482Y-75774188D01*
X51050000Y-75761928D01*
X50550000Y-75761928D01*
X50425518Y-75774188D01*
X50400000Y-75781929D01*
X50374482Y-75774188D01*
X50250000Y-75761928D01*
X49750000Y-75761928D01*
X49625518Y-75774188D01*
X49600000Y-75781929D01*
X49574482Y-75774188D01*
X49450000Y-75761928D01*
X48950000Y-75761928D01*
X48825518Y-75774188D01*
X48705820Y-75810498D01*
X48595506Y-75869463D01*
X48498815Y-75948815D01*
X48419463Y-76045506D01*
X48360498Y-76155820D01*
X48359754Y-76158271D01*
X48205134Y-75969866D01*
X47979014Y-75784294D01*
X47721034Y-75646401D01*
X47441111Y-75561487D01*
X47150000Y-75532815D01*
X46858890Y-75561487D01*
X46578967Y-75646401D01*
X46320987Y-75784294D01*
X46094867Y-75969866D01*
X45909294Y-76195986D01*
X45771401Y-76453966D01*
X45686487Y-76733889D01*
X45665000Y-76952050D01*
X45665000Y-78097949D01*
X45686487Y-78316110D01*
X45771401Y-78596033D01*
X45909294Y-78854013D01*
X46094866Y-79080134D01*
X46320986Y-79265706D01*
X46578966Y-79403599D01*
X46858889Y-79488513D01*
X47150000Y-79517185D01*
X47441110Y-79488513D01*
X47721033Y-79403599D01*
X47979013Y-79265706D01*
X48205134Y-79080134D01*
X48359754Y-78891729D01*
X48360498Y-78894180D01*
X48374501Y-78920377D01*
X48374500Y-79839317D01*
X48076818Y-80137000D01*
X46078050Y-80137000D01*
X46037499Y-80133006D01*
X45996949Y-80137000D01*
X45996947Y-80137000D01*
X45875674Y-80148944D01*
X45745750Y-80188356D01*
X45720066Y-80196147D01*
X45576657Y-80272801D01*
X45515096Y-80323323D01*
X45450959Y-80375959D01*
X45425108Y-80407459D01*
X43894961Y-81937607D01*
X43863460Y-81963459D01*
X43837609Y-81994959D01*
X43760301Y-82089158D01*
X43683647Y-82232567D01*
X43636445Y-82388174D01*
X43620506Y-82550000D01*
X43624501Y-82590560D01*
X43624500Y-88643507D01*
X43485150Y-88685778D01*
X43331614Y-88767845D01*
X43197038Y-88878288D01*
X43086595Y-89012864D01*
X43004528Y-89166400D01*
X42953992Y-89332996D01*
X42936928Y-89506250D01*
X42936928Y-90256250D01*
X42953992Y-90429504D01*
X43004528Y-90596100D01*
X43086595Y-90749636D01*
X43197038Y-90884212D01*
X43331614Y-90994655D01*
X43485150Y-91076722D01*
X43651746Y-91127258D01*
X43825000Y-91144322D01*
X45075000Y-91144322D01*
X45248254Y-91127258D01*
X45414850Y-91076722D01*
X45568386Y-90994655D01*
X45702962Y-90884212D01*
X45813405Y-90749636D01*
X45895472Y-90596100D01*
X45946008Y-90429504D01*
X45963072Y-90256250D01*
X45963072Y-89506250D01*
X45950326Y-89376835D01*
X45959265Y-89347366D01*
X45975204Y-89185540D01*
X45959265Y-89023714D01*
X45912063Y-88868106D01*
X45835409Y-88724697D01*
X45732251Y-88598999D01*
X45606553Y-88495841D01*
X45463144Y-88419187D01*
X45307536Y-88371985D01*
X45275500Y-88368830D01*
X45275500Y-82891932D01*
X46379433Y-81788000D01*
X47167602Y-81788000D01*
X47147803Y-81825041D01*
X47097622Y-81990465D01*
X47080678Y-82162500D01*
X47080678Y-82650000D01*
X47097622Y-82822035D01*
X47147803Y-82987459D01*
X47229292Y-83139914D01*
X47338958Y-83273542D01*
X47424506Y-83343750D01*
X47338958Y-83413958D01*
X47229292Y-83547586D01*
X47147803Y-83700041D01*
X47097622Y-83865465D01*
X47080678Y-84037500D01*
X47080678Y-84525000D01*
X47097622Y-84697035D01*
X47147803Y-84862459D01*
X47229292Y-85014914D01*
X47338958Y-85148542D01*
X47472586Y-85258208D01*
X47625041Y-85339697D01*
X47790465Y-85389878D01*
X47962500Y-85406822D01*
X48466692Y-85406822D01*
X49100500Y-86040631D01*
X49100501Y-103006317D01*
X49096814Y-103043750D01*
X49111527Y-103193128D01*
X49155099Y-103336765D01*
X49225855Y-103469142D01*
X49297221Y-103556101D01*
X49321079Y-103585172D01*
X49350149Y-103609029D01*
X49440966Y-103699846D01*
X49464828Y-103728922D01*
X49580858Y-103824145D01*
X49713235Y-103894902D01*
X49856872Y-103938474D01*
X49968824Y-103949500D01*
X49968826Y-103949500D01*
X50006249Y-103953186D01*
X50043672Y-103949500D01*
X57906327Y-103949500D01*
X57912000Y-103950059D01*
X57912001Y-104743250D01*
X47966933Y-104743250D01*
X45275500Y-102051818D01*
X45275500Y-93918993D01*
X45414850Y-93876722D01*
X45568386Y-93794655D01*
X45702962Y-93684212D01*
X45813405Y-93549636D01*
X45895472Y-93396100D01*
X45946008Y-93229504D01*
X45963072Y-93056250D01*
X45963072Y-92306250D01*
X45946008Y-92132996D01*
X45895472Y-91966400D01*
X45813405Y-91812864D01*
X45702962Y-91678288D01*
X45568386Y-91567845D01*
X45414850Y-91485778D01*
X45248254Y-91435242D01*
X45075000Y-91418178D01*
X43825000Y-91418178D01*
X43651746Y-91435242D01*
X43485150Y-91485778D01*
X43331614Y-91567845D01*
X43197038Y-91678288D01*
X43086595Y-91812864D01*
X43004528Y-91966400D01*
X42953992Y-92132996D01*
X42936928Y-92306250D01*
X42936928Y-93056250D01*
X42953992Y-93229504D01*
X43004528Y-93396100D01*
X43086595Y-93549636D01*
X43197038Y-93684212D01*
X43331614Y-93794655D01*
X43485150Y-93876722D01*
X43624500Y-93918993D01*
X43624501Y-102353190D01*
X43620506Y-102393750D01*
X43636445Y-102555576D01*
X43683647Y-102711183D01*
X43760301Y-102854592D01*
X43786607Y-102886645D01*
X43863460Y-102980291D01*
X43894961Y-103006143D01*
X47012606Y-106123789D01*
X47038459Y-106155291D01*
X47093759Y-106200674D01*
X47164157Y-106258449D01*
X47307566Y-106335103D01*
X47463174Y-106382306D01*
X47584447Y-106394250D01*
X47584449Y-106394250D01*
X47624999Y-106398244D01*
X47665550Y-106394250D01*
X53273289Y-106394250D01*
X53171063Y-106496476D01*
X53057795Y-106665994D01*
X52983113Y-106846290D01*
X52949287Y-106783006D01*
X52869935Y-106686315D01*
X52773244Y-106606963D01*
X52662930Y-106547998D01*
X52543232Y-106511688D01*
X52418750Y-106499428D01*
X50618750Y-106499428D01*
X50494268Y-106511688D01*
X50374570Y-106547998D01*
X50264256Y-106606963D01*
X50167565Y-106686315D01*
X50088213Y-106783006D01*
X50029248Y-106893320D01*
X49992938Y-107013018D01*
X49980678Y-107137500D01*
X49980678Y-108237500D01*
X49992938Y-108361982D01*
X50029248Y-108481680D01*
X50088213Y-108591994D01*
X50167565Y-108688685D01*
X50264256Y-108768037D01*
X50374570Y-108827002D01*
X50494268Y-108863312D01*
X50618750Y-108875572D01*
X52418750Y-108875572D01*
X52543232Y-108863312D01*
X52662930Y-108827002D01*
X52773244Y-108768037D01*
X52869935Y-108688685D01*
X52949287Y-108591994D01*
X53008252Y-108481680D01*
X53018014Y-108449500D01*
X53406327Y-108449500D01*
X53443750Y-108453186D01*
X53481173Y-108449500D01*
X53481176Y-108449500D01*
X53593128Y-108438474D01*
X53736765Y-108394902D01*
X53869142Y-108324145D01*
X53985172Y-108228922D01*
X54009033Y-108199847D01*
X54017630Y-108191250D01*
X54076939Y-108191250D01*
X54276898Y-108151476D01*
X54465256Y-108073455D01*
X54634774Y-107960187D01*
X54778937Y-107816024D01*
X54892205Y-107646506D01*
X54970226Y-107458148D01*
X55010000Y-107258189D01*
X55010000Y-107054311D01*
X54970226Y-106854352D01*
X54892205Y-106665994D01*
X54778937Y-106496476D01*
X54676711Y-106394250D01*
X57912000Y-106394250D01*
X57912001Y-107909440D01*
X57908006Y-107950000D01*
X57923945Y-108111826D01*
X57971147Y-108267433D01*
X58047801Y-108410842D01*
X58105937Y-108481680D01*
X58150960Y-108536541D01*
X58182461Y-108562393D01*
X59712606Y-110092539D01*
X59738459Y-110124041D01*
X59802596Y-110176677D01*
X59864157Y-110227199D01*
X60007566Y-110303853D01*
X60163174Y-110351056D01*
X60284447Y-110363000D01*
X60284449Y-110363000D01*
X60324999Y-110366994D01*
X60365550Y-110363000D01*
X60727296Y-110363000D01*
X60791792Y-110483664D01*
X60901458Y-110617292D01*
X61035086Y-110726958D01*
X61187541Y-110808447D01*
X61352965Y-110858628D01*
X61525000Y-110875572D01*
X62012500Y-110875572D01*
X62184535Y-110858628D01*
X62349959Y-110808447D01*
X62502414Y-110726958D01*
X62636042Y-110617292D01*
X62641258Y-110610936D01*
X62705065Y-110688685D01*
X62801756Y-110768037D01*
X62912070Y-110827002D01*
X63031768Y-110863312D01*
X63156250Y-110875572D01*
X63358000Y-110872500D01*
X63516750Y-110713750D01*
X63516750Y-109664500D01*
X63770750Y-109664500D01*
X63770750Y-110713750D01*
X63929500Y-110872500D01*
X64131250Y-110875572D01*
X64255732Y-110863312D01*
X64375430Y-110827002D01*
X64485744Y-110768037D01*
X64582435Y-110688685D01*
X64661787Y-110591994D01*
X64720752Y-110481680D01*
X64757062Y-110361982D01*
X64769322Y-110237500D01*
X70168178Y-110237500D01*
X70180438Y-110361982D01*
X70216748Y-110481680D01*
X70275713Y-110591994D01*
X70355065Y-110688685D01*
X70451756Y-110768037D01*
X70562070Y-110827002D01*
X70681768Y-110863312D01*
X70806250Y-110875572D01*
X71008000Y-110872500D01*
X71166750Y-110713750D01*
X71166750Y-109664500D01*
X70330000Y-109664500D01*
X70171250Y-109823250D01*
X70168178Y-110237500D01*
X64769322Y-110237500D01*
X64766250Y-109823250D01*
X64607500Y-109664500D01*
X63770750Y-109664500D01*
X63516750Y-109664500D01*
X63496750Y-109664500D01*
X63496750Y-109410500D01*
X63516750Y-109410500D01*
X63516750Y-108361250D01*
X63770750Y-108361250D01*
X63770750Y-109410500D01*
X64607500Y-109410500D01*
X64766250Y-109251750D01*
X64769322Y-108837500D01*
X64757062Y-108713018D01*
X64720752Y-108593320D01*
X64661787Y-108483006D01*
X64582435Y-108386315D01*
X64485744Y-108306963D01*
X64375430Y-108247998D01*
X64255732Y-108211688D01*
X64131250Y-108199428D01*
X63929500Y-108202500D01*
X63770750Y-108361250D01*
X63516750Y-108361250D01*
X63358000Y-108202500D01*
X63156250Y-108199428D01*
X63031768Y-108211688D01*
X62912070Y-108247998D01*
X62801756Y-108306963D01*
X62705065Y-108386315D01*
X62641258Y-108464064D01*
X62636042Y-108457708D01*
X62502414Y-108348042D01*
X62349959Y-108266553D01*
X62184535Y-108216372D01*
X62012500Y-108199428D01*
X61525000Y-108199428D01*
X61352965Y-108216372D01*
X61187541Y-108266553D01*
X61035086Y-108348042D01*
X60901458Y-108457708D01*
X60791792Y-108591336D01*
X60727296Y-108712000D01*
X60666933Y-108712000D01*
X59563000Y-107608068D01*
X59563000Y-107188867D01*
X59571800Y-107188000D01*
X61665700Y-107188000D01*
X61706250Y-107191994D01*
X61746800Y-107188000D01*
X61746803Y-107188000D01*
X61868076Y-107176056D01*
X62023684Y-107128853D01*
X62167092Y-107052199D01*
X62292791Y-106949041D01*
X62318648Y-106917534D01*
X62929361Y-106306822D01*
X62950000Y-106306822D01*
X63074482Y-106294562D01*
X63075663Y-106294204D01*
X63189250Y-106303750D01*
X63281333Y-106211667D01*
X63304494Y-106199287D01*
X63401185Y-106119935D01*
X63475000Y-106029991D01*
X63548815Y-106119935D01*
X63645506Y-106199287D01*
X63668667Y-106211667D01*
X63760750Y-106303750D01*
X63874337Y-106294204D01*
X63875518Y-106294562D01*
X64000000Y-106306822D01*
X64550000Y-106306822D01*
X64674482Y-106294562D01*
X64675000Y-106294405D01*
X64675518Y-106294562D01*
X64800000Y-106306822D01*
X65350000Y-106306822D01*
X65474482Y-106294562D01*
X65475000Y-106294405D01*
X65475518Y-106294562D01*
X65600000Y-106306822D01*
X66150000Y-106306822D01*
X66274482Y-106294562D01*
X66275000Y-106294405D01*
X66275518Y-106294562D01*
X66400000Y-106306822D01*
X66950000Y-106306822D01*
X67074482Y-106294562D01*
X67075000Y-106294405D01*
X67075518Y-106294562D01*
X67200000Y-106306822D01*
X67750000Y-106306822D01*
X67874482Y-106294562D01*
X67875000Y-106294405D01*
X67875518Y-106294562D01*
X68000000Y-106306822D01*
X68550000Y-106306822D01*
X68674482Y-106294562D01*
X68675000Y-106294405D01*
X68675518Y-106294562D01*
X68800000Y-106306822D01*
X69350000Y-106306822D01*
X69474482Y-106294562D01*
X69475663Y-106294204D01*
X69589250Y-106303750D01*
X69681333Y-106211667D01*
X69704494Y-106199287D01*
X69747998Y-106163584D01*
X69747998Y-106303750D01*
X69849501Y-106303750D01*
X69849501Y-107003190D01*
X69845506Y-107043750D01*
X69861445Y-107205576D01*
X69908647Y-107361183D01*
X69985301Y-107504592D01*
X70012819Y-107538122D01*
X70088460Y-107630291D01*
X70119961Y-107656143D01*
X70676963Y-108213146D01*
X70562070Y-108247998D01*
X70451756Y-108306963D01*
X70355065Y-108386315D01*
X70275713Y-108483006D01*
X70216748Y-108593320D01*
X70180438Y-108713018D01*
X70168178Y-108837500D01*
X70171250Y-109251750D01*
X70330000Y-109410500D01*
X71166750Y-109410500D01*
X71166750Y-109390500D01*
X71420750Y-109390500D01*
X71420750Y-109410500D01*
X71440750Y-109410500D01*
X71440750Y-109664500D01*
X71420750Y-109664500D01*
X71420750Y-110713750D01*
X71579500Y-110872500D01*
X71781250Y-110875572D01*
X71905732Y-110863312D01*
X72025430Y-110827002D01*
X72135744Y-110768037D01*
X72232435Y-110688685D01*
X72296242Y-110610936D01*
X72301458Y-110617292D01*
X72435086Y-110726958D01*
X72587541Y-110808447D01*
X72752965Y-110858628D01*
X72925000Y-110875572D01*
X73412500Y-110875572D01*
X73584535Y-110858628D01*
X73749959Y-110808447D01*
X73902414Y-110726958D01*
X74036042Y-110617292D01*
X74145708Y-110483664D01*
X74210204Y-110363000D01*
X74778747Y-110363000D01*
X74915994Y-110454705D01*
X75104352Y-110532726D01*
X75304311Y-110572500D01*
X75508189Y-110572500D01*
X75708148Y-110532726D01*
X75896506Y-110454705D01*
X76066024Y-110341437D01*
X76210187Y-110197274D01*
X76323455Y-110027756D01*
X76401476Y-109839398D01*
X76441250Y-109639439D01*
X76441250Y-109435561D01*
X76401476Y-109235602D01*
X76323455Y-109047244D01*
X76210187Y-108877726D01*
X76066024Y-108733563D01*
X75896506Y-108620295D01*
X75708148Y-108542274D01*
X75508189Y-108502500D01*
X75304311Y-108502500D01*
X75104352Y-108542274D01*
X74915994Y-108620295D01*
X74778747Y-108712000D01*
X74210204Y-108712000D01*
X74145708Y-108591336D01*
X74036042Y-108457708D01*
X73902414Y-108348042D01*
X73749959Y-108266553D01*
X73584535Y-108216372D01*
X73412500Y-108199428D01*
X72998111Y-108199428D01*
X71500500Y-106701818D01*
X71500500Y-105985896D01*
X71539502Y-105912930D01*
X71575812Y-105793232D01*
X71588072Y-105668750D01*
X71588072Y-105406250D01*
X74068178Y-105406250D01*
X74080438Y-105530732D01*
X74116748Y-105650430D01*
X74175713Y-105760744D01*
X74255065Y-105857435D01*
X74351756Y-105936787D01*
X74462070Y-105995752D01*
X74581768Y-106032062D01*
X74706250Y-106044322D01*
X75120500Y-106041250D01*
X75279250Y-105882500D01*
X75279250Y-105045750D01*
X75533250Y-105045750D01*
X75533250Y-105882500D01*
X75692000Y-106041250D01*
X76106250Y-106044322D01*
X76230732Y-106032062D01*
X76350430Y-105995752D01*
X76460744Y-105936787D01*
X76557435Y-105857435D01*
X76636787Y-105760744D01*
X76695752Y-105650430D01*
X76732062Y-105530732D01*
X76744322Y-105406250D01*
X76741250Y-105204500D01*
X76582500Y-105045750D01*
X75533250Y-105045750D01*
X75279250Y-105045750D01*
X74230000Y-105045750D01*
X74071250Y-105204500D01*
X74068178Y-105406250D01*
X71588072Y-105406250D01*
X71588072Y-104168750D01*
X71584038Y-104127788D01*
X71625000Y-104131822D01*
X73125000Y-104131822D01*
X73249482Y-104119562D01*
X73369180Y-104083252D01*
X73479494Y-104024287D01*
X73576185Y-103944935D01*
X73655537Y-103848244D01*
X73678251Y-103805750D01*
X74240047Y-103805750D01*
X74326458Y-103911042D01*
X74332814Y-103916258D01*
X74255065Y-103980065D01*
X74175713Y-104076756D01*
X74116748Y-104187070D01*
X74080438Y-104306768D01*
X74068178Y-104431250D01*
X74071250Y-104633000D01*
X74230000Y-104791750D01*
X75279250Y-104791750D01*
X75279250Y-104771750D01*
X75533250Y-104771750D01*
X75533250Y-104791750D01*
X76582500Y-104791750D01*
X76741250Y-104633000D01*
X76744322Y-104431250D01*
X76732062Y-104306768D01*
X76695752Y-104187070D01*
X76636787Y-104076756D01*
X76557435Y-103980065D01*
X76479686Y-103916258D01*
X76486042Y-103911042D01*
X76595708Y-103777414D01*
X76677197Y-103624959D01*
X76727378Y-103459535D01*
X76744322Y-103287500D01*
X76744322Y-102800000D01*
X76727378Y-102627965D01*
X76677197Y-102462541D01*
X76595708Y-102310086D01*
X76486042Y-102176458D01*
X76352414Y-102066792D01*
X76199959Y-101985303D01*
X76034535Y-101935122D01*
X75862500Y-101918178D01*
X74950000Y-101918178D01*
X74777965Y-101935122D01*
X74612541Y-101985303D01*
X74460086Y-102066792D01*
X74326458Y-102176458D01*
X74240047Y-102281750D01*
X73763072Y-102281750D01*
X73763072Y-102143750D01*
X73750812Y-102019268D01*
X73750655Y-102018750D01*
X73750812Y-102018232D01*
X73763072Y-101893750D01*
X73763072Y-101343750D01*
X73750812Y-101219268D01*
X73750655Y-101218750D01*
X73750812Y-101218232D01*
X73763072Y-101093750D01*
X73763072Y-100780750D01*
X77660500Y-100780750D01*
X77660500Y-115227500D01*
X42894780Y-115227500D01*
X42682962Y-115206731D01*
X42510264Y-115154591D01*
X42350982Y-115069899D01*
X42211179Y-114955878D01*
X42096194Y-114816885D01*
X42010390Y-114658195D01*
X41957045Y-114485865D01*
X41935000Y-114276119D01*
X41935000Y-111937500D01*
X43780678Y-111937500D01*
X43792938Y-112061982D01*
X43829248Y-112181680D01*
X43888213Y-112291994D01*
X43967565Y-112388685D01*
X44064256Y-112468037D01*
X44174570Y-112527002D01*
X44294268Y-112563312D01*
X44418750Y-112575572D01*
X45033000Y-112572500D01*
X45191750Y-112413750D01*
X45191750Y-111514500D01*
X45445750Y-111514500D01*
X45445750Y-112413750D01*
X45604500Y-112572500D01*
X46218750Y-112575572D01*
X46343232Y-112563312D01*
X46462930Y-112527002D01*
X46573244Y-112468037D01*
X46669935Y-112388685D01*
X46749287Y-112291994D01*
X46808252Y-112181680D01*
X46844562Y-112061982D01*
X46856822Y-111937500D01*
X46853750Y-111673250D01*
X46695000Y-111514500D01*
X45445750Y-111514500D01*
X45191750Y-111514500D01*
X43942500Y-111514500D01*
X43783750Y-111673250D01*
X43780678Y-111937500D01*
X41935000Y-111937500D01*
X41935000Y-110837500D01*
X43780678Y-110837500D01*
X43783750Y-111101750D01*
X43942500Y-111260500D01*
X45191750Y-111260500D01*
X45191750Y-110361250D01*
X45445750Y-110361250D01*
X45445750Y-111260500D01*
X46695000Y-111260500D01*
X46853750Y-111101750D01*
X46856822Y-110837500D01*
X49980678Y-110837500D01*
X49980678Y-111937500D01*
X49992938Y-112061982D01*
X50029248Y-112181680D01*
X50088213Y-112291994D01*
X50167565Y-112388685D01*
X50264256Y-112468037D01*
X50374570Y-112527002D01*
X50494268Y-112563312D01*
X50618750Y-112575572D01*
X52418750Y-112575572D01*
X52543232Y-112563312D01*
X52662930Y-112527002D01*
X52773244Y-112468037D01*
X52869935Y-112388685D01*
X52949287Y-112291994D01*
X53008252Y-112181680D01*
X53044562Y-112061982D01*
X53056822Y-111937500D01*
X53056822Y-110837500D01*
X53044562Y-110713018D01*
X53008252Y-110593320D01*
X52949287Y-110483006D01*
X52869935Y-110386315D01*
X52773244Y-110306963D01*
X52662930Y-110247998D01*
X52543232Y-110211688D01*
X52418750Y-110199428D01*
X50618750Y-110199428D01*
X50494268Y-110211688D01*
X50374570Y-110247998D01*
X50264256Y-110306963D01*
X50167565Y-110386315D01*
X50088213Y-110483006D01*
X50029248Y-110593320D01*
X49992938Y-110713018D01*
X49980678Y-110837500D01*
X46856822Y-110837500D01*
X46844562Y-110713018D01*
X46808252Y-110593320D01*
X46749287Y-110483006D01*
X46669935Y-110386315D01*
X46573244Y-110306963D01*
X46462930Y-110247998D01*
X46343232Y-110211688D01*
X46218750Y-110199428D01*
X45604500Y-110202500D01*
X45445750Y-110361250D01*
X45191750Y-110361250D01*
X45033000Y-110202500D01*
X44418750Y-110199428D01*
X44294268Y-110211688D01*
X44174570Y-110247998D01*
X44064256Y-110306963D01*
X43967565Y-110386315D01*
X43888213Y-110483006D01*
X43829248Y-110593320D01*
X43792938Y-110713018D01*
X43780678Y-110837500D01*
X41935000Y-110837500D01*
X41935000Y-107137500D01*
X43780678Y-107137500D01*
X43780678Y-108237500D01*
X43792938Y-108361982D01*
X43829248Y-108481680D01*
X43888213Y-108591994D01*
X43967565Y-108688685D01*
X44064256Y-108768037D01*
X44174570Y-108827002D01*
X44294268Y-108863312D01*
X44418750Y-108875572D01*
X46218750Y-108875572D01*
X46343232Y-108863312D01*
X46462930Y-108827002D01*
X46573244Y-108768037D01*
X46669935Y-108688685D01*
X46749287Y-108591994D01*
X46808252Y-108481680D01*
X46844562Y-108361982D01*
X46856822Y-108237500D01*
X46856822Y-107137500D01*
X46844562Y-107013018D01*
X46808252Y-106893320D01*
X46749287Y-106783006D01*
X46669935Y-106686315D01*
X46573244Y-106606963D01*
X46462930Y-106547998D01*
X46343232Y-106511688D01*
X46218750Y-106499428D01*
X44418750Y-106499428D01*
X44294268Y-106511688D01*
X44174570Y-106547998D01*
X44064256Y-106606963D01*
X43967565Y-106686315D01*
X43888213Y-106783006D01*
X43829248Y-106893320D01*
X43792938Y-107013018D01*
X43780678Y-107137500D01*
X41935000Y-107137500D01*
X41935000Y-73057279D01*
X41955769Y-72845462D01*
X42007910Y-72672763D01*
X42092602Y-72513482D01*
X42206619Y-72373681D01*
X42345617Y-72258692D01*
X42504305Y-72172890D01*
X42676635Y-72119545D01*
X42886380Y-72097500D01*
X45727860Y-72097500D01*
X45686487Y-72233889D01*
X45686487Y-72233889D01*
G37*
X45686487Y-72233889D02*
X45665000Y-72452050D01*
X45665000Y-73597949D01*
X45686487Y-73816110D01*
X45771401Y-74096033D01*
X45909294Y-74354013D01*
X46094866Y-74580134D01*
X46320986Y-74765706D01*
X46578966Y-74903599D01*
X46858889Y-74988513D01*
X47150000Y-75017185D01*
X47441110Y-74988513D01*
X47721033Y-74903599D01*
X47979013Y-74765706D01*
X48205134Y-74580134D01*
X48390706Y-74354014D01*
X48528599Y-74096034D01*
X48613513Y-73816111D01*
X48635000Y-73597950D01*
X48635000Y-72452050D01*
X48613513Y-72233889D01*
X48572140Y-72097500D01*
X53027860Y-72097500D01*
X52986487Y-72233889D01*
X52965000Y-72452050D01*
X52965000Y-73597949D01*
X52986487Y-73816110D01*
X53071401Y-74096033D01*
X53209294Y-74354013D01*
X53394866Y-74580134D01*
X53620986Y-74765706D01*
X53878966Y-74903599D01*
X54158889Y-74988513D01*
X54450000Y-75017185D01*
X54741110Y-74988513D01*
X55021033Y-74903599D01*
X55279013Y-74765706D01*
X55505134Y-74580134D01*
X55690706Y-74354014D01*
X55828599Y-74096034D01*
X55913513Y-73816111D01*
X55935000Y-73597950D01*
X55935000Y-72452050D01*
X55913513Y-72233889D01*
X55872140Y-72097500D01*
X77660500Y-72097500D01*
X77660500Y-96040539D01*
X77653524Y-96033563D01*
X77484006Y-95920295D01*
X77295648Y-95842274D01*
X77095689Y-95802500D01*
X76982433Y-95802500D01*
X76744322Y-95564389D01*
X76744322Y-95150000D01*
X76727378Y-94977965D01*
X76677197Y-94812541D01*
X76595708Y-94660086D01*
X76486042Y-94526458D01*
X76479686Y-94521242D01*
X76557435Y-94457435D01*
X76636787Y-94360744D01*
X76695752Y-94250430D01*
X76732062Y-94130732D01*
X76744322Y-94006250D01*
X76741250Y-93804500D01*
X76582500Y-93645750D01*
X75533250Y-93645750D01*
X75533250Y-93665750D01*
X75279250Y-93665750D01*
X75279250Y-93645750D01*
X74230000Y-93645750D01*
X74071250Y-93804500D01*
X74068178Y-94006250D01*
X74080438Y-94130732D01*
X74116748Y-94250430D01*
X74175713Y-94360744D01*
X74255065Y-94457435D01*
X74332814Y-94521242D01*
X74326458Y-94526458D01*
X74216792Y-94660086D01*
X74135303Y-94812541D01*
X74085122Y-94977965D01*
X74068178Y-95150000D01*
X74068178Y-95193250D01*
X73760000Y-95193250D01*
X73760000Y-95091748D01*
X73601252Y-95091748D01*
X73760000Y-94933000D01*
X73750177Y-94816119D01*
X73713265Y-94696605D01*
X73653746Y-94586589D01*
X73573908Y-94490299D01*
X73476818Y-94411434D01*
X73366208Y-94353026D01*
X73246329Y-94317320D01*
X73121787Y-94305686D01*
X72660750Y-94308750D01*
X72502000Y-94467500D01*
X72502000Y-95091750D01*
X72522000Y-95091750D01*
X72522000Y-95105678D01*
X71625000Y-95105678D01*
X71500518Y-95117938D01*
X71380820Y-95154248D01*
X71270506Y-95213213D01*
X71173815Y-95292565D01*
X71094463Y-95389256D01*
X71082083Y-95412417D01*
X70990000Y-95504500D01*
X70999546Y-95618087D01*
X70999188Y-95619268D01*
X70986928Y-95743750D01*
X70986928Y-96293750D01*
X70999188Y-96418232D01*
X70999345Y-96418750D01*
X70999188Y-96419268D01*
X70986928Y-96543750D01*
X70986928Y-97093750D01*
X70999188Y-97218232D01*
X70999345Y-97218750D01*
X70999188Y-97219268D01*
X70986928Y-97343750D01*
X70986928Y-97893750D01*
X70999188Y-98018232D01*
X70999345Y-98018750D01*
X70999188Y-98019268D01*
X70986928Y-98143750D01*
X70986928Y-98693750D01*
X70999188Y-98818232D01*
X70999345Y-98818750D01*
X70999188Y-98819268D01*
X70986928Y-98943750D01*
X70986928Y-99493750D01*
X70999188Y-99618232D01*
X70999345Y-99618750D01*
X70999188Y-99619268D01*
X70986928Y-99743750D01*
X70986928Y-100293750D01*
X70999188Y-100418232D01*
X70999345Y-100418750D01*
X70999188Y-100419268D01*
X70986928Y-100543750D01*
X70986928Y-101093750D01*
X70999188Y-101218232D01*
X70999345Y-101218750D01*
X70999188Y-101219268D01*
X70986928Y-101343750D01*
X70986928Y-101893750D01*
X70999188Y-102018232D01*
X70999345Y-102018750D01*
X70999188Y-102019268D01*
X70986928Y-102143750D01*
X70986928Y-102693750D01*
X70999188Y-102818232D01*
X70999345Y-102818750D01*
X70999188Y-102819268D01*
X70986928Y-102943750D01*
X70986928Y-103493750D01*
X70990962Y-103534712D01*
X70950000Y-103530678D01*
X70400000Y-103530678D01*
X70275518Y-103542938D01*
X70274337Y-103543296D01*
X70160750Y-103533750D01*
X70068667Y-103625833D01*
X70045506Y-103638213D01*
X69948815Y-103717565D01*
X69875000Y-103807509D01*
X69801185Y-103717565D01*
X69704494Y-103638213D01*
X69681333Y-103625833D01*
X69589250Y-103533750D01*
X69475663Y-103543296D01*
X69474482Y-103542938D01*
X69350000Y-103530678D01*
X68800000Y-103530678D01*
X68675518Y-103542938D01*
X68675000Y-103543095D01*
X68674482Y-103542938D01*
X68550000Y-103530678D01*
X68000000Y-103530678D01*
X67875518Y-103542938D01*
X67875000Y-103543095D01*
X67874482Y-103542938D01*
X67750000Y-103530678D01*
X67200000Y-103530678D01*
X67075518Y-103542938D01*
X67075000Y-103543095D01*
X67074482Y-103542938D01*
X66950000Y-103530678D01*
X66400000Y-103530678D01*
X66275518Y-103542938D01*
X66275000Y-103543095D01*
X66274482Y-103542938D01*
X66150000Y-103530678D01*
X65600000Y-103530678D01*
X65475518Y-103542938D01*
X65475000Y-103543095D01*
X65474482Y-103542938D01*
X65350000Y-103530678D01*
X64800000Y-103530678D01*
X64675518Y-103542938D01*
X64675000Y-103543095D01*
X64674482Y-103542938D01*
X64550000Y-103530678D01*
X64000000Y-103530678D01*
X63875518Y-103542938D01*
X63874337Y-103543296D01*
X63760750Y-103533750D01*
X63668667Y-103625833D01*
X63645506Y-103638213D01*
X63548815Y-103717565D01*
X63475000Y-103807509D01*
X63401185Y-103717565D01*
X63304494Y-103638213D01*
X63281333Y-103625833D01*
X63189250Y-103533750D01*
X63075663Y-103543296D01*
X63074482Y-103542938D01*
X62950000Y-103530678D01*
X62400000Y-103530678D01*
X62359038Y-103534712D01*
X62363072Y-103493750D01*
X62363072Y-102943750D01*
X62350812Y-102819268D01*
X62350655Y-102818750D01*
X62350812Y-102818232D01*
X62363072Y-102693750D01*
X62363072Y-102143750D01*
X62350812Y-102019268D01*
X62350655Y-102018750D01*
X62350812Y-102018232D01*
X62363072Y-101893750D01*
X62363072Y-101343750D01*
X62350812Y-101219268D01*
X62350655Y-101218750D01*
X62350812Y-101218232D01*
X62363072Y-101093750D01*
X62363072Y-100543750D01*
X62350812Y-100419268D01*
X62350454Y-100418087D01*
X62360000Y-100304500D01*
X62267917Y-100212417D01*
X62255537Y-100189256D01*
X62176185Y-100092565D01*
X62086241Y-100018750D01*
X62176185Y-99944935D01*
X62255537Y-99848244D01*
X62267917Y-99825083D01*
X62360000Y-99733000D01*
X62350454Y-99619413D01*
X62350812Y-99618232D01*
X62363072Y-99493750D01*
X62363072Y-98943750D01*
X62350812Y-98819268D01*
X62350655Y-98818750D01*
X62350812Y-98818232D01*
X62363072Y-98693750D01*
X62363072Y-98143750D01*
X62350812Y-98019268D01*
X62350655Y-98018750D01*
X62350812Y-98018232D01*
X62363072Y-97893750D01*
X62363072Y-97343750D01*
X62350812Y-97219268D01*
X62350655Y-97218750D01*
X62350812Y-97218232D01*
X62363072Y-97093750D01*
X62363072Y-96543750D01*
X62350812Y-96419268D01*
X62350655Y-96418750D01*
X62350812Y-96418232D01*
X62363072Y-96293750D01*
X62363072Y-95743750D01*
X62350812Y-95619268D01*
X62350655Y-95618750D01*
X62350812Y-95618232D01*
X62363072Y-95493750D01*
X62363072Y-94943750D01*
X62359038Y-94902788D01*
X62400000Y-94906822D01*
X62950000Y-94906822D01*
X63074482Y-94894562D01*
X63075000Y-94894405D01*
X63075518Y-94894562D01*
X63200000Y-94906822D01*
X63750000Y-94906822D01*
X63874482Y-94894562D01*
X63875000Y-94894405D01*
X63875518Y-94894562D01*
X64000000Y-94906822D01*
X64550000Y-94906822D01*
X64674482Y-94894562D01*
X64675663Y-94894204D01*
X64789250Y-94903750D01*
X64881333Y-94811667D01*
X64904494Y-94799287D01*
X65001185Y-94719935D01*
X65075000Y-94629991D01*
X65148815Y-94719935D01*
X65245506Y-94799287D01*
X65268667Y-94811667D01*
X65360750Y-94903750D01*
X65474337Y-94894204D01*
X65475518Y-94894562D01*
X65600000Y-94906822D01*
X66150000Y-94906822D01*
X66274482Y-94894562D01*
X66275000Y-94894405D01*
X66275518Y-94894562D01*
X66400000Y-94906822D01*
X66950000Y-94906822D01*
X67074482Y-94894562D01*
X67075000Y-94894405D01*
X67075518Y-94894562D01*
X67200000Y-94906822D01*
X67750000Y-94906822D01*
X67874482Y-94894562D01*
X67875000Y-94894405D01*
X67875518Y-94894562D01*
X68000000Y-94906822D01*
X68550000Y-94906822D01*
X68674482Y-94894562D01*
X68675000Y-94894405D01*
X68675518Y-94894562D01*
X68800000Y-94906822D01*
X69350000Y-94906822D01*
X69474482Y-94894562D01*
X69475000Y-94894405D01*
X69475518Y-94894562D01*
X69600000Y-94906822D01*
X70150000Y-94906822D01*
X70274482Y-94894562D01*
X70275000Y-94894405D01*
X70275518Y-94894562D01*
X70400000Y-94906822D01*
X70950000Y-94906822D01*
X70992552Y-94902631D01*
X70990000Y-94933000D01*
X71148750Y-95091750D01*
X72248000Y-95091750D01*
X72248000Y-94467500D01*
X72089250Y-94308750D01*
X71628213Y-94305686D01*
X71584028Y-94309814D01*
X71588072Y-94268750D01*
X71588072Y-93031250D01*
X74068178Y-93031250D01*
X74071250Y-93233000D01*
X74230000Y-93391750D01*
X75279250Y-93391750D01*
X75279250Y-92555000D01*
X75533250Y-92555000D01*
X75533250Y-93391750D01*
X76582500Y-93391750D01*
X76741250Y-93233000D01*
X76744322Y-93031250D01*
X76732062Y-92906768D01*
X76695752Y-92787070D01*
X76636787Y-92676756D01*
X76557435Y-92580065D01*
X76460744Y-92500713D01*
X76350430Y-92441748D01*
X76230732Y-92405438D01*
X76106250Y-92393178D01*
X75692000Y-92396250D01*
X75533250Y-92555000D01*
X75279250Y-92555000D01*
X75120500Y-92396250D01*
X74706250Y-92393178D01*
X74581768Y-92405438D01*
X74462070Y-92441748D01*
X74351756Y-92500713D01*
X74255065Y-92580065D01*
X74175713Y-92676756D01*
X74116748Y-92787070D01*
X74080438Y-92906768D01*
X74068178Y-93031250D01*
X71588072Y-93031250D01*
X71588072Y-92768750D01*
X71575812Y-92644268D01*
X71539502Y-92524570D01*
X71480537Y-92414256D01*
X71401185Y-92317565D01*
X71304494Y-92238213D01*
X71194180Y-92179248D01*
X71074482Y-92142938D01*
X70950000Y-92130678D01*
X70400000Y-92130678D01*
X70275518Y-92142938D01*
X70275000Y-92143095D01*
X70274482Y-92142938D01*
X70150000Y-92130678D01*
X69600000Y-92130678D01*
X69475518Y-92142938D01*
X69475000Y-92143095D01*
X69474482Y-92142938D01*
X69350000Y-92130678D01*
X68800000Y-92130678D01*
X68675518Y-92142938D01*
X68675000Y-92143095D01*
X68674482Y-92142938D01*
X68550000Y-92130678D01*
X68000000Y-92130678D01*
X67875518Y-92142938D01*
X67875000Y-92143095D01*
X67874482Y-92142938D01*
X67750000Y-92130678D01*
X67437000Y-92130678D01*
X67437000Y-91382130D01*
X69431096Y-89388034D01*
X69460172Y-89364172D01*
X69540126Y-89266748D01*
X69555395Y-89248143D01*
X69577481Y-89206822D01*
X69968750Y-89206822D01*
X70093232Y-89194562D01*
X70212930Y-89158252D01*
X70323244Y-89099287D01*
X70419935Y-89019935D01*
X70499287Y-88923244D01*
X70558252Y-88812930D01*
X70594562Y-88693232D01*
X70606822Y-88568750D01*
X70606822Y-88430750D01*
X72075841Y-88430750D01*
X72078836Y-88433208D01*
X72231291Y-88514697D01*
X72396715Y-88564878D01*
X72568750Y-88581822D01*
X73481250Y-88581822D01*
X73653285Y-88564878D01*
X73818709Y-88514697D01*
X73971164Y-88433208D01*
X74104792Y-88323542D01*
X74214458Y-88189914D01*
X74295947Y-88037459D01*
X74346128Y-87872035D01*
X74363072Y-87700000D01*
X74363072Y-87212500D01*
X74346128Y-87040465D01*
X74295947Y-86875041D01*
X74214458Y-86722586D01*
X74104792Y-86588958D01*
X74098436Y-86583742D01*
X74176185Y-86519935D01*
X74255537Y-86423244D01*
X74314502Y-86312930D01*
X74350812Y-86193232D01*
X74363072Y-86068750D01*
X74360000Y-85867000D01*
X74201250Y-85708250D01*
X73152000Y-85708250D01*
X73152000Y-85728250D01*
X72898000Y-85728250D01*
X72898000Y-85708250D01*
X71848750Y-85708250D01*
X71690000Y-85867000D01*
X71686928Y-86068750D01*
X71699188Y-86193232D01*
X71735498Y-86312930D01*
X71794463Y-86423244D01*
X71873815Y-86519935D01*
X71951564Y-86583742D01*
X71945208Y-86588958D01*
X71835542Y-86722586D01*
X71754053Y-86875041D01*
X71744434Y-86906750D01*
X70606822Y-86906750D01*
X70606822Y-86768750D01*
X70594562Y-86644268D01*
X70558252Y-86524570D01*
X70555141Y-86518750D01*
X70558252Y-86512930D01*
X70594562Y-86393232D01*
X70606822Y-86268750D01*
X70603750Y-85654500D01*
X70445000Y-85495750D01*
X69045750Y-85495750D01*
X69045750Y-85515750D01*
X68791750Y-85515750D01*
X68791750Y-85495750D01*
X68771750Y-85495750D01*
X68771750Y-85241750D01*
X68791750Y-85241750D01*
X68791750Y-83992500D01*
X69045750Y-83992500D01*
X69045750Y-85241750D01*
X70445000Y-85241750D01*
X70593000Y-85093750D01*
X71686928Y-85093750D01*
X71690000Y-85295500D01*
X71848750Y-85454250D01*
X72898000Y-85454250D01*
X72898000Y-84617500D01*
X73152000Y-84617500D01*
X73152000Y-85454250D01*
X74201250Y-85454250D01*
X74360000Y-85295500D01*
X74363072Y-85093750D01*
X74350812Y-84969268D01*
X74314502Y-84849570D01*
X74255537Y-84739256D01*
X74176185Y-84642565D01*
X74079494Y-84563213D01*
X73969180Y-84504248D01*
X73849482Y-84467938D01*
X73725000Y-84455678D01*
X73310750Y-84458750D01*
X73152000Y-84617500D01*
X72898000Y-84617500D01*
X72739250Y-84458750D01*
X72325000Y-84455678D01*
X72200518Y-84467938D01*
X72080820Y-84504248D01*
X71970506Y-84563213D01*
X71873815Y-84642565D01*
X71794463Y-84739256D01*
X71735498Y-84849570D01*
X71699188Y-84969268D01*
X71686928Y-85093750D01*
X70593000Y-85093750D01*
X70603750Y-85083000D01*
X70606822Y-84468750D01*
X70594562Y-84344268D01*
X70558252Y-84224570D01*
X70499287Y-84114256D01*
X70419935Y-84017565D01*
X70323244Y-83938213D01*
X70212930Y-83879248D01*
X70093232Y-83842938D01*
X69968750Y-83830678D01*
X69204500Y-83833750D01*
X69045750Y-83992500D01*
X68791750Y-83992500D01*
X68633000Y-83833750D01*
X67868750Y-83830678D01*
X67744268Y-83842938D01*
X67624570Y-83879248D01*
X67514256Y-83938213D01*
X67468750Y-83975559D01*
X67423244Y-83938213D01*
X67312930Y-83879248D01*
X67193232Y-83842938D01*
X67068750Y-83830678D01*
X64968750Y-83830678D01*
X64844268Y-83842938D01*
X64724570Y-83879248D01*
X64614256Y-83938213D01*
X64517565Y-84017565D01*
X64438213Y-84114256D01*
X64379248Y-84224570D01*
X64342938Y-84344268D01*
X64330678Y-84468750D01*
X64330678Y-84819250D01*
X63872453Y-84819250D01*
X63786042Y-84713958D01*
X63652414Y-84604292D01*
X63499959Y-84522803D01*
X63334535Y-84472622D01*
X63162500Y-84455678D01*
X62250000Y-84455678D01*
X62077965Y-84472622D01*
X61912541Y-84522803D01*
X61760086Y-84604292D01*
X61626458Y-84713958D01*
X61516792Y-84847586D01*
X61435303Y-85000041D01*
X61385122Y-85165465D01*
X61368178Y-85337500D01*
X61368178Y-85825000D01*
X61385122Y-85997035D01*
X61435303Y-86162459D01*
X61516792Y-86314914D01*
X61626458Y-86448542D01*
X61632814Y-86453758D01*
X61555065Y-86517565D01*
X61475713Y-86614256D01*
X61416748Y-86724570D01*
X61380438Y-86844268D01*
X61368178Y-86968750D01*
X61371250Y-87170500D01*
X61530000Y-87329250D01*
X62579250Y-87329250D01*
X62579250Y-87309250D01*
X62833250Y-87309250D01*
X62833250Y-87329250D01*
X62853250Y-87329250D01*
X62853250Y-87583250D01*
X62833250Y-87583250D01*
X62833250Y-88420000D01*
X62992000Y-88578750D01*
X63406250Y-88581822D01*
X63530732Y-88569562D01*
X63531750Y-88569253D01*
X63531750Y-88862576D01*
X63528064Y-88900000D01*
X63531750Y-88937423D01*
X63531750Y-88937425D01*
X63542776Y-89049377D01*
X63586348Y-89193014D01*
X63606352Y-89230438D01*
X63657105Y-89325392D01*
X63696733Y-89373678D01*
X63752328Y-89441422D01*
X63781404Y-89465284D01*
X65113001Y-90796882D01*
X65113000Y-92361205D01*
X65103071Y-92373304D01*
X65097806Y-92319842D01*
X65088556Y-92225924D01*
X65041353Y-92070316D01*
X64964699Y-91926908D01*
X64861541Y-91801209D01*
X64830035Y-91775353D01*
X64718398Y-91663716D01*
X64692541Y-91632209D01*
X64566842Y-91529051D01*
X64423434Y-91452397D01*
X64267826Y-91405194D01*
X64264410Y-91404858D01*
X63967029Y-91107478D01*
X63941173Y-91075972D01*
X63815474Y-90972814D01*
X63672066Y-90896160D01*
X63516458Y-90848957D01*
X63395185Y-90837013D01*
X63395182Y-90837013D01*
X63354632Y-90833019D01*
X63314082Y-90837013D01*
X59281254Y-90837013D01*
X59281822Y-90831250D01*
X59278750Y-90629500D01*
X59120000Y-90470750D01*
X58070750Y-90470750D01*
X58070750Y-90490750D01*
X57816750Y-90490750D01*
X57816750Y-90470750D01*
X57796750Y-90470750D01*
X57796750Y-90216750D01*
X57816750Y-90216750D01*
X57816750Y-89380000D01*
X58070750Y-89380000D01*
X58070750Y-90216750D01*
X59120000Y-90216750D01*
X59278750Y-90058000D01*
X59281822Y-89856250D01*
X59269562Y-89731768D01*
X59233252Y-89612070D01*
X59174287Y-89501756D01*
X59094935Y-89405065D01*
X58998244Y-89325713D01*
X58887930Y-89266748D01*
X58768232Y-89230438D01*
X58643750Y-89218178D01*
X58229500Y-89221250D01*
X58070750Y-89380000D01*
X57816750Y-89380000D01*
X57658000Y-89221250D01*
X57243750Y-89218178D01*
X57119268Y-89230438D01*
X56999570Y-89266748D01*
X56889256Y-89325713D01*
X56792565Y-89405065D01*
X56713213Y-89501756D01*
X56654248Y-89612070D01*
X56617938Y-89731768D01*
X56605678Y-89856250D01*
X56608750Y-90058000D01*
X56767498Y-90216748D01*
X56608750Y-90216748D01*
X56608750Y-90276198D01*
X56496254Y-90253822D01*
X56054817Y-89812385D01*
X56039697Y-89762541D01*
X55958208Y-89610086D01*
X55848542Y-89476458D01*
X55714914Y-89366792D01*
X55562459Y-89285303D01*
X55397035Y-89235122D01*
X55225000Y-89218178D01*
X54312500Y-89218178D01*
X54140465Y-89235122D01*
X53975041Y-89285303D01*
X53822586Y-89366792D01*
X53688958Y-89476458D01*
X53579292Y-89610086D01*
X53497803Y-89762541D01*
X53447622Y-89927965D01*
X53430678Y-90100000D01*
X53430678Y-90587500D01*
X53447622Y-90759535D01*
X53497803Y-90924959D01*
X53579292Y-91077414D01*
X53688958Y-91211042D01*
X53774506Y-91281250D01*
X53688958Y-91351458D01*
X53602547Y-91456750D01*
X53219182Y-91456750D01*
X53191437Y-91415226D01*
X53047274Y-91271063D01*
X52877756Y-91157795D01*
X52689398Y-91079774D01*
X52489439Y-91040000D01*
X52285561Y-91040000D01*
X52085602Y-91079774D01*
X51897244Y-91157795D01*
X51727726Y-91271063D01*
X51705750Y-91293039D01*
X51705750Y-87943750D01*
X61368178Y-87943750D01*
X61380438Y-88068232D01*
X61416748Y-88187930D01*
X61475713Y-88298244D01*
X61555065Y-88394935D01*
X61651756Y-88474287D01*
X61762070Y-88533252D01*
X61881768Y-88569562D01*
X62006250Y-88581822D01*
X62420500Y-88578750D01*
X62579250Y-88420000D01*
X62579250Y-87583250D01*
X61530000Y-87583250D01*
X61371250Y-87742000D01*
X61368178Y-87943750D01*
X51705750Y-87943750D01*
X51705750Y-86040630D01*
X52339559Y-85406822D01*
X52843750Y-85406822D01*
X53015785Y-85389878D01*
X53181209Y-85339697D01*
X53333664Y-85258208D01*
X53467292Y-85148542D01*
X53576958Y-85014914D01*
X53658447Y-84862459D01*
X53708628Y-84697035D01*
X53725572Y-84525000D01*
X53725572Y-84037500D01*
X53708628Y-83865465D01*
X53658447Y-83700041D01*
X53576958Y-83547586D01*
X53467292Y-83413958D01*
X53381744Y-83343750D01*
X53467292Y-83273542D01*
X53576958Y-83139914D01*
X53658447Y-82987459D01*
X53708628Y-82822035D01*
X53725572Y-82650000D01*
X53725572Y-82162500D01*
X53708628Y-81990465D01*
X53658447Y-81825041D01*
X53576958Y-81672586D01*
X53467292Y-81538958D01*
X53333664Y-81429292D01*
X53181209Y-81347803D01*
X53015785Y-81297622D01*
X52843750Y-81280678D01*
X52339559Y-81280678D01*
X51562000Y-80503120D01*
X51562000Y-79288072D01*
X51850000Y-79288072D01*
X51974482Y-79275812D01*
X52000000Y-79268071D01*
X52025518Y-79275812D01*
X52150000Y-79288072D01*
X52650000Y-79288072D01*
X52774482Y-79275812D01*
X52894180Y-79239502D01*
X53004494Y-79180537D01*
X53101185Y-79101185D01*
X53180537Y-79004494D01*
X53239502Y-78894180D01*
X53240246Y-78891728D01*
X53394866Y-79080134D01*
X53620986Y-79265706D01*
X53878966Y-79403599D01*
X54158889Y-79488513D01*
X54450000Y-79517185D01*
X54741110Y-79488513D01*
X55021033Y-79403599D01*
X55279013Y-79265706D01*
X55505134Y-79080134D01*
X55690706Y-78854014D01*
X55828599Y-78596034D01*
X55913513Y-78316111D01*
X55935000Y-78097950D01*
X55935000Y-76952050D01*
X55913513Y-76733889D01*
X55828599Y-76453966D01*
X55690706Y-76195986D01*
X55505134Y-75969866D01*
X55279014Y-75784294D01*
X55021034Y-75646401D01*
X54741111Y-75561487D01*
X54450000Y-75532815D01*
X54158890Y-75561487D01*
X53878967Y-75646401D01*
X53620987Y-75784294D01*
X53394867Y-75969866D01*
X53240246Y-76158272D01*
X53239502Y-76155820D01*
X53180537Y-76045506D01*
X53101185Y-75948815D01*
X53004494Y-75869463D01*
X52894180Y-75810498D01*
X52774482Y-75774188D01*
X52650000Y-75761928D01*
X52150000Y-75761928D01*
X52025518Y-75774188D01*
X52000000Y-75781929D01*
X51974482Y-75774188D01*
X51850000Y-75761928D01*
X51350000Y-75761928D01*
X51225518Y-75774188D01*
X51200000Y-75781929D01*
X51174482Y-75774188D01*
X51050000Y-75761928D01*
X50550000Y-75761928D01*
X50425518Y-75774188D01*
X50400000Y-75781929D01*
X50374482Y-75774188D01*
X50250000Y-75761928D01*
X49750000Y-75761928D01*
X49625518Y-75774188D01*
X49600000Y-75781929D01*
X49574482Y-75774188D01*
X49450000Y-75761928D01*
X48950000Y-75761928D01*
X48825518Y-75774188D01*
X48705820Y-75810498D01*
X48595506Y-75869463D01*
X48498815Y-75948815D01*
X48419463Y-76045506D01*
X48360498Y-76155820D01*
X48359754Y-76158271D01*
X48205134Y-75969866D01*
X47979014Y-75784294D01*
X47721034Y-75646401D01*
X47441111Y-75561487D01*
X47150000Y-75532815D01*
X46858890Y-75561487D01*
X46578967Y-75646401D01*
X46320987Y-75784294D01*
X46094867Y-75969866D01*
X45909294Y-76195986D01*
X45771401Y-76453966D01*
X45686487Y-76733889D01*
X45665000Y-76952050D01*
X45665000Y-78097949D01*
X45686487Y-78316110D01*
X45771401Y-78596033D01*
X45909294Y-78854013D01*
X46094866Y-79080134D01*
X46320986Y-79265706D01*
X46578966Y-79403599D01*
X46858889Y-79488513D01*
X47150000Y-79517185D01*
X47441110Y-79488513D01*
X47721033Y-79403599D01*
X47979013Y-79265706D01*
X48205134Y-79080134D01*
X48359754Y-78891729D01*
X48360498Y-78894180D01*
X48374501Y-78920377D01*
X48374500Y-79839317D01*
X48076818Y-80137000D01*
X46078050Y-80137000D01*
X46037499Y-80133006D01*
X45996949Y-80137000D01*
X45996947Y-80137000D01*
X45875674Y-80148944D01*
X45745750Y-80188356D01*
X45720066Y-80196147D01*
X45576657Y-80272801D01*
X45515096Y-80323323D01*
X45450959Y-80375959D01*
X45425108Y-80407459D01*
X43894961Y-81937607D01*
X43863460Y-81963459D01*
X43837609Y-81994959D01*
X43760301Y-82089158D01*
X43683647Y-82232567D01*
X43636445Y-82388174D01*
X43620506Y-82550000D01*
X43624501Y-82590560D01*
X43624500Y-88643507D01*
X43485150Y-88685778D01*
X43331614Y-88767845D01*
X43197038Y-88878288D01*
X43086595Y-89012864D01*
X43004528Y-89166400D01*
X42953992Y-89332996D01*
X42936928Y-89506250D01*
X42936928Y-90256250D01*
X42953992Y-90429504D01*
X43004528Y-90596100D01*
X43086595Y-90749636D01*
X43197038Y-90884212D01*
X43331614Y-90994655D01*
X43485150Y-91076722D01*
X43651746Y-91127258D01*
X43825000Y-91144322D01*
X45075000Y-91144322D01*
X45248254Y-91127258D01*
X45414850Y-91076722D01*
X45568386Y-90994655D01*
X45702962Y-90884212D01*
X45813405Y-90749636D01*
X45895472Y-90596100D01*
X45946008Y-90429504D01*
X45963072Y-90256250D01*
X45963072Y-89506250D01*
X45950326Y-89376835D01*
X45959265Y-89347366D01*
X45975204Y-89185540D01*
X45959265Y-89023714D01*
X45912063Y-88868106D01*
X45835409Y-88724697D01*
X45732251Y-88598999D01*
X45606553Y-88495841D01*
X45463144Y-88419187D01*
X45307536Y-88371985D01*
X45275500Y-88368830D01*
X45275500Y-82891932D01*
X46379433Y-81788000D01*
X47167602Y-81788000D01*
X47147803Y-81825041D01*
X47097622Y-81990465D01*
X47080678Y-82162500D01*
X47080678Y-82650000D01*
X47097622Y-82822035D01*
X47147803Y-82987459D01*
X47229292Y-83139914D01*
X47338958Y-83273542D01*
X47424506Y-83343750D01*
X47338958Y-83413958D01*
X47229292Y-83547586D01*
X47147803Y-83700041D01*
X47097622Y-83865465D01*
X47080678Y-84037500D01*
X47080678Y-84525000D01*
X47097622Y-84697035D01*
X47147803Y-84862459D01*
X47229292Y-85014914D01*
X47338958Y-85148542D01*
X47472586Y-85258208D01*
X47625041Y-85339697D01*
X47790465Y-85389878D01*
X47962500Y-85406822D01*
X48466692Y-85406822D01*
X49100500Y-86040631D01*
X49100501Y-103006317D01*
X49096814Y-103043750D01*
X49111527Y-103193128D01*
X49155099Y-103336765D01*
X49225855Y-103469142D01*
X49297221Y-103556101D01*
X49321079Y-103585172D01*
X49350149Y-103609029D01*
X49440966Y-103699846D01*
X49464828Y-103728922D01*
X49580858Y-103824145D01*
X49713235Y-103894902D01*
X49856872Y-103938474D01*
X49968824Y-103949500D01*
X49968826Y-103949500D01*
X50006249Y-103953186D01*
X50043672Y-103949500D01*
X57906327Y-103949500D01*
X57912000Y-103950059D01*
X57912001Y-104743250D01*
X47966933Y-104743250D01*
X45275500Y-102051818D01*
X45275500Y-93918993D01*
X45414850Y-93876722D01*
X45568386Y-93794655D01*
X45702962Y-93684212D01*
X45813405Y-93549636D01*
X45895472Y-93396100D01*
X45946008Y-93229504D01*
X45963072Y-93056250D01*
X45963072Y-92306250D01*
X45946008Y-92132996D01*
X45895472Y-91966400D01*
X45813405Y-91812864D01*
X45702962Y-91678288D01*
X45568386Y-91567845D01*
X45414850Y-91485778D01*
X45248254Y-91435242D01*
X45075000Y-91418178D01*
X43825000Y-91418178D01*
X43651746Y-91435242D01*
X43485150Y-91485778D01*
X43331614Y-91567845D01*
X43197038Y-91678288D01*
X43086595Y-91812864D01*
X43004528Y-91966400D01*
X42953992Y-92132996D01*
X42936928Y-92306250D01*
X42936928Y-93056250D01*
X42953992Y-93229504D01*
X43004528Y-93396100D01*
X43086595Y-93549636D01*
X43197038Y-93684212D01*
X43331614Y-93794655D01*
X43485150Y-93876722D01*
X43624500Y-93918993D01*
X43624501Y-102353190D01*
X43620506Y-102393750D01*
X43636445Y-102555576D01*
X43683647Y-102711183D01*
X43760301Y-102854592D01*
X43786607Y-102886645D01*
X43863460Y-102980291D01*
X43894961Y-103006143D01*
X47012606Y-106123789D01*
X47038459Y-106155291D01*
X47093759Y-106200674D01*
X47164157Y-106258449D01*
X47307566Y-106335103D01*
X47463174Y-106382306D01*
X47584447Y-106394250D01*
X47584449Y-106394250D01*
X47624999Y-106398244D01*
X47665550Y-106394250D01*
X53273289Y-106394250D01*
X53171063Y-106496476D01*
X53057795Y-106665994D01*
X52983113Y-106846290D01*
X52949287Y-106783006D01*
X52869935Y-106686315D01*
X52773244Y-106606963D01*
X52662930Y-106547998D01*
X52543232Y-106511688D01*
X52418750Y-106499428D01*
X50618750Y-106499428D01*
X50494268Y-106511688D01*
X50374570Y-106547998D01*
X50264256Y-106606963D01*
X50167565Y-106686315D01*
X50088213Y-106783006D01*
X50029248Y-106893320D01*
X49992938Y-107013018D01*
X49980678Y-107137500D01*
X49980678Y-108237500D01*
X49992938Y-108361982D01*
X50029248Y-108481680D01*
X50088213Y-108591994D01*
X50167565Y-108688685D01*
X50264256Y-108768037D01*
X50374570Y-108827002D01*
X50494268Y-108863312D01*
X50618750Y-108875572D01*
X52418750Y-108875572D01*
X52543232Y-108863312D01*
X52662930Y-108827002D01*
X52773244Y-108768037D01*
X52869935Y-108688685D01*
X52949287Y-108591994D01*
X53008252Y-108481680D01*
X53018014Y-108449500D01*
X53406327Y-108449500D01*
X53443750Y-108453186D01*
X53481173Y-108449500D01*
X53481176Y-108449500D01*
X53593128Y-108438474D01*
X53736765Y-108394902D01*
X53869142Y-108324145D01*
X53985172Y-108228922D01*
X54009033Y-108199847D01*
X54017630Y-108191250D01*
X54076939Y-108191250D01*
X54276898Y-108151476D01*
X54465256Y-108073455D01*
X54634774Y-107960187D01*
X54778937Y-107816024D01*
X54892205Y-107646506D01*
X54970226Y-107458148D01*
X55010000Y-107258189D01*
X55010000Y-107054311D01*
X54970226Y-106854352D01*
X54892205Y-106665994D01*
X54778937Y-106496476D01*
X54676711Y-106394250D01*
X57912000Y-106394250D01*
X57912001Y-107909440D01*
X57908006Y-107950000D01*
X57923945Y-108111826D01*
X57971147Y-108267433D01*
X58047801Y-108410842D01*
X58105937Y-108481680D01*
X58150960Y-108536541D01*
X58182461Y-108562393D01*
X59712606Y-110092539D01*
X59738459Y-110124041D01*
X59802596Y-110176677D01*
X59864157Y-110227199D01*
X60007566Y-110303853D01*
X60163174Y-110351056D01*
X60284447Y-110363000D01*
X60284449Y-110363000D01*
X60324999Y-110366994D01*
X60365550Y-110363000D01*
X60727296Y-110363000D01*
X60791792Y-110483664D01*
X60901458Y-110617292D01*
X61035086Y-110726958D01*
X61187541Y-110808447D01*
X61352965Y-110858628D01*
X61525000Y-110875572D01*
X62012500Y-110875572D01*
X62184535Y-110858628D01*
X62349959Y-110808447D01*
X62502414Y-110726958D01*
X62636042Y-110617292D01*
X62641258Y-110610936D01*
X62705065Y-110688685D01*
X62801756Y-110768037D01*
X62912070Y-110827002D01*
X63031768Y-110863312D01*
X63156250Y-110875572D01*
X63358000Y-110872500D01*
X63516750Y-110713750D01*
X63516750Y-109664500D01*
X63770750Y-109664500D01*
X63770750Y-110713750D01*
X63929500Y-110872500D01*
X64131250Y-110875572D01*
X64255732Y-110863312D01*
X64375430Y-110827002D01*
X64485744Y-110768037D01*
X64582435Y-110688685D01*
X64661787Y-110591994D01*
X64720752Y-110481680D01*
X64757062Y-110361982D01*
X64769322Y-110237500D01*
X70168178Y-110237500D01*
X70180438Y-110361982D01*
X70216748Y-110481680D01*
X70275713Y-110591994D01*
X70355065Y-110688685D01*
X70451756Y-110768037D01*
X70562070Y-110827002D01*
X70681768Y-110863312D01*
X70806250Y-110875572D01*
X71008000Y-110872500D01*
X71166750Y-110713750D01*
X71166750Y-109664500D01*
X70330000Y-109664500D01*
X70171250Y-109823250D01*
X70168178Y-110237500D01*
X64769322Y-110237500D01*
X64766250Y-109823250D01*
X64607500Y-109664500D01*
X63770750Y-109664500D01*
X63516750Y-109664500D01*
X63496750Y-109664500D01*
X63496750Y-109410500D01*
X63516750Y-109410500D01*
X63516750Y-108361250D01*
X63770750Y-108361250D01*
X63770750Y-109410500D01*
X64607500Y-109410500D01*
X64766250Y-109251750D01*
X64769322Y-108837500D01*
X64757062Y-108713018D01*
X64720752Y-108593320D01*
X64661787Y-108483006D01*
X64582435Y-108386315D01*
X64485744Y-108306963D01*
X64375430Y-108247998D01*
X64255732Y-108211688D01*
X64131250Y-108199428D01*
X63929500Y-108202500D01*
X63770750Y-108361250D01*
X63516750Y-108361250D01*
X63358000Y-108202500D01*
X63156250Y-108199428D01*
X63031768Y-108211688D01*
X62912070Y-108247998D01*
X62801756Y-108306963D01*
X62705065Y-108386315D01*
X62641258Y-108464064D01*
X62636042Y-108457708D01*
X62502414Y-108348042D01*
X62349959Y-108266553D01*
X62184535Y-108216372D01*
X62012500Y-108199428D01*
X61525000Y-108199428D01*
X61352965Y-108216372D01*
X61187541Y-108266553D01*
X61035086Y-108348042D01*
X60901458Y-108457708D01*
X60791792Y-108591336D01*
X60727296Y-108712000D01*
X60666933Y-108712000D01*
X59563000Y-107608068D01*
X59563000Y-107188867D01*
X59571800Y-107188000D01*
X61665700Y-107188000D01*
X61706250Y-107191994D01*
X61746800Y-107188000D01*
X61746803Y-107188000D01*
X61868076Y-107176056D01*
X62023684Y-107128853D01*
X62167092Y-107052199D01*
X62292791Y-106949041D01*
X62318648Y-106917534D01*
X62929361Y-106306822D01*
X62950000Y-106306822D01*
X63074482Y-106294562D01*
X63075663Y-106294204D01*
X63189250Y-106303750D01*
X63281333Y-106211667D01*
X63304494Y-106199287D01*
X63401185Y-106119935D01*
X63475000Y-106029991D01*
X63548815Y-106119935D01*
X63645506Y-106199287D01*
X63668667Y-106211667D01*
X63760750Y-106303750D01*
X63874337Y-106294204D01*
X63875518Y-106294562D01*
X64000000Y-106306822D01*
X64550000Y-106306822D01*
X64674482Y-106294562D01*
X64675000Y-106294405D01*
X64675518Y-106294562D01*
X64800000Y-106306822D01*
X65350000Y-106306822D01*
X65474482Y-106294562D01*
X65475000Y-106294405D01*
X65475518Y-106294562D01*
X65600000Y-106306822D01*
X66150000Y-106306822D01*
X66274482Y-106294562D01*
X66275000Y-106294405D01*
X66275518Y-106294562D01*
X66400000Y-106306822D01*
X66950000Y-106306822D01*
X67074482Y-106294562D01*
X67075000Y-106294405D01*
X67075518Y-106294562D01*
X67200000Y-106306822D01*
X67750000Y-106306822D01*
X67874482Y-106294562D01*
X67875000Y-106294405D01*
X67875518Y-106294562D01*
X68000000Y-106306822D01*
X68550000Y-106306822D01*
X68674482Y-106294562D01*
X68675000Y-106294405D01*
X68675518Y-106294562D01*
X68800000Y-106306822D01*
X69350000Y-106306822D01*
X69474482Y-106294562D01*
X69475663Y-106294204D01*
X69589250Y-106303750D01*
X69681333Y-106211667D01*
X69704494Y-106199287D01*
X69747998Y-106163584D01*
X69747998Y-106303750D01*
X69849501Y-106303750D01*
X69849501Y-107003190D01*
X69845506Y-107043750D01*
X69861445Y-107205576D01*
X69908647Y-107361183D01*
X69985301Y-107504592D01*
X70012819Y-107538122D01*
X70088460Y-107630291D01*
X70119961Y-107656143D01*
X70676963Y-108213146D01*
X70562070Y-108247998D01*
X70451756Y-108306963D01*
X70355065Y-108386315D01*
X70275713Y-108483006D01*
X70216748Y-108593320D01*
X70180438Y-108713018D01*
X70168178Y-108837500D01*
X70171250Y-109251750D01*
X70330000Y-109410500D01*
X71166750Y-109410500D01*
X71166750Y-109390500D01*
X71420750Y-109390500D01*
X71420750Y-109410500D01*
X71440750Y-109410500D01*
X71440750Y-109664500D01*
X71420750Y-109664500D01*
X71420750Y-110713750D01*
X71579500Y-110872500D01*
X71781250Y-110875572D01*
X71905732Y-110863312D01*
X72025430Y-110827002D01*
X72135744Y-110768037D01*
X72232435Y-110688685D01*
X72296242Y-110610936D01*
X72301458Y-110617292D01*
X72435086Y-110726958D01*
X72587541Y-110808447D01*
X72752965Y-110858628D01*
X72925000Y-110875572D01*
X73412500Y-110875572D01*
X73584535Y-110858628D01*
X73749959Y-110808447D01*
X73902414Y-110726958D01*
X74036042Y-110617292D01*
X74145708Y-110483664D01*
X74210204Y-110363000D01*
X74778747Y-110363000D01*
X74915994Y-110454705D01*
X75104352Y-110532726D01*
X75304311Y-110572500D01*
X75508189Y-110572500D01*
X75708148Y-110532726D01*
X75896506Y-110454705D01*
X76066024Y-110341437D01*
X76210187Y-110197274D01*
X76323455Y-110027756D01*
X76401476Y-109839398D01*
X76441250Y-109639439D01*
X76441250Y-109435561D01*
X76401476Y-109235602D01*
X76323455Y-109047244D01*
X76210187Y-108877726D01*
X76066024Y-108733563D01*
X75896506Y-108620295D01*
X75708148Y-108542274D01*
X75508189Y-108502500D01*
X75304311Y-108502500D01*
X75104352Y-108542274D01*
X74915994Y-108620295D01*
X74778747Y-108712000D01*
X74210204Y-108712000D01*
X74145708Y-108591336D01*
X74036042Y-108457708D01*
X73902414Y-108348042D01*
X73749959Y-108266553D01*
X73584535Y-108216372D01*
X73412500Y-108199428D01*
X72998111Y-108199428D01*
X71500500Y-106701818D01*
X71500500Y-105985896D01*
X71539502Y-105912930D01*
X71575812Y-105793232D01*
X71588072Y-105668750D01*
X71588072Y-105406250D01*
X74068178Y-105406250D01*
X74080438Y-105530732D01*
X74116748Y-105650430D01*
X74175713Y-105760744D01*
X74255065Y-105857435D01*
X74351756Y-105936787D01*
X74462070Y-105995752D01*
X74581768Y-106032062D01*
X74706250Y-106044322D01*
X75120500Y-106041250D01*
X75279250Y-105882500D01*
X75279250Y-105045750D01*
X75533250Y-105045750D01*
X75533250Y-105882500D01*
X75692000Y-106041250D01*
X76106250Y-106044322D01*
X76230732Y-106032062D01*
X76350430Y-105995752D01*
X76460744Y-105936787D01*
X76557435Y-105857435D01*
X76636787Y-105760744D01*
X76695752Y-105650430D01*
X76732062Y-105530732D01*
X76744322Y-105406250D01*
X76741250Y-105204500D01*
X76582500Y-105045750D01*
X75533250Y-105045750D01*
X75279250Y-105045750D01*
X74230000Y-105045750D01*
X74071250Y-105204500D01*
X74068178Y-105406250D01*
X71588072Y-105406250D01*
X71588072Y-104168750D01*
X71584038Y-104127788D01*
X71625000Y-104131822D01*
X73125000Y-104131822D01*
X73249482Y-104119562D01*
X73369180Y-104083252D01*
X73479494Y-104024287D01*
X73576185Y-103944935D01*
X73655537Y-103848244D01*
X73678251Y-103805750D01*
X74240047Y-103805750D01*
X74326458Y-103911042D01*
X74332814Y-103916258D01*
X74255065Y-103980065D01*
X74175713Y-104076756D01*
X74116748Y-104187070D01*
X74080438Y-104306768D01*
X74068178Y-104431250D01*
X74071250Y-104633000D01*
X74230000Y-104791750D01*
X75279250Y-104791750D01*
X75279250Y-104771750D01*
X75533250Y-104771750D01*
X75533250Y-104791750D01*
X76582500Y-104791750D01*
X76741250Y-104633000D01*
X76744322Y-104431250D01*
X76732062Y-104306768D01*
X76695752Y-104187070D01*
X76636787Y-104076756D01*
X76557435Y-103980065D01*
X76479686Y-103916258D01*
X76486042Y-103911042D01*
X76595708Y-103777414D01*
X76677197Y-103624959D01*
X76727378Y-103459535D01*
X76744322Y-103287500D01*
X76744322Y-102800000D01*
X76727378Y-102627965D01*
X76677197Y-102462541D01*
X76595708Y-102310086D01*
X76486042Y-102176458D01*
X76352414Y-102066792D01*
X76199959Y-101985303D01*
X76034535Y-101935122D01*
X75862500Y-101918178D01*
X74950000Y-101918178D01*
X74777965Y-101935122D01*
X74612541Y-101985303D01*
X74460086Y-102066792D01*
X74326458Y-102176458D01*
X74240047Y-102281750D01*
X73763072Y-102281750D01*
X73763072Y-102143750D01*
X73750812Y-102019268D01*
X73750655Y-102018750D01*
X73750812Y-102018232D01*
X73763072Y-101893750D01*
X73763072Y-101343750D01*
X73750812Y-101219268D01*
X73750655Y-101218750D01*
X73750812Y-101218232D01*
X73763072Y-101093750D01*
X73763072Y-100780750D01*
X77660500Y-100780750D01*
X77660500Y-115227500D01*
X42894780Y-115227500D01*
X42682962Y-115206731D01*
X42510264Y-115154591D01*
X42350982Y-115069899D01*
X42211179Y-114955878D01*
X42096194Y-114816885D01*
X42010390Y-114658195D01*
X41957045Y-114485865D01*
X41935000Y-114276119D01*
X41935000Y-111937500D01*
X43780678Y-111937500D01*
X43792938Y-112061982D01*
X43829248Y-112181680D01*
X43888213Y-112291994D01*
X43967565Y-112388685D01*
X44064256Y-112468037D01*
X44174570Y-112527002D01*
X44294268Y-112563312D01*
X44418750Y-112575572D01*
X45033000Y-112572500D01*
X45191750Y-112413750D01*
X45191750Y-111514500D01*
X45445750Y-111514500D01*
X45445750Y-112413750D01*
X45604500Y-112572500D01*
X46218750Y-112575572D01*
X46343232Y-112563312D01*
X46462930Y-112527002D01*
X46573244Y-112468037D01*
X46669935Y-112388685D01*
X46749287Y-112291994D01*
X46808252Y-112181680D01*
X46844562Y-112061982D01*
X46856822Y-111937500D01*
X46853750Y-111673250D01*
X46695000Y-111514500D01*
X45445750Y-111514500D01*
X45191750Y-111514500D01*
X43942500Y-111514500D01*
X43783750Y-111673250D01*
X43780678Y-111937500D01*
X41935000Y-111937500D01*
X41935000Y-110837500D01*
X43780678Y-110837500D01*
X43783750Y-111101750D01*
X43942500Y-111260500D01*
X45191750Y-111260500D01*
X45191750Y-110361250D01*
X45445750Y-110361250D01*
X45445750Y-111260500D01*
X46695000Y-111260500D01*
X46853750Y-111101750D01*
X46856822Y-110837500D01*
X49980678Y-110837500D01*
X49980678Y-111937500D01*
X49992938Y-112061982D01*
X50029248Y-112181680D01*
X50088213Y-112291994D01*
X50167565Y-112388685D01*
X50264256Y-112468037D01*
X50374570Y-112527002D01*
X50494268Y-112563312D01*
X50618750Y-112575572D01*
X52418750Y-112575572D01*
X52543232Y-112563312D01*
X52662930Y-112527002D01*
X52773244Y-112468037D01*
X52869935Y-112388685D01*
X52949287Y-112291994D01*
X53008252Y-112181680D01*
X53044562Y-112061982D01*
X53056822Y-111937500D01*
X53056822Y-110837500D01*
X53044562Y-110713018D01*
X53008252Y-110593320D01*
X52949287Y-110483006D01*
X52869935Y-110386315D01*
X52773244Y-110306963D01*
X52662930Y-110247998D01*
X52543232Y-110211688D01*
X52418750Y-110199428D01*
X50618750Y-110199428D01*
X50494268Y-110211688D01*
X50374570Y-110247998D01*
X50264256Y-110306963D01*
X50167565Y-110386315D01*
X50088213Y-110483006D01*
X50029248Y-110593320D01*
X49992938Y-110713018D01*
X49980678Y-110837500D01*
X46856822Y-110837500D01*
X46844562Y-110713018D01*
X46808252Y-110593320D01*
X46749287Y-110483006D01*
X46669935Y-110386315D01*
X46573244Y-110306963D01*
X46462930Y-110247998D01*
X46343232Y-110211688D01*
X46218750Y-110199428D01*
X45604500Y-110202500D01*
X45445750Y-110361250D01*
X45191750Y-110361250D01*
X45033000Y-110202500D01*
X44418750Y-110199428D01*
X44294268Y-110211688D01*
X44174570Y-110247998D01*
X44064256Y-110306963D01*
X43967565Y-110386315D01*
X43888213Y-110483006D01*
X43829248Y-110593320D01*
X43792938Y-110713018D01*
X43780678Y-110837500D01*
X41935000Y-110837500D01*
X41935000Y-107137500D01*
X43780678Y-107137500D01*
X43780678Y-108237500D01*
X43792938Y-108361982D01*
X43829248Y-108481680D01*
X43888213Y-108591994D01*
X43967565Y-108688685D01*
X44064256Y-108768037D01*
X44174570Y-108827002D01*
X44294268Y-108863312D01*
X44418750Y-108875572D01*
X46218750Y-108875572D01*
X46343232Y-108863312D01*
X46462930Y-108827002D01*
X46573244Y-108768037D01*
X46669935Y-108688685D01*
X46749287Y-108591994D01*
X46808252Y-108481680D01*
X46844562Y-108361982D01*
X46856822Y-108237500D01*
X46856822Y-107137500D01*
X46844562Y-107013018D01*
X46808252Y-106893320D01*
X46749287Y-106783006D01*
X46669935Y-106686315D01*
X46573244Y-106606963D01*
X46462930Y-106547998D01*
X46343232Y-106511688D01*
X46218750Y-106499428D01*
X44418750Y-106499428D01*
X44294268Y-106511688D01*
X44174570Y-106547998D01*
X44064256Y-106606963D01*
X43967565Y-106686315D01*
X43888213Y-106783006D01*
X43829248Y-106893320D01*
X43792938Y-107013018D01*
X43780678Y-107137500D01*
X41935000Y-107137500D01*
X41935000Y-73057279D01*
X41955769Y-72845462D01*
X42007910Y-72672763D01*
X42092602Y-72513482D01*
X42206619Y-72373681D01*
X42345617Y-72258692D01*
X42504305Y-72172890D01*
X42676635Y-72119545D01*
X42886380Y-72097500D01*
X45727860Y-72097500D01*
X45686487Y-72233889D01*
G36*
X51727726Y-92878937D02*
G01*
X51897244Y-92992205D01*
X52085602Y-93070226D01*
X52285561Y-93110000D01*
X52489439Y-93110000D01*
X52689398Y-93070226D01*
X52877756Y-92992205D01*
X52894900Y-92980750D01*
X53602547Y-92980750D01*
X53688958Y-93086042D01*
X53822586Y-93195708D01*
X53975041Y-93277197D01*
X54140465Y-93327378D01*
X54312500Y-93344322D01*
X54816692Y-93344322D01*
X55647221Y-94174852D01*
X55671078Y-94203922D01*
X55700148Y-94227779D01*
X55787107Y-94299145D01*
X55821111Y-94317320D01*
X55919485Y-94369902D01*
X56063122Y-94413474D01*
X56175074Y-94424500D01*
X56175077Y-94424500D01*
X56212500Y-94428186D01*
X56249923Y-94424500D01*
X59856753Y-94424500D01*
X59773815Y-94492565D01*
X59694463Y-94589256D01*
X59635498Y-94699570D01*
X59599188Y-94819268D01*
X59586928Y-94943750D01*
X59586928Y-95493750D01*
X59599188Y-95618232D01*
X59599345Y-95618750D01*
X59599188Y-95619268D01*
X59586928Y-95743750D01*
X59586928Y-96293750D01*
X59599188Y-96418232D01*
X59599345Y-96418750D01*
X59599188Y-96419268D01*
X59586928Y-96543750D01*
X59586928Y-97039558D01*
X59541437Y-96971476D01*
X59397274Y-96827313D01*
X59227756Y-96714045D01*
X59039398Y-96636024D01*
X58839439Y-96596250D01*
X58635561Y-96596250D01*
X58435602Y-96636024D01*
X58247244Y-96714045D01*
X58077726Y-96827313D01*
X57933563Y-96971476D01*
X57820295Y-97140994D01*
X57742274Y-97329352D01*
X57702500Y-97529311D01*
X57702500Y-97733189D01*
X57742274Y-97933148D01*
X57820295Y-98121506D01*
X57933563Y-98291024D01*
X57955539Y-98313000D01*
X56728703Y-98313000D01*
X56642292Y-98207708D01*
X56508664Y-98098042D01*
X56356209Y-98016553D01*
X56190785Y-97966372D01*
X56018750Y-97949428D01*
X55106250Y-97949428D01*
X54934215Y-97966372D01*
X54768791Y-98016553D01*
X54616336Y-98098042D01*
X54482708Y-98207708D01*
X54373042Y-98341336D01*
X54291553Y-98493791D01*
X54241372Y-98659215D01*
X54224428Y-98831250D01*
X54224428Y-99318750D01*
X54241372Y-99490785D01*
X54291553Y-99656209D01*
X54373042Y-99808664D01*
X54482708Y-99942292D01*
X54489064Y-99947508D01*
X54411315Y-100011315D01*
X54331963Y-100108006D01*
X54272998Y-100218320D01*
X54236688Y-100338018D01*
X54224428Y-100462500D01*
X54227500Y-100664250D01*
X54386250Y-100823000D01*
X55435500Y-100823000D01*
X55435500Y-100803000D01*
X55689500Y-100803000D01*
X55689500Y-100823000D01*
X56738750Y-100823000D01*
X56897500Y-100664250D01*
X56900572Y-100462500D01*
X56888312Y-100338018D01*
X56852002Y-100218320D01*
X56793037Y-100108006D01*
X56713685Y-100011315D01*
X56635936Y-99947508D01*
X56642292Y-99942292D01*
X56728703Y-99837000D01*
X59688453Y-99837000D01*
X59694463Y-99848244D01*
X59773815Y-99944935D01*
X59863759Y-100018750D01*
X59817456Y-100056750D01*
X58762422Y-100056750D01*
X58724999Y-100053064D01*
X58687576Y-100056750D01*
X58687574Y-100056750D01*
X58575622Y-100067776D01*
X58431985Y-100111348D01*
X58299608Y-100182105D01*
X58183578Y-100277328D01*
X58159721Y-100306398D01*
X56881421Y-101584699D01*
X56888312Y-101561982D01*
X56900572Y-101437500D01*
X56897500Y-101235750D01*
X56738750Y-101077000D01*
X55689500Y-101077000D01*
X55689500Y-101097000D01*
X55435500Y-101097000D01*
X55435500Y-101077000D01*
X54386250Y-101077000D01*
X54227500Y-101235750D01*
X54224428Y-101437500D01*
X54236688Y-101561982D01*
X54257852Y-101631750D01*
X51705750Y-101631750D01*
X51705750Y-92856961D01*
X51727726Y-92878937D01*
X51727726Y-92878937D01*
G37*
X51727726Y-92878937D02*
X51897244Y-92992205D01*
X52085602Y-93070226D01*
X52285561Y-93110000D01*
X52489439Y-93110000D01*
X52689398Y-93070226D01*
X52877756Y-92992205D01*
X52894900Y-92980750D01*
X53602547Y-92980750D01*
X53688958Y-93086042D01*
X53822586Y-93195708D01*
X53975041Y-93277197D01*
X54140465Y-93327378D01*
X54312500Y-93344322D01*
X54816692Y-93344322D01*
X55647221Y-94174852D01*
X55671078Y-94203922D01*
X55700148Y-94227779D01*
X55787107Y-94299145D01*
X55821111Y-94317320D01*
X55919485Y-94369902D01*
X56063122Y-94413474D01*
X56175074Y-94424500D01*
X56175077Y-94424500D01*
X56212500Y-94428186D01*
X56249923Y-94424500D01*
X59856753Y-94424500D01*
X59773815Y-94492565D01*
X59694463Y-94589256D01*
X59635498Y-94699570D01*
X59599188Y-94819268D01*
X59586928Y-94943750D01*
X59586928Y-95493750D01*
X59599188Y-95618232D01*
X59599345Y-95618750D01*
X59599188Y-95619268D01*
X59586928Y-95743750D01*
X59586928Y-96293750D01*
X59599188Y-96418232D01*
X59599345Y-96418750D01*
X59599188Y-96419268D01*
X59586928Y-96543750D01*
X59586928Y-97039558D01*
X59541437Y-96971476D01*
X59397274Y-96827313D01*
X59227756Y-96714045D01*
X59039398Y-96636024D01*
X58839439Y-96596250D01*
X58635561Y-96596250D01*
X58435602Y-96636024D01*
X58247244Y-96714045D01*
X58077726Y-96827313D01*
X57933563Y-96971476D01*
X57820295Y-97140994D01*
X57742274Y-97329352D01*
X57702500Y-97529311D01*
X57702500Y-97733189D01*
X57742274Y-97933148D01*
X57820295Y-98121506D01*
X57933563Y-98291024D01*
X57955539Y-98313000D01*
X56728703Y-98313000D01*
X56642292Y-98207708D01*
X56508664Y-98098042D01*
X56356209Y-98016553D01*
X56190785Y-97966372D01*
X56018750Y-97949428D01*
X55106250Y-97949428D01*
X54934215Y-97966372D01*
X54768791Y-98016553D01*
X54616336Y-98098042D01*
X54482708Y-98207708D01*
X54373042Y-98341336D01*
X54291553Y-98493791D01*
X54241372Y-98659215D01*
X54224428Y-98831250D01*
X54224428Y-99318750D01*
X54241372Y-99490785D01*
X54291553Y-99656209D01*
X54373042Y-99808664D01*
X54482708Y-99942292D01*
X54489064Y-99947508D01*
X54411315Y-100011315D01*
X54331963Y-100108006D01*
X54272998Y-100218320D01*
X54236688Y-100338018D01*
X54224428Y-100462500D01*
X54227500Y-100664250D01*
X54386250Y-100823000D01*
X55435500Y-100823000D01*
X55435500Y-100803000D01*
X55689500Y-100803000D01*
X55689500Y-100823000D01*
X56738750Y-100823000D01*
X56897500Y-100664250D01*
X56900572Y-100462500D01*
X56888312Y-100338018D01*
X56852002Y-100218320D01*
X56793037Y-100108006D01*
X56713685Y-100011315D01*
X56635936Y-99947508D01*
X56642292Y-99942292D01*
X56728703Y-99837000D01*
X59688453Y-99837000D01*
X59694463Y-99848244D01*
X59773815Y-99944935D01*
X59863759Y-100018750D01*
X59817456Y-100056750D01*
X58762422Y-100056750D01*
X58724999Y-100053064D01*
X58687576Y-100056750D01*
X58687574Y-100056750D01*
X58575622Y-100067776D01*
X58431985Y-100111348D01*
X58299608Y-100182105D01*
X58183578Y-100277328D01*
X58159721Y-100306398D01*
X56881421Y-101584699D01*
X56888312Y-101561982D01*
X56900572Y-101437500D01*
X56897500Y-101235750D01*
X56738750Y-101077000D01*
X55689500Y-101077000D01*
X55689500Y-101097000D01*
X55435500Y-101097000D01*
X55435500Y-101077000D01*
X54386250Y-101077000D01*
X54227500Y-101235750D01*
X54224428Y-101437500D01*
X54236688Y-101561982D01*
X54257852Y-101631750D01*
X51705750Y-101631750D01*
X51705750Y-92856961D01*
X51727726Y-92878937D01*
G36*
X66145750Y-87541750D02*
G01*
X66165750Y-87541750D01*
X66165750Y-87795750D01*
X66145750Y-87795750D01*
X66145750Y-89045000D01*
X66304500Y-89203750D01*
X67068750Y-89206822D01*
X67193232Y-89194562D01*
X67312930Y-89158252D01*
X67423244Y-89099287D01*
X67468750Y-89061941D01*
X67514256Y-89099287D01*
X67547053Y-89116817D01*
X66547108Y-90116762D01*
X66538148Y-90100000D01*
X66517895Y-90062108D01*
X66488521Y-90026316D01*
X66446529Y-89975148D01*
X66446522Y-89975141D01*
X66422671Y-89946079D01*
X66393609Y-89922228D01*
X65675362Y-89203982D01*
X65733000Y-89203750D01*
X65891750Y-89045000D01*
X65891750Y-87795750D01*
X65871750Y-87795750D01*
X65871750Y-87541750D01*
X65891750Y-87541750D01*
X65891750Y-87521750D01*
X66145750Y-87521750D01*
X66145750Y-87541750D01*
X66145750Y-87541750D01*
G37*
X66145750Y-87541750D02*
X66165750Y-87541750D01*
X66165750Y-87795750D01*
X66145750Y-87795750D01*
X66145750Y-89045000D01*
X66304500Y-89203750D01*
X67068750Y-89206822D01*
X67193232Y-89194562D01*
X67312930Y-89158252D01*
X67423244Y-89099287D01*
X67468750Y-89061941D01*
X67514256Y-89099287D01*
X67547053Y-89116817D01*
X66547108Y-90116762D01*
X66538148Y-90100000D01*
X66517895Y-90062108D01*
X66488521Y-90026316D01*
X66446529Y-89975148D01*
X66446522Y-89975141D01*
X66422671Y-89946079D01*
X66393609Y-89922228D01*
X65675362Y-89203982D01*
X65733000Y-89203750D01*
X65891750Y-89045000D01*
X65891750Y-87795750D01*
X65871750Y-87795750D01*
X65871750Y-87541750D01*
X65891750Y-87541750D01*
X65891750Y-87521750D01*
X66145750Y-87521750D01*
X66145750Y-87541750D01*
M02*
